<svg xmlns="http://www.w3.org/2000/svg" width="1364.424" height="22.212" viewBox="0 0 1364.424 22.212">
  <g id="Group_7217" data-name="Group 7217" transform="translate(-0.067 -1579)">
    <path id="Path_6723" data-name="Path 6723" d="M0,0,22.212,22.212,44.424,0Z" transform="translate(0.067 1579)" fill="#fff"/>
    <path id="Path_6727" data-name="Path 6727" d="M0,0,22.212,22.212,44.424,0Z" transform="translate(176.067 1579)" fill="#fff"/>
    <path id="Path_6726" data-name="Path 6726" d="M0,0,22.212,22.212,44.424,0Z" transform="translate(88.067 1579)" fill="#fff"/>
    <path id="Path_6729" data-name="Path 6729" d="M0,0,22.212,22.212,44.424,0Z" transform="translate(264.067 1579)" fill="#fff"/>
    <path id="Path_6724" data-name="Path 6724" d="M0,0,22.212,22.212,44.424,0Z" transform="translate(44.067 1579)" fill="#fff"/>
    <path id="Path_6728" data-name="Path 6728" d="M0,0,22.212,22.212,44.424,0Z" transform="translate(220.067 1579)" fill="#fff"/>
    <path id="Path_6725" data-name="Path 6725" d="M0,0,22.212,22.212,44.424,0Z" transform="translate(132.067 1579)" fill="#fff"/>
    <path id="Path_6730" data-name="Path 6730" d="M0,0,22.212,22.212,44.424,0Z" transform="translate(308.067 1579)" fill="#fff"/>
    <path id="Path_6723-2" data-name="Path 6723" d="M0,0,22.212,22.212,44.424,0Z" transform="translate(704.067 1579)" fill="#fff"/>
    <path id="Path_6727-2" data-name="Path 6727" d="M0,0,22.212,22.212,44.424,0Z" transform="translate(880.067 1579)" fill="#fff"/>
    <path id="Path_6726-2" data-name="Path 6726" d="M0,0,22.212,22.212,44.424,0Z" transform="translate(792.067 1579)" fill="#fff"/>
    <path id="Path_6729-2" data-name="Path 6729" d="M0,0,22.212,22.212,44.424,0Z" transform="translate(968.067 1579)" fill="#fff"/>
    <path id="Path_6724-2" data-name="Path 6724" d="M0,0,22.212,22.212,44.424,0Z" transform="translate(748.067 1579)" fill="#fff"/>
    <path id="Path_6728-2" data-name="Path 6728" d="M0,0,22.212,22.212,44.424,0Z" transform="translate(924.067 1579)" fill="#fff"/>
    <path id="Path_6725-2" data-name="Path 6725" d="M0,0,22.212,22.212,44.424,0Z" transform="translate(836.067 1579)" fill="#fff"/>
    <path id="Path_6730-2" data-name="Path 6730" d="M0,0,22.212,22.212,44.424,0Z" transform="translate(1012.067 1579)" fill="#fff"/>
    <path id="Path_6723-3" data-name="Path 6723" d="M0,0,22.212,22.212,44.424,0Z" transform="translate(352.067 1579)" fill="#fff"/>
    <path id="Path_6727-3" data-name="Path 6727" d="M0,0,22.212,22.212,44.424,0Z" transform="translate(528.067 1579)" fill="#fff"/>
    <path id="Path_6726-3" data-name="Path 6726" d="M0,0,22.212,22.212,44.424,0Z" transform="translate(440.067 1579)" fill="#fff"/>
    <path id="Path_6729-3" data-name="Path 6729" d="M0,0,22.212,22.212,44.424,0Z" transform="translate(616.067 1579)" fill="#fff"/>
    <path id="Path_6724-3" data-name="Path 6724" d="M0,0,22.212,22.212,44.424,0Z" transform="translate(396.067 1579)" fill="#fff"/>
    <path id="Path_6728-3" data-name="Path 6728" d="M0,0,22.212,22.212,44.424,0Z" transform="translate(572.067 1579)" fill="#fff"/>
    <path id="Path_6725-3" data-name="Path 6725" d="M0,0,22.212,22.212,44.424,0Z" transform="translate(484.067 1579)" fill="#fff"/>
    <path id="Path_6730-3" data-name="Path 6730" d="M0,0,22.212,22.212,44.424,0Z" transform="translate(660.067 1579)" fill="#fff"/>
    <path id="Path_6723-4" data-name="Path 6723" d="M0,0,22.212,22.212,44.424,0Z" transform="translate(1056.067 1579)" fill="#fff"/>
    <path id="Path_6727-4" data-name="Path 6727" d="M0,0,22.212,22.212,44.424,0Z" transform="translate(1232.067 1579)" fill="#fff"/>
    <path id="Path_6726-4" data-name="Path 6726" d="M0,0,22.212,22.212,44.424,0Z" transform="translate(1144.067 1579)" fill="#fff"/>
    <path id="Path_6729-4" data-name="Path 6729" d="M0,0,22.212,22.212,44.424,0Z" transform="translate(1320.067 1579)" fill="#fff"/>
    <path id="Path_6724-4" data-name="Path 6724" d="M0,0,22.212,22.212,44.424,0Z" transform="translate(1100.067 1579)" fill="#fff"/>
    <path id="Path_6728-4" data-name="Path 6728" d="M0,0,22.212,22.212,44.424,0Z" transform="translate(1276.067 1579)" fill="#fff"/>
    <path id="Path_6725-4" data-name="Path 6725" d="M0,0,22.212,22.212,44.424,0Z" transform="translate(1188.067 1579)" fill="#fff"/>
  </g>
</svg>
