<svg width="1364.424" height="22.212" xmlns="http://www.w3.org/2000/svg">

 <g>
  <title>background</title>
  <rect fill="none" id="canvas_background" height="402" width="582" y="-1" x="-1"/>
 </g>
 <g>
  <title>Layer 1</title>
  <g transform="rotate(180 682.2120361328125,11.105999946594238) " id="Group_7217">
   <path fill="#f0f2f5" d="m0,0l22.212,22.212l22.212,-22.212l-44.424,0z" id="Path_6723"/>
   <path fill="#f0f2f5" d="m176.000001,0l22.212,22.212l22.212,-22.212l-44.424,0z" id="Path_6727"/>
   <path fill="#f0f2f5" d="m88.000001,0l22.212,22.212l22.212,-22.212l-44.424,0z" id="Path_6726"/>
   <path fill="#f0f2f5" d="m263.999986,0l22.212,22.212l22.212,-22.212l-44.424,0z" id="Path_6729"/>
   <path fill="#f0f2f5" d="m44.000001,0l22.212,22.212l22.212,-22.212l-44.424,0z" id="Path_6724"/>
   <path fill="#f0f2f5" d="m220.000001,0l22.212,22.212l22.212,-22.212l-44.424,0z" id="Path_6728"/>
   <path fill="#f0f2f5" d="m132.000001,0l22.212,22.212l22.212,-22.212l-44.424,0z" id="Path_6725"/>
   <path fill="#f0f2f5" d="m307.999986,0l22.212,22.212l22.212,-22.212l-44.424,0z" id="Path_6730"/>
   <path fill="#f0f2f5" d="m704.000017,0l22.212,22.212l22.212,-22.212l-44.424,0z" id="Path_6723-2"/>
   <path fill="#f0f2f5" d="m880.000017,0l22.212,22.212l22.212,-22.212l-44.424,0z" id="Path_6727-2"/>
   <path fill="#f0f2f5" d="m792.000017,0l22.212,22.212l22.212,-22.212l-44.424,0z" id="Path_6726-2"/>
   <path fill="#f0f2f5" d="m968.000017,0l22.212,22.212l22.212,-22.212l-44.424,0z" id="Path_6729-2"/>
   <path fill="#f0f2f5" d="m748.000017,0l22.212,22.212l22.212,-22.212l-44.424,0z" id="Path_6724-2"/>
   <path fill="#f0f2f5" d="m924.000017,0l22.212,22.212l22.212,-22.212l-44.424,0z" id="Path_6728-2"/>
   <path fill="#f0f2f5" d="m836.000017,0l22.212,22.212l22.212,-22.212l-44.424,0z" id="Path_6725-2"/>
   <path fill="#f0f2f5" d="m1012.000017,0l22.212,22.212l22.212,-22.212l-44.424,0z" id="Path_6730-2"/>
   <path fill="#f0f2f5" d="m351.999986,0l22.212,22.212l22.212,-22.212l-44.424,0z" id="Path_6723-3"/>
   <path fill="#f0f2f5" d="m528.000017,0l22.212,22.212l22.212,-22.212l-44.424,0z" id="Path_6727-3"/>
   <path fill="#f0f2f5" d="m439.999986,0l22.212,22.212l22.212,-22.212l-44.424,0z" id="Path_6726-3"/>
   <path fill="#f0f2f5" d="m616.000017,0l22.212,22.212l22.212,-22.212l-44.424,0z" id="Path_6729-3"/>
   <path fill="#f0f2f5" d="m395.999986,0l22.212,22.212l22.212,-22.212l-44.424,0z" id="Path_6724-3"/>
   <path fill="#f0f2f5" d="m572.000017,0l22.212,22.212l22.212,-22.212l-44.424,0z" id="Path_6728-3"/>
   <path fill="#f0f2f5" d="m483.999986,0l22.212,22.212l22.212,-22.212l-44.424,0z" id="Path_6725-3"/>
   <path fill="#f0f2f5" d="m660.000017,0l22.212,22.212l22.212,-22.212l-44.424,0z" id="Path_6730-3"/>
   <path fill="#f0f2f5" d="m1056.000017,0l22.212,22.212l22.212,-22.212l-44.424,0z" id="Path_6723-4"/>
   <path fill="#f0f2f5" d="m1232.000017,0l22.212,22.212l22.212,-22.212l-44.424,0z" id="Path_6727-4"/>
   <path fill="#f0f2f5" d="m1144.000017,0l22.212,22.212l22.212,-22.212l-44.424,0z" id="Path_6726-4"/>
   <path fill="#f0f2f5" d="m1320.000017,0l22.212,22.212l22.212,-22.212l-44.424,0z" id="Path_6729-4"/>
   <path fill="#f0f2f5" d="m1100.000017,0l22.212,22.212l22.212,-22.212l-44.424,0z" id="Path_6724-4"/>
   <path fill="#f0f2f5" d="m1276.000017,0l22.212,22.212l22.212,-22.212l-44.424,0z" id="Path_6728-4"/>
   <path fill="#f0f2f5" d="m1188.000017,0l22.212,22.212l22.212,-22.212l-44.424,0z" id="Path_6725-4"/>
  </g>
 </g>
</svg>