<svg xmlns="http://www.w3.org/2000/svg" xmlns:xlink="http://www.w3.org/1999/xlink" width="355.089" height="38.402" viewBox="0 0 355.089 38.402">
  <defs>
    <clipPath id="clip-path">
      <path id="Path_14" data-name="Path 14" d="M0,1.1H34.776V-29.88H0Z" transform="translate(0 29.88)" fill="#1d1d1d" stroke="#1d1d1d" stroke-linecap="round" stroke-width="2"/>
    </clipPath>
  </defs>
  <g id="Group_7191" data-name="Group 7191" transform="translate(-0.106)">
    <text id="Desenvolvido_com_por" data-name="Desenvolvido com       por" transform="translate(0.106 25.65)" fill="#1d1d1d" font-size="25" font-family="ProximaNova-Medium, Proxima Nova" font-weight="500"><tspan x="0" y="0" xml:space="preserve">Desenvolvido com       por</tspan></text>
    <g id="Group_7184" data-name="Group 7184" transform="translate(209.982 4.23)">
      <g id="Group_4" data-name="Group 4" clip-path="url(#clip-path)">
        <g id="Group_3" data-name="Group 3" transform="translate(3.815 3.398)">
          <path id="Path_13" data-name="Path 13" d="M-3.2-1.361C-4.028-5-6.311-7.14-9.758-7.14-13.789-7.14-16.8-4.129-16.8.581c0,6.556,6.8,13.549,13.549,16.463H-3.2C3.548,14.13,10.346,7.137,10.346.581c0-4.711-2.914-7.721-6.993-7.721C-.095-7.14-2.377-5-3.2-1.361" transform="translate(16.8 7.14)" fill="#1d1d1d" stroke="#1d1d1d" stroke-linecap="round" stroke-width="2"/>
        </g>
      </g>
    </g>
    <g id="VnW-Logo" transform="translate(300.239 0)">
      <g id="Group_7185" data-name="Group 7185">
        <path id="Path_6706" data-name="Path 6706" d="M154.555,136.33a2.765,2.765,0,1,0-2.755-2.755A2.732,2.732,0,0,0,154.555,136.33Z" transform="translate(-131.287 -121.214)" fill="#2e3192"/>
        <path id="Path_6707" data-name="Path 6707" d="M196.545,215.9A2.769,2.769,0,0,0,194,217.6h5.071A2.814,2.814,0,0,0,196.545,215.9Z" transform="translate(-165.412 -190.03)" fill="#2e3192"/>
        <path id="Path_6708" data-name="Path 6708" d="M272.174,221.53a2.765,2.765,0,1,0-2.774-2.755A2.76,2.76,0,0,0,272.174,221.53Z" transform="translate(-226.385 -190.111)" fill="#2e3192"/>
        <path id="Path_6709" data-name="Path 6709" d="M297.454,137.7a1.454,1.454,0,1,0,1.454,1.454A1.454,1.454,0,0,0,297.454,137.7Z" transform="translate(-247.895 -126.793)" fill="#2e3192"/>
        <path id="Path_6710" data-name="Path 6710" d="M81.811,87.684a2.52,2.52,0,0,0-.153-.842,4.06,4.06,0,0,0,.459-1.933,4.2,4.2,0,0,0-8.247-1.129H70.618a2.346,2.346,0,0,0-2.009,1.129c-.249-.019-.5-.038-.765-.038a8.063,8.063,0,0,0-4.631,1.454c-.115-.1-.23-.191-.364-.287l-2.66-1.646a2.441,2.441,0,0,0-1.244-.344,2.381,2.381,0,0,0-2.009,1.11l-2.66,4.305-2.66-4.305a2.337,2.337,0,0,0-2.009-1.11,2.493,2.493,0,0,0-1.244.344L45.7,86.038a2.306,2.306,0,0,0-1.052,1.473,2.414,2.414,0,0,0,.287,1.779l7.271,11.768-2.067.918a2.364,2.364,0,0,0-1.205,3.1l5.243,11.94a2.366,2.366,0,0,0,2.162,1.416h0a2.366,2.366,0,0,0,2.162-1.416l1.684-3.846,1.684,3.846a2.366,2.366,0,0,0,2.162,1.416h0a2.366,2.366,0,0,0,2.162-1.416l1.646-3.75a8.215,8.215,0,0,0,7.845,5.836h.459a2.352,2.352,0,0,0,2.354-2.354v-3.023h1.512a2.385,2.385,0,0,0,.67,1.435l2.143,2.162a2.345,2.345,0,0,0,1.665.689h0a2.345,2.345,0,0,0,1.665-.689l.593-.593a8.2,8.2,0,1,0,3.6-15.575,3.244,3.244,0,0,0-.421.019v-1.091a2.922,2.922,0,0,0,.689-.134,2.392,2.392,0,0,0,1.531-1.818,5.213,5.213,0,0,0,1.894.364,2.4,2.4,0,0,0,1.531.574H97.2a2.352,2.352,0,0,0,2.354-2.354v-7.29A2.352,2.352,0,0,0,97.2,87.072H95.569a2.347,2.347,0,0,0-1.55.574,5.485,5.485,0,0,0-2.717.784,2.367,2.367,0,0,0-1.492-.536H88.183a2.411,2.411,0,0,0-1.167.306L86,86.88a2.349,2.349,0,0,0-4.171,1.492Zm2.373.689,4.056,4.9V90.21h1.282a5.4,5.4,0,0,0,.344,6.161V97.71L85.81,92.831v3.061H84.184ZM79.458,98.437H76.377V87.684h3.081ZM77.927,83.073A1.837,1.837,0,1,1,76.09,84.91,1.8,1.8,0,0,1,77.927,83.073Zm-7.29,4.86V86.115h3.081V99.968H70.637v-1.8a5.548,5.548,0,0,1-2.774.727,5.822,5.822,0,0,1-5.836-5.836,5.941,5.941,0,0,1,.21-1.55l1.4-2.239a3.109,3.109,0,0,0,.21-.44,5.838,5.838,0,0,1,4.018-1.607A5.589,5.589,0,0,1,70.637,87.933Zm-21.009-1.55L54.3,93.941l4.669-7.558,2.507,1.55a8.138,8.138,0,0,0-1.4,2.6L54.3,99.873,46.968,88.028ZM64.055,116.06,60.209,107.3l-3.846,8.764L51.12,104.12l2.774-1.244,2.468,5.645,3.846-8.763,3.846,8.763,2.468-5.645L69.3,104.12l-.134.287a7.969,7.969,0,0,0-1.512,3.463Zm8.936-4.707a2.8,2.8,0,0,0,2.717,2.315h.459v3.061h-.459a5.822,5.822,0,0,1-5.836-5.836v-1.55a5.219,5.219,0,0,1,.057-.785l1.3-2.947a5.842,5.842,0,0,1,10.333,3.731v1.646l-.364.364Zm17.393-7.845a5.846,5.846,0,1,1-3.9,10.2l-1.952,1.952-2.1-2.1a2.282,2.282,0,0,0,1.359-1.454l.727-.727V100.121H87.59v4.114A5.674,5.674,0,0,1,90.383,103.508Zm6.85-6.812H95.607v-.938a2.843,2.843,0,0,1-1.454.383,3.02,3.02,0,0,1-1.933-.689V90.669a3.131,3.131,0,0,1,1.933-.689,2.843,2.843,0,0,1,1.454.383v-.957h1.626Z" transform="translate(-44.594 -80.7)" fill="#2e3192"/>
      </g>
      <g id="Group_7189" data-name="Group 7189" transform="translate(2.374 2.392)">
        <g id="Group_7186" data-name="Group 7186" transform="translate(0 0)">
          <path id="Path_6711" data-name="Path 6711" d="M64.328,117.958,69,110.4l2.66,1.646L64.328,123.89,57,112.046l2.66-1.646Z" transform="translate(-57 -107.109)" fill="#fcaf17"/>
          <path id="Path_6712" data-name="Path 6712" d="M147.391,109.1v13.853H144.31v-1.8a5.548,5.548,0,0,1-2.774.727,5.846,5.846,0,0,1,0-11.691,5.6,5.6,0,0,1,2.774.727V109.1Zm-8.61,6.946a2.765,2.765,0,0,0,5.53,0,2.776,2.776,0,0,0-2.774-2.774A2.748,2.748,0,0,0,138.781,116.046Z" transform="translate(-120.641 -106.058)" fill="#fcaf17"/>
          <path id="Path_6713" data-name="Path 6713" d="M211.037,96.874a1.837,1.837,0,1,1,1.837-1.837A1.85,1.85,0,0,1,211.037,96.874Zm1.531,11.672h-3.081V97.792h3.081Z" transform="translate(-180.078 -93.2)" fill="#fcaf17"/>
        </g>
        <g id="Group_7188" data-name="Group 7188" transform="translate(4.171 16.685)">
          <g id="Group_7187" data-name="Group 7187">
            <path id="Path_6714" data-name="Path 6714" d="M84.043,189.164l3.846-8.764,3.846,8.764,2.468-5.645,2.774,1.244L91.735,196.7l-3.846-8.764L84.043,196.7,78.8,184.763l2.774-1.244Z" transform="translate(-78.8 -180.4)" fill="#fcaf17"/>
            <path id="Path_6715" data-name="Path 6715" d="M182.536,210.06H183v3.061h-.459a5.822,5.822,0,0,1-5.836-5.836v-1.55a5.846,5.846,0,0,1,11.691,0v2.009h-8.572A2.771,2.771,0,0,0,182.536,210.06Zm.019-7.1a2.769,2.769,0,0,0-2.545,1.7h5.071A2.814,2.814,0,0,0,182.555,202.962Z" transform="translate(-157.968 -196.169)" fill="#fcaf17"/>
            <path id="Path_6716" data-name="Path 6716" d="M250.1,185.506a5.846,5.846,0,1,1-3.9,10.2l-1.952,1.952-2.143-2.162,2.143-2.143V182.1h3.081v4.114A5.741,5.741,0,0,1,250.1,185.506Zm-2.774,5.855a2.774,2.774,0,1,0,2.774-2.774A2.76,2.76,0,0,0,247.324,191.361Z" transform="translate(-210.854 -181.775)" fill="#fcaf17"/>
          </g>
        </g>
      </g>
      <g id="Group_7190" data-name="Group 7190" transform="translate(39.59 7.692)">
        <path id="Path_6717" data-name="Path 6717" d="M257.183,130.238l-4.057-4.9V128.4H251.5v-7.5l4.056,4.9v-3.061h1.626Z" transform="translate(-251.5 -120.9)" fill="#f26522"/>
        <path id="Path_6718" data-name="Path 6718" d="M293.661,126.2v7.29h-1.627v-.938a2.842,2.842,0,0,1-1.454.383,3.081,3.081,0,0,1,0-6.161,2.843,2.843,0,0,1,1.454.383V126.2Zm-4.535,3.655a1.454,1.454,0,1,0,1.454-1.454A1.454,1.454,0,0,0,289.126,129.855Z" transform="translate(-280.612 -125.186)" fill="#f26522"/>
      </g>
    </g>
  </g>
</svg>
