<svg xmlns="http://www.w3.org/2000/svg" width="783.441" height="303.042" viewBox="0 0 783.441 303.042">
  <g id="Group_7307" data-name="Group 7307" transform="translate(-534.337 1195.176)">
    <g id="Group_7281" data-name="Group 7281" transform="translate(534.337 -1195.174)">
      <rect id="Rectangle_3354" data-name="Rectangle 3354" width="142.384" height="142.389" fill="#e5243b"/>
      <path id="Path_6759" data-name="Path 6759" d="M556.358-1174.886h.042v21.977h4.826v-28.71h-3.854l-4.445,5.209v5.038h.042Z" transform="translate(-536.479 1193.613)" fill="#fff"/>
      <g id="Group_7273" data-name="Group 7273" transform="translate(104.22 63.989)">
        <path id="Path_6760" data-name="Path 6760" d="M658.268-1118.91a3.944,3.944,0,0,1,3.944-3.944,3.939,3.939,0,0,1,3.936,3.944,3.939,3.939,0,0,1-3.936,3.942,3.944,3.944,0,0,1-3.944-3.942" transform="translate(-652.833 1122.854)" fill="#fff"/>
        <path id="Path_6761" data-name="Path 6761" d="M666.106-1112.227a5.254,5.254,0,0,1,4.771,5.235v10.926a1.529,1.529,0,0,1-1.526,1.527,1.528,1.528,0,0,1-1.53-1.527v-9.384c0-.352-.1-.829-.745-.829-.445,0-.538.472-.554.772v28.128a2.195,2.195,0,0,1-2.194,2.2,2.2,2.2,0,0,1-2.2-2.2v-16.209a.6.6,0,0,0-.623-.644h0a.6.6,0,0,0-.634.644v16.209a2.193,2.193,0,0,1-2.193,2.2,2.2,2.2,0,0,1-2.2-2.2v-28.128c-.014-.3-.111-.772-.552-.772-.647,0-.745.477-.745.829v9.384a1.53,1.53,0,0,1-1.529,1.527,1.527,1.527,0,0,1-1.526-1.527v-10.926a5.255,5.255,0,0,1,4.777-5.235,2.3,2.3,0,0,1,.288-.024h8.614a2.485,2.485,0,0,1,.3.024" transform="translate(-652.126 1121.633)" fill="#fff"/>
      </g>
      <g id="Group_7274" data-name="Group 7274" transform="translate(71.766 66.266)">
        <path id="Path_6762" data-name="Path 6762" d="M630.8-1116.543a3.732,3.732,0,0,0-3.729-3.737,3.736,3.736,0,0,0-3.735,3.737,3.733,3.733,0,0,0,3.735,3.733,3.728,3.728,0,0,0,3.729-3.733" transform="translate(-616.356 1120.28)" fill="#fff"/>
        <path id="Path_6763" data-name="Path 6763" d="M618.644-1106.881l-3.1,10.1s-.553,1.852,1.018,2.314,2.038-1.345,2.038-1.345l2.5-8.43s.135-.649.623-.508.305.833.305.833l-4.355,15.8h4.05v11.317a1.946,1.946,0,0,0,1.947,1.941,1.943,1.943,0,0,0,1.942-1.941v-11.317h1.105v11.317a1.941,1.941,0,0,0,1.943,1.941,1.945,1.945,0,0,0,1.947-1.941v-11.317h4.048l-4.351-15.8s-.183-.694.3-.833.624.508.624.508l2.5,8.43s.476,1.808,2.036,1.345,1.019-2.314,1.019-2.314l-3.1-10.1s-1.109-2.92-3.565-2.92h-7.909c-2.454,0-3.566,2.92-3.566,2.92" transform="translate(-615.446 1119.073)" fill="#fff"/>
      </g>
      <g id="Group_7275" data-name="Group 7275" transform="translate(49.409 66.266)">
        <path id="Path_6764" data-name="Path 6764" d="M605.537-1116.543a3.735,3.735,0,0,0-3.731-3.737,3.735,3.735,0,0,0-3.733,3.737,3.731,3.731,0,0,0,3.733,3.733,3.731,3.731,0,0,0,3.731-3.733" transform="translate(-591.088 1120.28)" fill="#fff"/>
        <path id="Path_6765" data-name="Path 6765" d="M593.375-1106.881l-3.1,10.1s-.555,1.852,1.017,2.314,2.036-1.345,2.036-1.345l2.5-8.43s.135-.649.623-.508.3.833.3.833l-4.353,15.8h4.05v11.317a1.947,1.947,0,0,0,1.947,1.941,1.942,1.942,0,0,0,1.943-1.941v-11.317h1.105v11.317a1.941,1.941,0,0,0,1.944,1.941,1.943,1.943,0,0,0,1.946-1.941v-11.317h4.05l-4.351-15.8s-.185-.694.3-.833.625.508.625.508l2.5,8.43s.476,1.808,2.038,1.345,1.018-2.314,1.018-2.314l-3.1-10.1s-1.106-2.92-3.562-2.92h-7.91c-2.454,0-3.567,2.92-3.567,2.92" transform="translate(-590.179 1119.073)" fill="#fff"/>
      </g>
      <g id="Group_7276" data-name="Group 7276" transform="translate(91.185 84.68)">
        <path id="Path_6766" data-name="Path 6766" d="M645.539-1093.255a3.1,3.1,0,0,0,3.1-3.11,3.1,3.1,0,0,0-3.1-3.1,3.1,3.1,0,0,0-3.107,3.1,3.106,3.106,0,0,0,3.107,3.11" transform="translate(-637.974 1099.469)" fill="#fff"/>
        <path id="Path_6767" data-name="Path 6767" d="M637.51-1082.637a1.078,1.078,0,0,0,.452,1.47,1.036,1.036,0,0,0,1.332-.434l1.689-5.386s.293-.361.293.011v12.68h.008a1.591,1.591,0,0,0,1.594,1.594,1.592,1.592,0,0,0,1.594-1.594v-5s-.093-.708.478-.708.482.708.482.708v5a1.594,1.594,0,0,0,1.6,1.594,1.6,1.6,0,0,0,1.6-1.594v-12.68c0-.372.2-.106.2-.106l1.324,3.688a8.825,8.825,0,0,0,.751,1.721,1.178,1.178,0,0,0,1.54-.637,1.162,1.162,0,0,0-.126-1.133l.011-.012c-.038-.119-1.979-4.878-2.207-5.546-.7-2.046-1.977-2.028-3.2-2.062s-1.963,0-1.963,0-.785-.032-2.407.016-2.13.88-3.916,5.475c-.255.662-1.117,2.8-1.128,2.931Z" transform="translate(-637.393 1098.502)" fill="#fff"/>
      </g>
      <g id="Group_7278" data-name="Group 7278" transform="translate(15.037 63.989)">
        <g id="Group_7277" data-name="Group 7277" transform="translate(2.165)">
          <path id="Path_6768" data-name="Path 6768" d="M567.807-1118.91a3.945,3.945,0,0,0-3.945-3.944,3.939,3.939,0,0,0-3.937,3.944,3.939,3.939,0,0,0,3.937,3.942,3.945,3.945,0,0,0,3.945-3.942" transform="translate(-554.487 1122.854)" fill="#fff"/>
          <path id="Path_6769" data-name="Path 6769" d="M558.552-1112.227a5.256,5.256,0,0,0-4.773,5.235v10.926a1.531,1.531,0,0,0,1.53,1.527,1.529,1.529,0,0,0,1.528-1.527v-9.384c0-.352.1-.829.746-.829.444,0,.537.472.556.772v28.128a2.193,2.193,0,0,0,2.193,2.2,2.2,2.2,0,0,0,2.2-2.2v-16.209a.6.6,0,0,1,.626-.644h0a.6.6,0,0,1,.633.644v16.209a2.194,2.194,0,0,0,2.193,2.2,2.195,2.195,0,0,0,2.2-2.2v-28.128c.012-.3.113-.772.554-.772.647,0,.744.477.744.829v9.384a1.53,1.53,0,0,0,1.529,1.527,1.528,1.528,0,0,0,1.527-1.527v-10.926a5.255,5.255,0,0,0-4.776-5.235,2.33,2.33,0,0,0-.289-.024h-8.615a2.485,2.485,0,0,0-.3.024" transform="translate(-553.779 1121.633)" fill="#fff"/>
        </g>
        <line id="Line_9" data-name="Line 9" x1="3.5" y2="18.554" transform="translate(0 27.156)" fill="none" stroke="#fff" stroke-linecap="round" stroke-miterlimit="10" stroke-width="1.307"/>
      </g>
      <g id="Group_7279" data-name="Group 7279" transform="translate(35.736 84.68)">
        <path id="Path_6770" data-name="Path 6770" d="M576.817-1094.355a1.137,1.137,0,0,0-.959-.531,1.133,1.133,0,0,0-1.132,1.129,2.066,2.066,0,0,0,.111.5l3.132,5.668a2,2,0,0,1,.192.748v12.171h.005a1.529,1.529,0,0,0,1.532,1.531,1.525,1.525,0,0,0,1.526-1.531v-4.8s-.086-.679.463-.679.461.679.461.679v4.8a1.53,1.53,0,0,0,1.533,1.531,1.531,1.531,0,0,0,1.533-1.531v-12.171a2.023,2.023,0,0,1,.189-.748l2.9-5.233a5.1,5.1,0,0,0,.355-.932,1.132,1.132,0,0,0-1.133-1.129,1.121,1.121,0,0,0-.958.531l-.013-.007c-.091.079-1.541,2.66-2.019,3.139a1.256,1.256,0,0,1-.959.453h-3.765a1.254,1.254,0,0,1-.96-.453c-.485-.479-1.929-3.061-2.021-3.139Z" transform="translate(-574.726 1098.941)" fill="#fff"/>
        <path id="Path_6771" data-name="Path 6771" d="M582.19-1093.255a3.1,3.1,0,0,0,3.106-3.11,3.1,3.1,0,0,0-3.106-3.1,3.1,3.1,0,0,0-3.106,3.1,3.1,3.1,0,0,0,3.106,3.11" transform="translate(-575.228 1099.469)" fill="#fff"/>
        <path id="Path_6772" data-name="Path 6772" d="M581.925-1087.518l3.512,2.561,1.669,6.144H576.74l1.673-6.144Z" transform="translate(-574.958 1098.092)" fill="#fff"/>
      </g>
      <g id="Group_7280" data-name="Group 7280" transform="translate(40.951 9.857)">
        <path id="Path_6773" data-name="Path 6773" d="M580.619-1181.853H585.3v1.6h-2.722v3.343h1.947v1.585h-1.947v3.549H585.3v1.6h-4.686Z" transform="translate(-580.619 1183.783)" fill="#fff"/>
        <path id="Path_6774" data-name="Path 6774" d="M589.262-1175.531v5.358H587.3v-11.68h2.86c1.982,0,2.7.982,2.7,2.618v1.5c0,1.258-.448,2-1.567,2.256l1.878,5.307h-2.067Zm0-4.72v3.636h.655a.85.85,0,0,0,.964-.965v-1.723c0-.637-.292-.948-.964-.948Z" transform="translate(-581.388 1183.783)" fill="#fff"/>
        <path id="Path_6775" data-name="Path 6775" d="M596.953-1175.531v5.358h-1.964v-11.68h2.861c1.981,0,2.7.982,2.7,2.618v1.5c0,1.258-.447,2-1.567,2.256l1.878,5.307H598.8Zm0-4.72v3.636h.655a.85.85,0,0,0,.964-.965v-1.723c0-.637-.292-.948-.964-.948Z" transform="translate(-582.274 1183.783)" fill="#fff"/>
        <path id="Path_6776" data-name="Path 6776" d="M602.33-1170.173l2.2-11.68h2.239l2.222,11.68h-2.015l-.362-2.137h-2.085l-.344,2.137Zm2.463-3.7h1.568l-.775-4.685h-.018Z" transform="translate(-583.12 1183.783)" fill="#fff"/>
        <path id="Path_6777" data-name="Path 6777" d="M616.849-1178.718v5.41c0,1.792-.741,3.136-2.843,3.136h-3.031v-11.68h3.031C616.109-1181.853,616.849-1180.527,616.849-1178.718Zm-3.083,6.943c.81,0,1.12-.482,1.12-1.189v-6.115a1.024,1.024,0,0,0-1.12-1.172h-.827v8.476Z" transform="translate(-584.116 1183.783)" fill="#fff"/>
        <path id="Path_6778" data-name="Path 6778" d="M619.075-1181.853h1.964v11.68h-1.964Z" transform="translate(-585.049 1183.783)" fill="#fff"/>
        <path id="Path_6779" data-name="Path 6779" d="M622.774-1173.206v-5.65c0-1.826.862-3.153,2.93-3.153,2.17,0,2.774,1.206,2.774,2.929v1.378h-1.793v-1.532c0-.724-.241-1.137-.947-1.137s-1,.5-1,1.205v6.271c0,.706.293,1.206,1,1.206s.947-.449.947-1.137v-2.154h1.793v2.016c0,1.67-.689,2.911-2.774,2.911C623.636-1170.053,622.774-1171.4,622.774-1173.206Z" transform="translate(-585.475 1183.801)" fill="#fff"/>
        <path id="Path_6780" data-name="Path 6780" d="M630.077-1170.173l2.2-11.68h2.239l2.222,11.68h-2.015l-.362-2.137h-2.085l-.344,2.137Zm2.463-3.7h1.568l-.775-4.685h-.018Z" transform="translate(-586.316 1183.783)" fill="#fff"/>
        <path id="Path_6781" data-name="Path 6781" d="M640.514-1169c.551-.017.638-.138.638-.276,0-.12-.1-.189-.276-.189h-.086v-.637c-1.671-.207-2.361-1.464-2.361-3.1v-5.65c0-1.826.861-3.153,2.929-3.153,2.17,0,2.774,1.206,2.774,2.929v1.378H642.34v-1.532c0-.724-.242-1.137-.948-1.137s-1,.5-1,1.205v6.271c0,.706.293,1.206,1,1.206s.948-.449.948-1.137v-2.154h1.792v2.016c0,1.636-.655,2.843-2.6,2.911v.156c.464.068.724.241.724.619,0,.534-.5.827-1.74.827Z" transform="translate(-587.279 1183.801)" fill="#fff"/>
        <path id="Path_6782" data-name="Path 6782" d="M645.732-1170.424l2.2-11.68h2.239l2.223,11.68h-2.016l-.362-2.137h-2.084l-.345,2.137Zm1.532-12.146c.034-.81.345-1.464,1.206-1.464.5,0,.912.293,1.171.293a.231.231,0,0,0,.242-.258h.964c-.034.81-.345,1.464-1.207,1.464-.5,0-.912-.293-1.171-.293a.231.231,0,0,0-.241.258Zm.931,8.441h1.567l-.775-4.685h-.017Z" transform="translate(-588.12 1184.034)" fill="#fff"/>
        <path id="Path_6783" data-name="Path 6783" d="M654.084-1173.206v-5.65c0-1.826.9-3.153,2.964-3.153,2.084,0,2.98,1.326,2.98,3.153v5.65c0,1.809-.9,3.153-2.98,3.153C654.98-1170.053,654.084-1171.4,654.084-1173.206Zm3.98.311v-6.271c0-.706-.31-1.205-1.016-1.205-.69,0-1,.5-1,1.205v6.271c0,.706.31,1.206,1,1.206C657.754-1171.689,658.064-1172.189,658.064-1172.9Z" transform="translate(-589.082 1183.801)" fill="#fff"/>
        <path id="Path_6784" data-name="Path 6784" d="M586.494-1159.246v5.41c0,1.792-.741,3.135-2.843,3.135h-3.032v-11.679h3.032C585.754-1162.381,586.494-1161.055,586.494-1159.246Zm-3.084,6.943c.81,0,1.119-.483,1.119-1.189v-6.116a1.023,1.023,0,0,0-1.119-1.172h-.827v8.477Z" transform="translate(-580.619 1181.54)" fill="#fff"/>
        <path id="Path_6785" data-name="Path 6785" d="M588.077-1150.7l2.2-11.679h2.239l2.222,11.679h-2.015l-.362-2.136h-2.085l-.344,2.136Zm2.463-3.7h1.568l-.775-4.686h-.018Z" transform="translate(-581.478 1181.54)" fill="#fff"/>
        <path id="Path_6786" data-name="Path 6786" d="M598.961-1162.381h2.912c1.981,0,2.7.981,2.7,2.618v2.463c0,1.637-.724,2.636-2.7,2.636h-.948v3.962h-1.964Zm1.964,1.6v4.6h.724a.844.844,0,0,0,.964-.965v-2.687c0-.637-.293-.948-.964-.948Z" transform="translate(-582.732 1181.54)" fill="#fff"/>
        <path id="Path_6787" data-name="Path 6787" d="M606.652-1153.734v-5.65c0-1.826.9-3.152,2.964-3.152,2.084,0,2.98,1.326,2.98,3.152v5.65c0,1.809-.9,3.153-2.98,3.153C607.548-1150.582,606.652-1151.926,606.652-1153.734Zm3.98.311v-6.271c0-.706-.31-1.206-1.016-1.206-.689,0-1,.5-1,1.206v6.271c0,.705.311,1.205,1,1.205C610.322-1152.218,610.632-1152.718,610.632-1153.424Z" transform="translate(-583.618 1181.558)" fill="#fff"/>
        <path id="Path_6788" data-name="Path 6788" d="M614.83-1162.381h2.843c1.964,0,2.619.912,2.619,2.566v1.189a1.7,1.7,0,0,1-1.171,1.861,1.773,1.773,0,0,1,1.464,1.947v1.55c0,1.654-.741,2.567-2.706,2.567H614.83Zm1.964,4.927h.689a.828.828,0,0,0,.93-.948v-1.43a.826.826,0,0,0-.947-.948h-.672Zm0,1.5v3.653h.862a.845.845,0,0,0,.964-.949v-1.756c0-.62-.293-.948-.982-.948Z" transform="translate(-584.56 1181.54)" fill="#fff"/>
        <path id="Path_6789" data-name="Path 6789" d="M624.6-1156.059v5.357h-1.963v-11.679h2.86c1.981,0,2.7.981,2.7,2.618v1.5c0,1.257-.448,2-1.568,2.256l1.878,5.306h-2.067Zm0-4.72v3.635h.656a.85.85,0,0,0,.964-.964v-1.723c0-.637-.293-.948-.964-.948Z" transform="translate(-585.459 1181.54)" fill="#fff"/>
        <path id="Path_6790" data-name="Path 6790" d="M630.329-1162.381h4.686v1.6h-2.722v3.342h1.947v1.584h-1.947v3.55h2.722v1.6h-4.686Z" transform="translate(-586.345 1181.54)" fill="#fff"/>
        <path id="Path_6791" data-name="Path 6791" d="M638.9-1152.3h2.98v1.6h-5.03v-1.6l3.083-8.477h-2.774v-1.6H642v1.6Z" transform="translate(-587.097 1181.54)" fill="#fff"/>
        <path id="Path_6792" data-name="Path 6792" d="M643.59-1150.7l2.2-11.679h2.239l2.223,11.679h-2.015l-.362-2.136h-2.085l-.345,2.136Zm2.463-3.7h1.568l-.775-4.686h-.018Z" transform="translate(-587.873 1181.54)" fill="#fff"/>
      </g>
    </g>
    <g id="Group_7283" data-name="Group 7283" transform="translate(694.601 -1195.173)">
      <rect id="Rectangle_3355" data-name="Rectangle 3355" width="142.384" height="142.389" fill="#4c9f38"/>
      <path id="Path_6793" data-name="Path 6793" d="M737.566-1152.629c4.871,0,6.986-2.584,6.986-6.563v-4.233c0-2.625-1.143-4.32-3.556-4.87a4.589,4.589,0,0,0,3.3-4.657v-2.5c0-4.065-1.948-6.563-6.394-6.563-5,0-6.733,2.962-6.733,7.2v2.54h4.4v-2.921c0-1.778.552-2.794,2.077-2.794s2.073,1.016,2.073,2.582v3.092c0,1.525-1.015,2.328-2.581,2.328H735.32v3.686h2.034c1.693,0,2.37.8,2.37,2.328v4.743c0,1.523-.677,2.584-2.158,2.584-1.652,0-2.246-1.1-2.246-2.8v-4.107h-4.4v3.767c0,4.362,1.734,7.156,6.646,7.156" transform="translate(-717.247 1193.657)" fill="#fff"/>
      <path id="Path_6794" data-name="Path 6794" d="M846.845-1095.544c0-4.006-2.57-7.255-6.464-7.255-1.947,0-4.3,2.132-5.571,3.444-1.276-1.313-3.469-3.447-5.417-3.447-3.893,0-6.622,3.249-6.622,7.256a7.335,7.335,0,0,0,2.066,5.131h0l9.982,10,9.967-9.989-.008-.007A7.343,7.343,0,0,0,846.845-1095.544Z" transform="translate(-727.828 1184.532)" fill="#fff"/>
      <path id="Path_6795" data-name="Path 6795" d="M795.054-1067.746l-.1,0a1.639,1.639,0,0,1-1.514-1.359l-5.07-29.528-7.68,14.239a1.64,1.64,0,0,1-1.729.835,1.639,1.639,0,0,1-1.336-1.38l-3.26-22.788-5.964,13.4a1.641,1.641,0,0,1-1.5.972H743.717a1.639,1.639,0,0,1-1.64-1.639,1.639,1.639,0,0,1,1.64-1.64h22.119l7.846-17.624a1.64,1.64,0,0,1,1.724-.956,1.64,1.64,0,0,1,1.4,1.392l3.361,23.5,7.574-14.043a1.636,1.636,0,0,1,1.709-.84,1.64,1.64,0,0,1,1.35,1.34l4.695,27.348,17.111-56.842a1.64,1.64,0,0,1,1.44-1.161,1.641,1.641,0,0,1,1.606.921l9,18.667a1.638,1.638,0,0,1-.764,2.187,1.639,1.639,0,0,1-2.189-.764l-7.173-14.87-17.9,59.472A1.638,1.638,0,0,1,795.054-1067.746Z" transform="translate(-718.532 1188.187)" fill="#fff"/>
      <g id="Group_7282" data-name="Group 7282" transform="translate(40.56 9.732)">
        <path id="Path_6796" data-name="Path 6796" d="M761.307-1172.554v-1.567h1.826v1.6c0,.655.293,1.034.965,1.034.619,0,.895-.414.895-1.034v-.448a2.109,2.109,0,0,0-.878-1.654l-1.154-1.155c-1.12-1.1-1.637-1.774-1.637-3.118v-.4a2.436,2.436,0,0,1,2.756-2.567c1.964,0,2.739.965,2.739,2.654v.948h-1.793v-1.017c0-.672-.31-1-.929-1a.863.863,0,0,0-.931.965v.241c0,.655.362,1.034.931,1.586l1.257,1.24c1.068,1.085,1.585,1.74,1.585,3.031v.569a2.53,2.53,0,0,1-2.86,2.739A2.433,2.433,0,0,1,761.307-1172.554Z" transform="translate(-761.307 1183.907)" fill="#fff"/>
        <path id="Path_6797" data-name="Path 6797" d="M768.493-1170.021l2.2-11.68h2.239l2.223,11.68h-2.015l-.362-2.137H770.7l-.344,2.137Zm2.463-3.7h1.568l-.775-4.686h-.018Z" transform="translate(-762.135 1183.889)" fill="#fff"/>
        <path id="Path_6798" data-name="Path 6798" d="M782.548-1181.986v8.837c0,1.809-.775,2.981-2.774,2.981-2.068,0-2.929-1.172-2.929-2.981v-8.837h1.963v9.027c0,.689.276,1.155.965,1.155s.964-.465.964-1.155v-9.027Zm-1.206-.826-3.084.4v-1.1l3.084-.655Z" transform="translate(-763.097 1184.174)" fill="#fff"/>
        <path id="Path_6799" data-name="Path 6799" d="M790.624-1178.565v5.409c0,1.792-.74,3.136-2.842,3.136H784.75v-11.68h3.032C789.884-1181.7,790.624-1180.375,790.624-1178.565Zm-3.083,6.942c.81,0,1.12-.482,1.12-1.188v-6.116a1.024,1.024,0,0,0-1.12-1.171h-.826v8.475Z" transform="translate(-764.008 1183.889)" fill="#fff"/>
        <path id="Path_6800" data-name="Path 6800" d="M792.85-1181.7h4.686v1.6h-2.722v3.342h1.947v1.585h-1.947v3.549h2.722v1.6H792.85Z" transform="translate(-764.941 1183.889)" fill="#fff"/>
        <path id="Path_6801" data-name="Path 6801" d="M807.643-1178.565v5.409c0,1.792-.741,3.136-2.843,3.136h-3.032v-11.68H804.8C806.9-1181.7,807.643-1180.375,807.643-1178.565Zm-3.084,6.942c.81,0,1.119-.482,1.119-1.188v-6.116a1.023,1.023,0,0,0-1.119-1.171h-.827v8.475Z" transform="translate(-765.968 1183.889)" fill="#fff"/>
        <path id="Path_6802" data-name="Path 6802" d="M809.868-1181.7h4.686v1.6h-2.722v3.342h1.947v1.585h-1.947v3.549h2.722v1.6h-4.686Z" transform="translate(-766.901 1183.889)" fill="#fff"/>
        <path id="Path_6803" data-name="Path 6803" d="M763.663-1149.775v-.793c-1.568-.275-2.239-1.43-2.239-3.015v-5.65c0-1.826.9-3.153,2.963-3.153,2.085,0,2.98,1.326,2.98,3.153v5.65a2.8,2.8,0,0,1-1.447,2.756l1.447.276v1.464Zm1.74-3.393v-6.375c0-.706-.311-1.205-1.017-1.205-.689,0-1,.5-1,1.205v6.375c0,.688.311,1.205,1,1.205C765.093-1151.963,765.4-1152.48,765.4-1153.168Z" transform="translate(-761.32 1181.664)" fill="#fff"/>
        <path id="Path_6804" data-name="Path 6804" d="M775.3-1162.229v8.837c0,1.808-.775,2.98-2.774,2.98-2.068,0-2.929-1.172-2.929-2.98v-8.837h1.964v9.027c0,.689.276,1.155.965,1.155s.964-.465.964-1.155v-9.027Z" transform="translate(-762.263 1181.646)" fill="#fff"/>
        <path id="Path_6805" data-name="Path 6805" d="M776.865-1150.55l2.2-11.679h2.239l2.223,11.679h-2.015l-.362-2.136H779.07l-.344,2.136Zm2.463-3.7H780.9l-.775-4.685H780.1Z" transform="translate(-763.099 1181.646)" fill="#fff"/>
        <path id="Path_6806" data-name="Path 6806" d="M785.51-1162.229h1.963v10.078h2.344v1.6H785.51Z" transform="translate(-764.095 1181.646)" fill="#fff"/>
        <path id="Path_6807" data-name="Path 6807" d="M791.585-1162.229h1.963v11.679h-1.963Z" transform="translate(-764.795 1181.646)" fill="#fff"/>
        <path id="Path_6808" data-name="Path 6808" d="M801.159-1159.094v5.41c0,1.792-.741,3.135-2.843,3.135h-3.032v-11.679h3.032C800.418-1162.229,801.159-1160.9,801.159-1159.094Zm-3.084,6.943c.81,0,1.12-.482,1.12-1.189v-6.115a1.024,1.024,0,0,0-1.12-1.172h-.826v8.476Z" transform="translate(-765.221 1181.646)" fill="#fff"/>
        <path id="Path_6809" data-name="Path 6809" d="M802.742-1150.55l2.2-11.679h2.239l2.223,11.679h-2.015l-.362-2.136h-2.085l-.344,2.136Zm2.463-3.7h1.568l-.775-4.685h-.018Z" transform="translate(-766.08 1181.646)" fill="#fff"/>
        <path id="Path_6810" data-name="Path 6810" d="M817.261-1159.094v5.41c0,1.792-.741,3.135-2.843,3.135h-3.031v-11.679h3.031C816.521-1162.229,817.261-1160.9,817.261-1159.094Zm-3.084,6.943c.81,0,1.119-.482,1.119-1.189v-6.115a1.024,1.024,0,0,0-1.119-1.172h-.827v8.476Z" transform="translate(-767.076 1181.646)" fill="#fff"/>
        <path id="Path_6811" data-name="Path 6811" d="M819.486-1162.229h4.686v1.6H821.45v3.343H823.4v1.585H821.45v3.549h2.722v1.6h-4.686Z" transform="translate(-768.009 1181.646)" fill="#fff"/>
      </g>
    </g>
    <g id="Group_7285" data-name="Group 7285" transform="translate(854.865 -1195.174)">
      <rect id="Rectangle_3356" data-name="Rectangle 3356" width="142.384" height="142.389" transform="translate(0)" fill="#c5192d"/>
      <path id="Path_6812" data-name="Path 6812" d="M920.7-1152.979h4.573v-4.658h1.949v-3.767H925.27v-20.285h-4.743l-8.34,21.088v2.963H920.7Zm-4.277-8.424,4.319-11.815h.043v11.815Z" transform="translate(-898.392 1193.62)" fill="#fff"/>
      <path id="Path_6813" data-name="Path 6813" d="M964.629-1110.807l-25.537-14.745v47.7l25.537,7.7Z" transform="translate(-901.492 1187.154)" fill="#fff"/>
      <path id="Path_6814" data-name="Path 6814" d="M971.128-1110.709v40.579l25.7-7.727v-47.693Z" transform="translate(-905.182 1187.154)" fill="#fff"/>
      <path id="Path_6815" data-name="Path 6815" d="M1022.046-1127.31a3.021,3.021,0,0,0-3.019-3.022,3.02,3.02,0,0,0-3.022,3.022v3.257h6.041Z" transform="translate(-910.352 1187.704)" fill="#fff"/>
      <path id="Path_6816" data-name="Path 6816" d="M1016.754-1078.122H1016l3.023,10.56,3.017-10.56h0v-42.44H1016v42.44Z" transform="translate(-910.351 1186.579)" fill="#fff"/>
      <path id="Path_6817" data-name="Path 6817" d="M997.915-1123.518l-2.737-2.163v49.108L966.8-1067.4h-2.884l-28.248-7.892v-50.385l-2.739,2.163v50.144l30.857,8.542h3.142l28.469-9.039,2.514-.74Z" transform="translate(-900.782 1187.169)" fill="#fff"/>
      <g id="Group_7284" data-name="Group 7284" transform="translate(40.66 9.997)">
        <path id="Path_6818" data-name="Path 6818" d="M942.55-1181.713H947.2v1.59h-2.7v3.315h1.932v1.572H944.5v3.521h2.7v1.59H942.55Z" transform="translate(-942.55 1183.627)" fill="#fff"/>
        <path id="Path_6819" data-name="Path 6819" d="M954.909-1178.6v5.367c0,1.778-.735,3.111-2.82,3.111h-3.008v-11.589h3.008C954.174-1181.713,954.909-1180.4,954.909-1178.6Zm-3.06,6.888c.8,0,1.111-.479,1.111-1.179v-6.068a1.015,1.015,0,0,0-1.111-1.162h-.819v8.409Z" transform="translate(-943.302 1183.627)" fill="#fff"/>
        <path id="Path_6820" data-name="Path 6820" d="M962.671-1181.713v8.768c0,1.794-.769,2.957-2.753,2.957-2.05,0-2.9-1.163-2.9-2.957v-8.768h1.948v8.956c0,.684.273,1.146.956,1.146s.957-.462.957-1.146v-8.956Z" transform="translate(-944.216 1183.627)" fill="#fff"/>
        <path id="Path_6821" data-name="Path 6821" d="M964.754-1173.133v-5.606c0-1.812.855-3.128,2.906-3.128,2.154,0,2.752,1.2,2.752,2.906v1.367h-1.778v-1.521c0-.718-.239-1.128-.94-1.128s-.991.5-.991,1.2v6.221c0,.7.29,1.2.991,1.2s.94-.445.94-1.128v-2.136h1.778v2c0,1.658-.683,2.889-2.752,2.889C965.609-1170.005,964.754-1171.339,964.754-1173.133Z" transform="translate(-945.108 1183.645)" fill="#fff"/>
        <path id="Path_6822" data-name="Path 6822" d="M972.056-1170.124l2.188-11.589h2.223l2.2,11.589h-2l-.358-2.12h-2.069l-.342,2.12Zm2.445-3.675h1.556l-.769-4.65h-.018Z" transform="translate(-945.949 1183.627)" fill="#fff"/>
        <path id="Path_6823" data-name="Path 6823" d="M982.51-1168.962c.547-.018.633-.138.633-.274,0-.119-.1-.187-.274-.187h-.085v-.633c-1.658-.205-2.341-1.453-2.341-3.076v-5.606c0-1.812.855-3.128,2.9-3.128,2.155,0,2.752,1.2,2.752,2.906v1.367h-1.777v-1.521c0-.718-.24-1.128-.941-1.128s-.991.5-.991,1.2v6.221c0,.7.29,1.2.991,1.2s.941-.445.941-1.128v-2.136H986.1v2c0,1.624-.649,2.821-2.581,2.889v.154c.462.068.718.239.718.615,0,.53-.5.821-1.726.821Z" transform="translate(-946.915 1183.645)" fill="#fff"/>
        <path id="Path_6824" data-name="Path 6824" d="M987.745-1170.373l2.187-11.589h2.223l2.2,11.589h-2l-.358-2.12h-2.069l-.341,2.12Zm1.521-12.051c.034-.8.342-1.452,1.2-1.452.5,0,.905.29,1.162.29a.23.23,0,0,0,.24-.257h.957c-.034.8-.342,1.454-1.2,1.454-.5,0-.906-.292-1.162-.292a.23.23,0,0,0-.24.257Zm.923,8.375h1.555l-.769-4.65h-.017Z" transform="translate(-947.756 1183.876)" fill="#fff"/>
        <path id="Path_6825" data-name="Path 6825" d="M996.13-1173.133v-5.606c0-1.812.888-3.128,2.94-3.128,2.068,0,2.956,1.316,2.956,3.128v5.606c0,1.794-.888,3.128-2.956,3.128C997.018-1170.005,996.13-1171.339,996.13-1173.133Zm3.948.307v-6.221c0-.7-.307-1.2-1.008-1.2-.684,0-.991.5-.991,1.2v6.221c0,.7.307,1.2.991,1.2C999.771-1171.629,1000.078-1172.125,1000.078-1172.826Z" transform="translate(-948.722 1183.645)" fill="#fff"/>
        <path id="Path_6826" data-name="Path 6826" d="M948.378-1159.291v5.368c0,1.777-.735,3.11-2.82,3.11H942.55V-1162.4h3.008C947.643-1162.4,948.378-1161.085,948.378-1159.291Zm-3.06,6.888c.8,0,1.111-.479,1.111-1.179v-6.067a1.016,1.016,0,0,0-1.111-1.163h-.82v8.409Z" transform="translate(-942.55 1181.402)" fill="#fff"/>
        <path id="Path_6827" data-name="Path 6827" d="M950.5-1162.4h4.649v1.59h-2.7v3.315h1.931v1.573h-1.931v3.521h2.7v1.59H950.5Z" transform="translate(-943.465 1181.402)" fill="#fff"/>
        <path id="Path_6828" data-name="Path 6828" d="M961.37-1150.044v-.786c-1.555-.273-2.222-1.418-2.222-2.992v-5.606c0-1.811.888-3.128,2.939-3.128,2.068,0,2.957,1.317,2.957,3.128v5.606a2.784,2.784,0,0,1-1.436,2.735l1.436.274v1.452Zm1.726-3.367v-6.324c0-.7-.308-1.2-1.009-1.2-.683,0-.991.5-.991,1.2v6.324c0,.684.308,1.2.991,1.2C962.788-1152.215,963.1-1152.728,963.1-1153.411Z" transform="translate(-944.462 1181.42)" fill="#fff"/>
        <path id="Path_6829" data-name="Path 6829" d="M972.815-1162.4v8.769c0,1.794-.769,2.956-2.752,2.956-2.05,0-2.9-1.162-2.9-2.956v-8.769h1.948v8.957c0,.684.273,1.145.956,1.145s.957-.461.957-1.145v-8.957Z" transform="translate(-945.385 1181.402)" fill="#fff"/>
        <path id="Path_6830" data-name="Path 6830" d="M974.49-1150.813l2.187-11.589H978.9l2.2,11.589h-2l-.359-2.119h-2.069l-.341,2.119Zm2.444-3.675h1.555l-.769-4.65H977.7Z" transform="translate(-946.229 1181.402)" fill="#fff"/>
        <path id="Path_6831" data-name="Path 6831" d="M983.109-1162.4h1.948v10h2.324v1.59h-4.273Z" transform="translate(-947.222 1181.402)" fill="#fff"/>
        <path id="Path_6832" data-name="Path 6832" d="M989.119-1162.4h1.948v11.589h-1.948Z" transform="translate(-947.915 1181.402)" fill="#fff"/>
        <path id="Path_6833" data-name="Path 6833" d="M998.533-1159.291v5.368c0,1.777-.736,3.11-2.821,3.11h-3.007V-1162.4h3.007C997.8-1162.4,998.533-1161.085,998.533-1159.291Zm-3.06,6.888c.8,0,1.11-.479,1.11-1.179v-6.067a1.015,1.015,0,0,0-1.11-1.163h-.82v8.409Z" transform="translate(-948.328 1181.402)" fill="#fff"/>
        <path id="Path_6834" data-name="Path 6834" d="M1000.2-1150.813l2.187-11.589h2.223l2.2,11.589h-2l-.359-2.119h-2.069l-.341,2.119Zm2.444-3.675h1.555l-.769-4.65h-.017Z" transform="translate(-949.191 1181.402)" fill="#fff"/>
        <path id="Path_6835" data-name="Path 6835" d="M1014.647-1159.291v5.368c0,1.777-.735,3.11-2.821,3.11h-3.007V-1162.4h3.007C1013.912-1162.4,1014.647-1161.085,1014.647-1159.291Zm-3.06,6.888c.8,0,1.111-.479,1.111-1.179v-6.067a1.016,1.016,0,0,0-1.111-1.163h-.82v8.409Z" transform="translate(-950.184 1181.402)" fill="#fff"/>
        <path id="Path_6836" data-name="Path 6836" d="M1016.766-1162.4h4.649v1.59h-2.7v3.315h1.932v1.573h-1.932v3.521h2.7v1.59h-4.649Z" transform="translate(-951.099 1181.402)" fill="#fff"/>
      </g>
    </g>
    <g id="Group_7288" data-name="Group 7288" transform="translate(1015.129 -1195.176)">
      <rect id="Rectangle_3357" data-name="Rectangle 3357" width="142.384" height="142.391" fill="#ff3a21"/>
      <path id="Path_6837" data-name="Path 6837" d="M1102.265-1172.6a4.353,4.353,0,0,0-4.064,1.99h-.043v-7.156h8.3v-3.938h-12.7v16.177h4.4v-.638c0-1.693.764-2.625,2.116-2.625,1.483,0,2.078,1.018,2.078,2.585v6.944c0,1.525-.551,2.583-2.034,2.583-1.652,0-2.243-1.1-2.243-2.793v-3.6h-4.407v3.26c0,4.361,1.737,7.156,6.65,7.156,4.87,0,6.859-2.583,6.859-6.563v-7.03c0-4.531-2.328-6.351-4.912-6.351" transform="translate(-1079.562 1193.624)" fill="#fff"/>
      <g id="Group_7286" data-name="Group 7286" transform="translate(47.768 53.878)">
        <path id="Path_6838" data-name="Path 6838" d="M1187.655-1134.283h-17.7a.226.226,0,0,0-.225.226v5.88a.227.227,0,0,0,.225.227h7.047l-7.824,7.826a23.049,23.049,0,0,0-14.289-4.95,23.2,23.2,0,0,0-23.178,23.177,23.208,23.208,0,0,0,20.187,22.978v6.776h-6.98a.224.224,0,0,0-.228.224v6.3a.224.224,0,0,0,.228.225h6.98v6.669a.224.224,0,0,0,.225.225h6.3a.227.227,0,0,0,.228-.225v-6.669h6.978a.224.224,0,0,0,.225-.225v-6.3a.224.224,0,0,0-.225-.224h-6.978v-6.886a23.211,23.211,0,0,0,19.415-22.868,23.043,23.043,0,0,0-4.233-13.331l7.713-7.714v6.581a.227.227,0,0,0,.228.225h5.879a.227.227,0,0,0,.23-.225v-17.7a.227.227,0,0,0-.23-.226m-32.763,49.447a17.079,17.079,0,0,1-17.059-17.061,17.079,17.079,0,0,1,17.059-17.061,17.08,17.08,0,0,1,17.061,17.061,17.08,17.08,0,0,1-17.061,17.061" transform="translate(-1131.713 1134.283)" fill="#fff"/>
        <path id="Path_6839" data-name="Path 6839" d="M1166.963-1105.594H1146.27a.215.215,0,0,0-.225.2v5.009a.213.213,0,0,0,.225.206h20.693a.214.214,0,0,0,.229-.206v-5.009a.216.216,0,0,0-.229-.2" transform="translate(-1133.364 1130.978)" fill="#fff"/>
        <path id="Path_6840" data-name="Path 6840" d="M1166.963-1095.485H1146.27a.217.217,0,0,0-.225.209v5.01a.213.213,0,0,0,.225.2h20.693a.214.214,0,0,0,.229-.2v-5.01a.219.219,0,0,0-.229-.209" transform="translate(-1133.364 1129.814)" fill="#fff"/>
      </g>
      <g id="Group_7287" data-name="Group 7287" transform="translate(40.661 11.779)">
        <path id="Path_6841" data-name="Path 6841" d="M1123.681-1181.709h1.964v11.68h-1.964Z" transform="translate(-1123.681 1181.846)" fill="#fff"/>
        <path id="Path_6842" data-name="Path 6842" d="M1130.344-1176.283h2.791v6.236h-1.413v-1.275a1.769,1.769,0,0,1-1.877,1.413c-1.688,0-2.464-1.344-2.464-3.152v-5.65c0-1.826.879-3.153,2.946-3.153,2.171,0,2.808,1.205,2.808,2.928v1.034h-1.792v-1.189c0-.724-.276-1.137-.982-1.137s-1.017.5-1.017,1.206v6.271c0,.706.293,1.206.965,1.206.637,0,.964-.362.964-1.119v-2.068h-.93Z" transform="translate(-1124.107 1181.864)" fill="#fff"/>
        <path id="Path_6843" data-name="Path 6843" d="M1141.048-1181.709v8.838c0,1.808-.775,2.98-2.773,2.98-2.068,0-2.93-1.171-2.93-2.98v-8.838h1.964v9.027c0,.689.275,1.155.965,1.155s.964-.465.964-1.155v-9.027Z" transform="translate(-1125.025 1181.846)" fill="#fff"/>
        <path id="Path_6844" data-name="Path 6844" d="M1142.9-1170.029l2.2-11.68h2.239l2.223,11.68h-2.016l-.362-2.136h-2.084l-.345,2.136Zm2.463-3.7h1.567l-.775-4.686h-.017Z" transform="translate(-1125.895 1181.846)" fill="#fff"/>
        <path id="Path_6845" data-name="Path 6845" d="M1151.545-1181.709h1.964v10.078h2.343v1.6h-4.307Z" transform="translate(-1126.891 1181.846)" fill="#fff"/>
        <path id="Path_6846" data-name="Path 6846" d="M1163.5-1178.573v5.41c0,1.791-.741,3.135-2.843,3.135h-3.032v-11.68h3.032C1162.755-1181.709,1163.5-1180.383,1163.5-1178.573Zm-3.083,6.942c.81,0,1.119-.482,1.119-1.188v-6.116a1.023,1.023,0,0,0-1.119-1.172h-.827v8.476Z" transform="translate(-1127.591 1181.846)" fill="#fff"/>
        <path id="Path_6847" data-name="Path 6847" d="M1165.371-1170.029l2.206-11.68h2.239l2.223,11.68h-2.016l-.362-2.136h-2.084l-.345,2.136Zm2.464-3.7h1.567l-.775-4.686h-.017Z" transform="translate(-1128.484 1181.846)" fill="#fff"/>
        <path id="Path_6848" data-name="Path 6848" d="M1179.891-1178.573v5.41c0,1.791-.741,3.135-2.843,3.135h-3.032v-11.68h3.032C1179.15-1181.709,1179.891-1180.383,1179.891-1178.573Zm-3.084,6.942c.81,0,1.12-.482,1.12-1.188v-6.116a1.024,1.024,0,0,0-1.12-1.172h-.826v8.476Z" transform="translate(-1129.479 1181.846)" fill="#fff"/>
        <path id="Path_6849" data-name="Path 6849" d="M1182.116-1181.709h4.686v1.6h-2.722v3.342h1.947v1.585h-1.947v3.549h2.722v1.6h-4.686Z" transform="translate(-1130.413 1181.846)" fill="#fff"/>
        <path id="Path_6850" data-name="Path 6850" d="M1129.556-1159.1v5.41c0,1.792-.741,3.136-2.843,3.136h-3.032v-11.68h3.032C1128.816-1162.236,1129.556-1160.91,1129.556-1159.1Zm-3.084,6.943c.81,0,1.12-.482,1.12-1.189v-6.115a1.024,1.024,0,0,0-1.12-1.172h-.826v8.476Z" transform="translate(-1123.681 1179.603)" fill="#fff"/>
        <path id="Path_6851" data-name="Path 6851" d="M1131.782-1162.236h4.685v1.6h-2.722v3.342h1.947v1.584h-1.947v3.549h2.722v1.6h-4.685Z" transform="translate(-1124.614 1179.603)" fill="#fff"/>
        <path id="Path_6852" data-name="Path 6852" d="M1143.663-1156.811h2.791v6.237h-1.412v-1.275a1.769,1.769,0,0,1-1.878,1.412c-1.688,0-2.464-1.343-2.464-3.153v-5.65c0-1.826.88-3.153,2.947-3.153,2.171,0,2.807,1.206,2.807,2.929v1.034h-1.792v-1.188c0-.724-.276-1.137-.981-1.137s-1.018.5-1.018,1.206v6.271c0,.706.293,1.206.965,1.206.637,0,.964-.362.964-1.12v-2.067h-.93Z" transform="translate(-1125.641 1179.621)" fill="#fff"/>
        <path id="Path_6853" data-name="Path 6853" d="M1148.663-1162.534h4.686v1.6h-2.722v3.342h1.947v1.584h-1.947v3.549h2.722v1.6h-4.686Zm.81-.431v-.948l1.24-.913h.861l1.24.913v.948l-1.654-.5Z" transform="translate(-1126.559 1179.901)" fill="#fff"/>
        <path id="Path_6854" data-name="Path 6854" d="M1157-1157.9v7.339h-1.654v-11.68h1.93l2.119,6.7v-6.7h1.637v11.68h-1.723Z" transform="translate(-1127.328 1179.603)" fill="#fff"/>
        <path id="Path_6855" data-name="Path 6855" d="M1163.229-1162.236h4.686v1.6h-2.722v3.342h1.947v1.584h-1.947v3.549h2.722v1.6h-4.686Z" transform="translate(-1128.237 1179.603)" fill="#fff"/>
        <path id="Path_6856" data-name="Path 6856" d="M1171.871-1155.914v5.358h-1.964v-11.68h2.861c1.981,0,2.7.982,2.7,2.618v1.5c0,1.258-.448,2-1.568,2.257l1.877,5.306h-2.067Zm0-4.72V-1157h.655a.85.85,0,0,0,.964-.964v-1.724c0-.637-.293-.947-.964-.947Z" transform="translate(-1129.006 1179.603)" fill="#fff"/>
        <path id="Path_6857" data-name="Path 6857" d="M1177.6-1153.589v-5.65c0-1.826.9-3.153,2.964-3.153,2.084,0,2.98,1.326,2.98,3.153v5.65c0,1.809-.9,3.153-2.98,3.153C1178.5-1150.437,1177.6-1151.78,1177.6-1153.589Zm3.98.311v-6.271c0-.707-.311-1.206-1.016-1.206-.69,0-1,.5-1,1.206v6.271c0,.706.31,1.206,1,1.206C1181.268-1152.073,1181.579-1152.572,1181.579-1153.279Z" transform="translate(-1129.892 1179.621)" fill="#fff"/>
      </g>
    </g>
    <g id="Group_7290" data-name="Group 7290" transform="translate(1175.393 -1195.173)">
      <rect id="Rectangle_3358" data-name="Rectangle 3358" width="142.384" height="142.389" fill="#a21942"/>
      <path id="Path_6858" data-name="Path 6858" d="M1288.254-1160.04v-3.134c0-2.752-.973-4.743-3.218-5.759,1.9-.93,2.8-2.623,2.8-5v-1.187c0-4.488-2.329-6.9-6.775-6.9-4.4,0-6.691,2.413-6.691,6.9v1.188c0,2.33.849,4.066,2.709,5-2.244,1.017-3.177,3.007-3.177,5.759v3.134c0,4.36,2.077,7.41,7.158,7.41,5.122,0,7.2-3.05,7.2-7.41m-9.359-15.37c0-1.738.595-2.754,2.161-2.754,1.608,0,2.2,1.017,2.2,2.754v1.947c0,1.736-.594,2.754-2.2,2.754-1.566,0-2.161-1.018-2.161-2.754Zm4.531,15.878c0,1.737-.635,2.964-2.37,2.964-1.7,0-2.33-1.227-2.33-2.964v-4.659c0-1.735.634-2.964,2.33-2.964,1.735,0,2.37,1.229,2.37,2.964Z" transform="translate(-1260.588 1193.658)" fill="#fff"/>
      <path id="Path_6859" data-name="Path 6859" d="M1367.859-1116.057l-14.473,13.768a2.4,2.4,0,0,0-.826,2.068v38.585a.826.826,0,0,0,.826.824h14.95a.824.824,0,0,0,.823-.824v-54.072c0-.456-.356-1.286-1.3-.348" transform="translate(-1269.65 1186.109)" fill="#fff"/>
      <path id="Path_6860" data-name="Path 6860" d="M1320.737-1095.785l-14.474,13.765a2.4,2.4,0,0,0-.825,2.066v20.652a.826.826,0,0,0,.825.822h14.951a.824.824,0,0,0,.824-.822v-36.138c0-.456-.359-1.289-1.3-.345" transform="translate(-1264.222 1183.774)" fill="#fff"/>
      <path id="Path_6861" data-name="Path 6861" d="M1368.373-1134.926a.41.41,0,0,0-.122-.313.44.44,0,0,0-.268-.118l-.08.005-.119.006-11.081,2.5-.2.02a.444.444,0,0,0-.216.113.425.425,0,0,0,0,.6l.126.125,2.531,2.531-25.111,25.111-11.6-11.6a.332.332,0,0,0-.473,0l-3.146,3.148,0,0-18.592,18.588a.338.338,0,0,0,0,.472l3.152,3.149a.328.328,0,0,0,.468,0l18.36-18.355,8.416,8.417a.15.15,0,0,0,.027.04l3.148,3.145a.33.33,0,0,0,.472,0l28.5-28.5,2.658,2.656a.416.416,0,0,0,.591,0,.4.4,0,0,0,.12-.273l0-.035,2.434-11.312Z" transform="translate(-1263.587 1188.282)" fill="#fff"/>
      <path id="Path_6862" data-name="Path 6862" d="M1344.4-1093.063l-7,7.061a.335.335,0,0,1-.451-.018l-6.344-6.466c-1.161-1.157-1.412-.219-1.412.235V-1059a.821.821,0,0,0,.819.824h14.954a.825.825,0,0,0,.822-.824v-33.8c0-.454-.358-1.289-1.385-.261" transform="translate(-1266.958 1183.467)" fill="#fff"/>
      <g id="Group_7289" data-name="Group 7289" transform="translate(39.734 11.822)">
        <path id="Path_6863" data-name="Path 6863" d="M1303.763-1181.7h3.29v1.125h-1.911v2.347h1.367v1.113h-1.367v2.492h1.911v1.125h-3.29Z" transform="translate(-1303.763 1181.799)" fill="#fff"/>
        <path id="Path_6864" data-name="Path 6864" d="M1312.212-1178.824h-.036l-.932,5.323h-.641l-1.028-5.323h-.025v5.323h-1.137v-8.2h1.609l.9,4.621h.012l.8-4.621h1.742v8.2h-1.258Z" transform="translate(-1304.299 1181.799)" fill="#fff"/>
        <path id="Path_6865" data-name="Path 6865" d="M1315.116-1181.7h2.045c1.391,0,1.9.689,1.9,1.839v1.73c0,1.149-.508,1.851-1.9,1.851h-.665v2.783h-1.379Zm1.379,1.125v3.23H1317a.593.593,0,0,0,.678-.678v-1.886c0-.448-.206-.666-.678-.666Z" transform="translate(-1305.071 1181.799)" fill="#fff"/>
        <path id="Path_6866" data-name="Path 6866" d="M1321.856-1177.263v3.762h-1.378v-8.2h2.007c1.391,0,1.9.689,1.9,1.839v1.053c0,.883-.315,1.4-1.1,1.585l1.319,3.726h-1.452Zm0-3.314v2.552h.46a.6.6,0,0,0,.677-.677v-1.209c0-.448-.205-.666-.677-.666Z" transform="translate(-1305.688 1181.799)" fill="#fff"/>
        <path id="Path_6867" data-name="Path 6867" d="M1325.84-1181.7h3.291v1.125h-1.912v2.347h1.367v1.113h-1.367v2.492h1.912v1.125h-3.291Z" transform="translate(-1306.306 1181.799)" fill="#fff"/>
        <path id="Path_6868" data-name="Path 6868" d="M1332.434-1177.893h1.96v4.38h-.992v-.9a1.243,1.243,0,0,1-1.318.992c-1.186,0-1.73-.943-1.73-2.214v-3.968a1.943,1.943,0,0,1,2.068-2.214c1.524,0,1.972.847,1.972,2.056v.726h-1.258v-.834c0-.508-.194-.8-.689-.8s-.714.35-.714.847v4.4c0,.5.206.847.678.847.448,0,.677-.254.677-.786v-1.452h-.653Z" transform="translate(-1306.826 1181.812)" fill="#fff"/>
        <path id="Path_6869" data-name="Path 6869" d="M1335.907-1175.631v-3.968a1.952,1.952,0,0,1,2.081-2.214,1.955,1.955,0,0,1,2.093,2.214v3.968a1.96,1.96,0,0,1-2.093,2.214A1.957,1.957,0,0,1,1335.907-1175.631Zm2.794.218v-4.4c0-.5-.218-.847-.713-.847s-.7.35-.7.847v4.4c0,.5.218.847.7.847S1338.7-1174.917,1338.7-1175.413Z" transform="translate(-1307.466 1181.812)" fill="#fff"/>
        <path id="Path_6870" data-name="Path 6870" d="M1341.529-1175.279v-1.1h1.283v1.125c0,.459.205.725.677.725.435,0,.629-.29.629-.725v-.315a1.482,1.482,0,0,0-.617-1.161l-.81-.811a2.765,2.765,0,0,1-1.149-2.19v-.278a1.71,1.71,0,0,1,1.935-1.8c1.379,0,1.924.677,1.924,1.863v.665h-1.258V-1180c0-.473-.218-.7-.653-.7a.605.605,0,0,0-.653.677v.17c0,.459.254.726.653,1.112l.883.871a2.754,2.754,0,0,1,1.113,2.129v.4a1.776,1.776,0,0,1-2.009,1.924A1.708,1.708,0,0,1,1341.529-1175.279Z" transform="translate(-1308.114 1181.812)" fill="#fff"/>
        <path id="Path_6871" data-name="Path 6871" d="M1352.575-1179.5v3.8c0,1.258-.52,2.2-2,2.2h-2.129v-8.2h2.129C1352.055-1181.7,1352.575-1180.771,1352.575-1179.5Zm-2.165,4.875c.569,0,.786-.339.786-.834v-4.295a.718.718,0,0,0-.786-.822h-.58v5.951Z" transform="translate(-1308.911 1181.799)" fill="#fff"/>
        <path id="Path_6872" data-name="Path 6872" d="M1354.1-1181.7h1.379v8.2H1354.1Z" transform="translate(-1309.562 1181.799)" fill="#fff"/>
        <path id="Path_6873" data-name="Path 6873" d="M1358.738-1177.893h1.96v4.38h-.992v-.9a1.244,1.244,0,0,1-1.319.992c-1.186,0-1.73-.943-1.73-2.214v-3.968a1.944,1.944,0,0,1,2.069-2.214c1.525,0,1.972.847,1.972,2.056v.726h-1.258v-.834c0-.508-.194-.8-.69-.8s-.713.35-.713.847v4.4c0,.5.205.847.677.847.448,0,.678-.254.678-.786v-1.452h-.653Z" transform="translate(-1309.856 1181.812)" fill="#fff"/>
        <path id="Path_6874" data-name="Path 6874" d="M1363.372-1178.655v5.154h-1.161v-8.2h1.355l1.488,4.706v-4.706h1.15v8.2h-1.21Z" transform="translate(-1310.496 1181.799)" fill="#fff"/>
        <path id="Path_6875" data-name="Path 6875" d="M1367.71-1175.631v-3.968a1.952,1.952,0,0,1,2.081-2.214,1.955,1.955,0,0,1,2.093,2.214v3.968a1.96,1.96,0,0,1-2.093,2.214A1.957,1.957,0,0,1,1367.71-1175.631Zm2.794.218v-4.4c0-.5-.218-.847-.713-.847s-.7.35-.7.847v4.4c0,.5.218.847.7.847S1370.5-1174.917,1370.5-1175.413Z" transform="translate(-1311.129 1181.812)" fill="#fff"/>
        <path id="Path_6876" data-name="Path 6876" d="M1373.331-1175.279v-1.1h1.282v1.125c0,.459.206.725.678.725.435,0,.629-.29.629-.725v-.315a1.482,1.482,0,0,0-.617-1.161l-.81-.811a2.765,2.765,0,0,1-1.15-2.19v-.278a1.71,1.71,0,0,1,1.935-1.8c1.379,0,1.924.677,1.924,1.863v.665h-1.258V-1180c0-.473-.218-.7-.653-.7a.6.6,0,0,0-.653.677v.17c0,.459.254.726.653,1.112l.883.871a2.754,2.754,0,0,1,1.113,2.129v.4a1.776,1.776,0,0,1-2.008,1.924A1.708,1.708,0,0,1,1373.331-1175.279Z" transform="translate(-1311.777 1181.812)" fill="#fff"/>
        <path id="Path_6877" data-name="Path 6877" d="M1380.253-1181.7h3.291v1.125h-1.911v2.347H1383v1.113h-1.366v2.492h1.911v1.125h-3.291Z" transform="translate(-1312.574 1181.799)" fill="#fff"/>
        <path id="Path_6878" data-name="Path 6878" d="M1303.763-1161.952v-3.967a1.935,1.935,0,0,1,2.056-2.214c1.524,0,1.947.847,1.947,2.056v.968h-1.258v-1.077c0-.508-.169-.8-.665-.8s-.7.35-.7.847v4.4c0,.5.206.847.7.847s.665-.314.665-.8v-1.512h1.258v1.416c0,1.173-.484,2.044-1.947,2.044A1.939,1.939,0,0,1,1303.763-1161.952Z" transform="translate(-1303.763 1180.236)" fill="#fff"/>
        <path id="Path_6879" data-name="Path 6879" d="M1310.613-1163.584v3.762h-1.379v-8.2h2.009c1.391,0,1.9.69,1.9,1.839v1.053c0,.883-.314,1.4-1.1,1.585l1.318,3.726h-1.451Zm0-3.314v2.553h.46a.6.6,0,0,0,.677-.678v-1.209c0-.448-.205-.665-.677-.665Z" transform="translate(-1304.393 1180.224)" fill="#fff"/>
        <path id="Path_6880" data-name="Path 6880" d="M1314.6-1168.024h3.29v1.125h-1.911v2.347h1.367v1.113h-1.367v2.492h1.911v1.125h-3.29Z" transform="translate(-1305.011 1180.224)" fill="#fff"/>
        <path id="Path_6881" data-name="Path 6881" d="M1319.1-1161.6v-1.1h1.282v1.125c0,.46.205.726.678.726.435,0,.628-.29.628-.726v-.314a1.48,1.48,0,0,0-.617-1.162l-.81-.811a2.767,2.767,0,0,1-1.149-2.189v-.279a1.711,1.711,0,0,1,1.936-1.8c1.379,0,1.924.678,1.924,1.863v.665h-1.258v-.713c0-.472-.218-.7-.653-.7a.605.605,0,0,0-.654.677v.17c0,.459.254.726.654,1.113l.883.871a2.756,2.756,0,0,1,1.112,2.129v.4a1.776,1.776,0,0,1-2.008,1.924A1.708,1.708,0,0,1,1319.1-1161.6Z" transform="translate(-1305.529 1180.236)" fill="#fff"/>
        <path id="Path_6882" data-name="Path 6882" d="M1324.486-1161.952v-3.967a1.935,1.935,0,0,1,2.057-2.214c1.524,0,1.947.847,1.947,2.056v.968h-1.258v-1.077c0-.508-.17-.8-.665-.8s-.7.35-.7.847v4.4c0,.5.205.847.7.847s.665-.314.665-.8v-1.512h1.258v1.416c0,1.173-.484,2.044-1.947,2.044A1.94,1.94,0,0,1,1324.486-1161.952Z" transform="translate(-1306.15 1180.236)" fill="#fff"/>
        <path id="Path_6883" data-name="Path 6883" d="M1329.957-1168.024h1.379v8.2h-1.379Z" transform="translate(-1306.78 1180.224)" fill="#fff"/>
        <path id="Path_6884" data-name="Path 6884" d="M1336.313-1165.145h-.036l-.932,5.323h-.641l-1.028-5.323h-.024v5.323h-1.137v-8.2h1.609l.9,4.621h.011l.8-4.621h1.742v8.2h-1.258Z" transform="translate(-1307.075 1180.224)" fill="#fff"/>
        <path id="Path_6885" data-name="Path 6885" d="M1339.218-1168.024h3.291v1.125H1340.6v2.347h1.367v1.113H1340.6v2.492h1.912v1.125h-3.291Z" transform="translate(-1307.847 1180.224)" fill="#fff"/>
        <path id="Path_6886" data-name="Path 6886" d="M1345.03-1164.975v5.153h-1.162v-8.2h1.355l1.488,4.706v-4.706h1.149v8.2h-1.21Z" transform="translate(-1308.383 1180.224)" fill="#fff"/>
        <path id="Path_6887" data-name="Path 6887" d="M1349.189-1168.024h3.666v1.125h-1.137v7.077h-1.391v-7.077h-1.138Z" transform="translate(-1308.996 1180.224)" fill="#fff"/>
        <path id="Path_6888" data-name="Path 6888" d="M1353.949-1161.952v-3.967a1.952,1.952,0,0,1,2.081-2.214,1.955,1.955,0,0,1,2.093,2.214v3.967a1.96,1.96,0,0,1-2.093,2.214A1.957,1.957,0,0,1,1353.949-1161.952Zm2.794.218v-4.4c0-.5-.218-.847-.713-.847s-.7.35-.7.847v4.4c0,.5.218.847.7.847S1356.743-1161.238,1356.743-1161.734Z" transform="translate(-1309.544 1180.236)" fill="#fff"/>
        <path id="Path_6889" data-name="Path 6889" d="M1361.185-1168.024h3.29v1.125h-1.911v2.347h1.367v1.113h-1.367v2.492h1.911v1.125h-3.29Z" transform="translate(-1310.378 1180.224)" fill="#fff"/>
        <path id="Path_6890" data-name="Path 6890" d="M1365.7-1161.952v-3.967a1.935,1.935,0,0,1,2.056-2.214c1.525,0,1.948.847,1.948,2.056v.968h-1.258v-1.077c0-.508-.17-.8-.665-.8s-.7.35-.7.847v4.4c0,.5.205.847.7.847s.665-.314.665-.8v-1.512h1.258v1.416c0,1.173-.484,2.044-1.948,2.044A1.94,1.94,0,0,1,1365.7-1161.952Z" transform="translate(-1310.898 1180.236)" fill="#fff"/>
        <path id="Path_6891" data-name="Path 6891" d="M1371.17-1161.952v-3.967a1.952,1.952,0,0,1,2.08-2.214,1.955,1.955,0,0,1,2.094,2.214v3.967a1.96,1.96,0,0,1-2.094,2.214A1.957,1.957,0,0,1,1371.17-1161.952Zm2.794.218v-4.4c0-.5-.218-.847-.714-.847s-.7.35-.7.847v4.4c0,.5.218.847.7.847S1373.964-1161.238,1373.964-1161.734Z" transform="translate(-1311.528 1180.236)" fill="#fff"/>
        <path id="Path_6892" data-name="Path 6892" d="M1378.036-1164.975v5.153h-1.162v-8.2h1.355l1.488,4.706v-4.706h1.149v8.2h-1.209Z" transform="translate(-1312.185 1180.224)" fill="#fff"/>
        <path id="Path_6893" data-name="Path 6893" d="M1382.373-1162.149v-3.967a1.952,1.952,0,0,1,2.081-2.214,1.955,1.955,0,0,1,2.093,2.214v3.967a1.96,1.96,0,0,1-2.093,2.214A1.957,1.957,0,0,1,1382.373-1162.149Zm.907-6.386v-.665l.872-.642h.6l.872.642v.665l-1.162-.351Zm1.887,6.6v-4.4c0-.5-.218-.847-.713-.847s-.7.35-.7.847v4.4c0,.5.218.847.7.847S1385.167-1161.435,1385.167-1161.931Z" transform="translate(-1312.819 1180.433)" fill="#fff"/>
        <path id="Path_6894" data-name="Path 6894" d="M1391.875-1165.145h-.036l-.932,5.323h-.641l-1.028-5.323h-.025v5.323h-1.137v-8.2h1.609l.895,4.621h.012l.8-4.621h1.742v8.2h-1.258Z" transform="translate(-1313.476 1180.224)" fill="#fff"/>
        <path id="Path_6895" data-name="Path 6895" d="M1394.779-1168.024h1.379v8.2h-1.379Z" transform="translate(-1314.248 1180.224)" fill="#fff"/>
        <path id="Path_6896" data-name="Path 6896" d="M1397.337-1161.952v-3.967a1.935,1.935,0,0,1,2.056-2.214c1.525,0,1.948.847,1.948,2.056v.968h-1.258v-1.077c0-.508-.169-.8-.665-.8s-.7.35-.7.847v4.4c0,.5.205.847.7.847s.665-.314.665-.8v-1.512h1.258v1.416c0,1.173-.484,2.044-1.948,2.044A1.94,1.94,0,0,1,1397.337-1161.952Z" transform="translate(-1314.542 1180.236)" fill="#fff"/>
        <path id="Path_6897" data-name="Path 6897" d="M1402.809-1161.952v-3.967a1.952,1.952,0,0,1,2.08-2.214,1.955,1.955,0,0,1,2.093,2.214v3.967a1.96,1.96,0,0,1-2.093,2.214A1.957,1.957,0,0,1,1402.809-1161.952Zm2.794.218v-4.4c0-.5-.218-.847-.714-.847s-.7.35-.7.847v4.4c0,.5.218.847.7.847S1405.6-1161.238,1405.6-1161.734Z" transform="translate(-1315.173 1180.236)" fill="#fff"/>
      </g>
    </g>
    <g id="Group_7295" data-name="Group 7295" transform="translate(694.601 -1034.525)">
      <rect id="Rectangle_3359" data-name="Rectangle 3359" width="142.384" height="142.389" fill="#dd1367"/>
      <path id="Path_6898" data-name="Path 6898" d="M730.54-993.4v22h4.832v-28.738h-3.858l-4.449,5.214v5.045h.041L730.5-993.4Z" transform="translate(-716.803 1012.057)" fill="#fff"/>
      <path id="Path_6899" data-name="Path 6899" d="M754.521-978.863v-13.9c0-4.494-2.246-7.756-7.163-7.756-4.874,0-7.123,3.262-7.123,7.756v13.9c0,4.45,2.249,7.756,7.123,7.756,4.918,0,7.163-3.307,7.163-7.756m-9.452.764v-15.43c0-1.738.635-2.968,2.289-2.968,1.7,0,2.331,1.23,2.331,2.968v15.43c0,1.739-.635,2.965-2.331,2.965-1.654,0-2.289-1.226-2.289-2.965" transform="translate(-718.32 1012.101)" fill="#fff"/>
      <g id="Group_7291" data-name="Group 7291" transform="translate(45.447 9.973)">
        <path id="Path_6900" data-name="Path 6900" d="M768.794-993.834v5.357H766.83v-11.679h2.86c1.982,0,2.7.982,2.7,2.618v1.5c0,1.257-.448,2-1.568,2.256l1.878,5.306h-2.067Zm0-4.72v3.636h.655a.85.85,0,0,0,.964-.965v-1.723c0-.637-.292-.948-.964-.948Z" transform="translate(-766.83 1002.086)" fill="#fff"/>
        <path id="Path_6901" data-name="Path 6901" d="M774.521-1000.156h4.686v1.6h-2.722v3.343h1.946v1.585h-1.946v3.549h2.722v1.6h-4.686Z" transform="translate(-767.716 1002.086)" fill="#fff"/>
        <path id="Path_6902" data-name="Path 6902" d="M787.075-997.021v5.41c0,1.792-.741,3.135-2.843,3.135H781.2v-11.679h3.032C786.334-1000.156,787.075-998.83,787.075-997.021Zm-3.084,6.943c.81,0,1.12-.483,1.12-1.189v-6.116a1.024,1.024,0,0,0-1.12-1.172h-.826v8.476Z" transform="translate(-768.485 1002.086)" fill="#fff"/>
        <path id="Path_6903" data-name="Path 6903" d="M795-1000.156v8.837c0,1.809-.775,2.98-2.774,2.98-2.068,0-2.929-1.172-2.929-2.98v-8.837h1.963v9.027c0,.689.276,1.155.965,1.155s.964-.465.964-1.155v-9.027Z" transform="translate(-769.419 1002.086)" fill="#fff"/>
        <path id="Path_6904" data-name="Path 6904" d="M799.291-987.305c.551-.017.638-.138.638-.276,0-.12-.1-.189-.276-.189h-.086v-.637c-1.671-.207-2.361-1.464-2.361-3.1v-5.65c0-1.826.861-3.153,2.929-3.153,2.171,0,2.774,1.206,2.774,2.929v1.378h-1.792v-1.532c0-.724-.242-1.137-.948-1.137s-1,.5-1,1.205v6.271c0,.706.293,1.206,1,1.206s.948-.449.948-1.138v-2.153h1.792v2.016c0,1.636-.655,2.843-2.6,2.911v.155c.465.069.724.242.724.62,0,.534-.5.827-1.74.827Z" transform="translate(-770.329 1002.104)" fill="#fff"/>
        <path id="Path_6905" data-name="Path 6905" d="M804.509-988.728l2.2-11.679h2.239l2.223,11.679H809.16l-.362-2.136h-2.084l-.345,2.136Zm1.533-12.145c.034-.81.345-1.464,1.206-1.464.5,0,.913.293,1.171.293a.231.231,0,0,0,.241-.258h.965c-.035.81-.345,1.464-1.206,1.464-.5,0-.913-.293-1.171-.293a.231.231,0,0,0-.242.258Zm.931,8.441h1.567l-.775-4.686h-.017Z" transform="translate(-771.171 1002.337)" fill="#fff"/>
        <path id="Path_6906" data-name="Path 6906" d="M812.861-991.509v-5.65c0-1.826.9-3.153,2.964-3.153,2.084,0,2.98,1.326,2.98,3.153v5.65c0,1.809-.9,3.153-2.98,3.153C813.757-988.357,812.861-989.7,812.861-991.509Zm3.98.311v-6.271c0-.706-.31-1.205-1.016-1.205-.69,0-1,.5-1,1.205v6.271c0,.706.31,1.206,1,1.206C816.531-989.993,816.841-990.492,816.841-991.2Z" transform="translate(-772.133 1002.104)" fill="#fff"/>
        <path id="Path_6907" data-name="Path 6907" d="M829.153-997.021v5.41c0,1.792-.741,3.135-2.843,3.135h-3.032v-11.679h3.032C828.412-1000.156,829.153-998.83,829.153-997.021Zm-3.084,6.943c.81,0,1.12-.483,1.12-1.189v-6.116a1.024,1.024,0,0,0-1.12-1.172h-.827v8.476Z" transform="translate(-773.333 1002.086)" fill="#fff"/>
        <path id="Path_6908" data-name="Path 6908" d="M830.737-988.477l2.2-11.679h2.24l2.222,11.679h-2.015l-.362-2.136h-2.085l-.344,2.136Zm2.463-3.7h1.568l-.775-4.686h-.018Z" transform="translate(-774.192 1002.086)" fill="#fff"/>
        <path id="Path_6909" data-name="Path 6909" d="M839.071-991.009v-1.568H840.9v1.6c0,.654.293,1.033.964,1.033.62,0,.9-.413.9-1.033v-.449a2.111,2.111,0,0,0-.878-1.654l-1.155-1.154c-1.119-1.1-1.636-1.775-1.636-3.118v-.4a2.436,2.436,0,0,1,2.756-2.567c1.964,0,2.739.964,2.739,2.653v.948h-1.793v-1.017c0-.672-.31-1-.93-1a.862.862,0,0,0-.93.964v.242c0,.655.362,1.033.93,1.585l1.257,1.24c1.068,1.086,1.585,1.74,1.585,3.032v.568a2.529,2.529,0,0,1-2.859,2.739A2.432,2.432,0,0,1,839.071-991.009Z" transform="translate(-775.152 1002.104)" fill="#fff"/>
        <path id="Path_6910" data-name="Path 6910" d="M772.705-977.549v5.41c0,1.792-.741,3.136-2.843,3.136H766.83v-11.68h3.032C771.964-980.684,772.705-979.358,772.705-977.549Zm-3.084,6.943c.81,0,1.12-.482,1.12-1.189v-6.115a1.024,1.024,0,0,0-1.12-1.172h-.826v8.476Z" transform="translate(-766.83 999.843)" fill="#fff"/>
        <path id="Path_6911" data-name="Path 6911" d="M774.93-980.684h4.686v1.6h-2.722v3.343h1.946v1.585h-1.946v3.549h2.722v1.6H774.93Z" transform="translate(-767.763 999.843)" fill="#fff"/>
        <path id="Path_6912" data-name="Path 6912" d="M781.4-971.537v-1.568h1.826v1.6c0,.655.293,1.033.965,1.033.619,0,.895-.413.895-1.033v-.449a2.111,2.111,0,0,0-.878-1.654l-1.155-1.154c-1.119-1.1-1.636-1.774-1.636-3.118v-.4a2.436,2.436,0,0,1,2.756-2.567c1.964,0,2.739.964,2.739,2.653v.947h-1.793v-1.016c0-.672-.31-1-.929-1a.862.862,0,0,0-.931.964v.242c0,.655.362,1.033.931,1.585l1.257,1.241c1.068,1.086,1.585,1.74,1.585,3.032v.569a2.529,2.529,0,0,1-2.86,2.738A2.432,2.432,0,0,1,781.4-971.537Z" transform="translate(-768.508 999.861)" fill="#fff"/>
        <path id="Path_6913" data-name="Path 6913" d="M789.126-980.684h1.964V-969h-1.964Z" transform="translate(-769.398 999.843)" fill="#fff"/>
        <path id="Path_6914" data-name="Path 6914" d="M795.789-975.259h2.791v6.237h-1.413V-970.3a1.769,1.769,0,0,1-1.878,1.412c-1.688,0-2.464-1.343-2.464-3.153v-5.65c0-1.826.879-3.153,2.946-3.153,2.17,0,2.808,1.206,2.808,2.929v1.034h-1.792v-1.188c0-.724-.276-1.137-.982-1.137s-1.017.5-1.017,1.206v6.271c0,.706.293,1.206.965,1.206.637,0,.964-.362.964-1.12v-2.067h-.929Z" transform="translate(-769.825 999.861)" fill="#fff"/>
        <path id="Path_6915" data-name="Path 6915" d="M806.492-980.684v8.837c0,1.809-.775,2.98-2.774,2.98-2.067,0-2.929-1.171-2.929-2.98v-8.837h1.964v9.027c0,.689.275,1.155.964,1.155s.964-.465.964-1.155v-9.027Z" transform="translate(-770.742 999.843)" fill="#fff"/>
        <path id="Path_6916" data-name="Path 6916" d="M808.053-969l2.2-11.68H812.5L814.719-969H812.7l-.362-2.137h-2.084L809.913-969Zm2.463-3.7h1.567l-.775-4.686h-.017Z" transform="translate(-771.579 999.843)" fill="#fff"/>
        <path id="Path_6917" data-name="Path 6917" d="M816.7-980.684h1.964v10.078H821v1.6H816.7Z" transform="translate(-772.575 999.843)" fill="#fff"/>
        <path id="Path_6918" data-name="Path 6918" d="M828.647-977.549v5.41c0,1.792-.741,3.136-2.843,3.136h-3.032v-11.68H825.8C827.906-980.684,828.647-979.358,828.647-977.549Zm-3.083,6.943c.81,0,1.119-.482,1.119-1.189v-6.115a1.024,1.024,0,0,0-1.119-1.172h-.827v8.476Z" transform="translate(-773.274 999.843)" fill="#fff"/>
        <path id="Path_6919" data-name="Path 6919" d="M830.231-969l2.2-11.68h2.24L836.9-969h-2.015l-.362-2.137h-2.085L832.092-969Zm2.463-3.7h1.568l-.775-4.686h-.018Z" transform="translate(-774.134 999.843)" fill="#fff"/>
        <path id="Path_6920" data-name="Path 6920" d="M844.75-977.549v5.41c0,1.792-.74,3.136-2.842,3.136h-3.032v-11.68h3.032C844.011-980.684,844.75-979.358,844.75-977.549Zm-3.084,6.943c.81,0,1.12-.482,1.12-1.189v-6.115a1.024,1.024,0,0,0-1.12-1.172h-.826v8.476Z" transform="translate(-775.129 999.843)" fill="#fff"/>
        <path id="Path_6921" data-name="Path 6921" d="M846.975-980.684h4.686v1.6h-2.722v3.343h1.947v1.585h-1.947v3.549h2.722v1.6h-4.686Z" transform="translate(-776.062 999.843)" fill="#fff"/>
        <path id="Path_6922" data-name="Path 6922" d="M853.441-971.537v-1.568h1.826v1.6c0,.655.293,1.033.965,1.033.619,0,.894-.413.894-1.033v-.449a2.111,2.111,0,0,0-.878-1.654l-1.155-1.154c-1.119-1.1-1.636-1.774-1.636-3.118v-.4a2.436,2.436,0,0,1,2.756-2.567c1.964,0,2.739.964,2.739,2.653v.947h-1.793v-1.016c0-.672-.31-1-.929-1a.862.862,0,0,0-.931.964v.242c0,.655.362,1.033.931,1.585l1.256,1.241c1.068,1.086,1.585,1.74,1.585,3.032v.569a2.528,2.528,0,0,1-2.859,2.738A2.432,2.432,0,0,1,853.441-971.537Z" transform="translate(-776.807 999.861)" fill="#fff"/>
      </g>
      <g id="Group_7294" data-name="Group 7294" transform="translate(32.854 49.929)">
        <g id="Group_7292" data-name="Group 7292" transform="translate(23.989 24.749)">
          <path id="Path_6923" data-name="Path 6923" d="M806.418-910.113H780a.305.305,0,0,0-.288.32v7.94a.305.305,0,0,0,.288.323h26.42a.305.305,0,0,0,.29-.323v-7.94a.306.306,0,0,0-.29-.32" transform="translate(-779.71 927.008)" fill="#fff"/>
          <path id="Path_6924" data-name="Path 6924" d="M806.418-929.208H780a.305.305,0,0,0-.288.32v7.94a.305.305,0,0,0,.288.323h26.42a.305.305,0,0,0,.29-.323v-7.94a.306.306,0,0,0-.29-.32" transform="translate(-779.71 929.208)" fill="#fff"/>
        </g>
        <g id="Group_7293" data-name="Group 7293">
          <path id="Path_6925" data-name="Path 6925" d="M806.124-944.433l-12.682-12.682a.22.22,0,0,0-.31,0l-12.682,12.682a.219.219,0,0,0,.155.374h25.364A.219.219,0,0,0,806.124-944.433Z" transform="translate(-755.799 957.179)" fill="#fff"/>
          <path id="Path_6926" data-name="Path 6926" d="M822.881-903.653l12.682-12.682a.218.218,0,0,0,0-.31l-12.682-12.682a.219.219,0,0,0-.374.155v25.364A.219.219,0,0,0,822.881-903.653Z" transform="translate(-760.651 953.978)" fill="#fff"/>
          <path id="Path_6927" data-name="Path 6927" d="M780.451-886.9l12.682,12.682a.219.219,0,0,0,.31,0L806.124-886.9a.219.219,0,0,0-.155-.374H780.605A.219.219,0,0,0,780.451-886.9Z" transform="translate(-755.799 949.126)" fill="#fff"/>
          <path id="Path_6928" data-name="Path 6928" d="M765.344-929.326l-12.682,12.682a.22.22,0,0,0,0,.31l12.682,12.682a.219.219,0,0,0,.374-.155v-25.364A.219.219,0,0,0,765.344-929.326Z" transform="translate(-752.598 953.978)" fill="#fff"/>
        </g>
      </g>
    </g>
    <g id="Group_7299" data-name="Group 7299" transform="translate(854.865 -1034.525)">
      <rect id="Rectangle_3360" data-name="Rectangle 3360" width="142.384" height="142.389" transform="translate(0)" fill="#fd9d24"/>
      <path id="Path_6929" data-name="Path 6929" d="M908.127-994.913v5.038h.042l3.387-3.515h.043v21.977h4.827v-28.71h-3.854Z" transform="translate(-897.924 1012.055)" fill="#fff"/>
      <path id="Path_6930" data-name="Path 6930" d="M920.568-994.913v5.038h.043L924-993.39h.042v21.977h4.828v-28.71h-3.852Z" transform="translate(-899.358 1012.055)" fill="#fff"/>
      <g id="Group_7297" data-name="Group 7297" transform="translate(23.862 56.164)">
        <g id="Group_7296" data-name="Group 7296" transform="translate(0 37.258)">
          <path id="Path_6931" data-name="Path 6931" d="M924.211-893.044H945.63a.526.526,0,0,0,.525-.526.519.519,0,0,0-.138-.349l-.029-.031-10.656-13.787-.1-.114a.527.527,0,0,0-.388-.172.539.539,0,0,0-.345.135l-.064.074-.1.112-10.4,13.642-.16.195a.523.523,0,0,0-.09.295A.527.527,0,0,0,924.211-893.044Z" transform="translate(-923.579 908.024)" fill="#fff"/>
          <path id="Path_6932" data-name="Path 6932" d="M945.551-888.9h-21.46a.526.526,0,0,0-.526.526v16.794a.527.527,0,0,0,.526.527H931v-10.566a.523.523,0,0,1,.526-.526h6.411a.525.525,0,0,1,.526.526v10.566h7.09a.528.528,0,0,0,.526-.527v-16.794A.526.526,0,0,0,945.551-888.9Z" transform="translate(-923.565 905.821)" fill="#fff"/>
        </g>
        <path id="Path_6933" data-name="Path 6933" d="M1029.407-893.865h-21.242a.51.51,0,0,0-.518.5v21.448a.512.512,0,0,0,.518.5h21.242a.511.511,0,0,0,.519-.5v-21.448a.509.509,0,0,0-.519-.5m-11.622,14a.512.512,0,0,1-.518.508h-6.346a.514.514,0,0,1-.522-.508v-3.855a.513.513,0,0,1,.522-.507h6.346a.511.511,0,0,1,.518.507Zm0-7.127a.512.512,0,0,1-.518.507h-6.346a.514.514,0,0,1-.522-.507v-3.859a.513.513,0,0,1,.522-.5h6.346a.511.511,0,0,1,.518.5Zm9.7,7.127a.512.512,0,0,1-.52.508h-6.344a.512.512,0,0,1-.52-.508v-3.855a.512.512,0,0,1,.52-.507h6.344a.512.512,0,0,1,.52.507Zm0-7.127a.513.513,0,0,1-.52.507h-6.344a.513.513,0,0,1-.52-.507v-3.859a.512.512,0,0,1,.52-.5h6.344a.512.512,0,0,1,.52.5Z" transform="translate(-933.251 943.651)" fill="#fff"/>
        <path id="Path_6934" data-name="Path 6934" d="M973.664-950.133H952.878a.51.51,0,0,0-.509.51v71.038a.51.51,0,0,0,.509.508h20.786a.513.513,0,0,0,.511-.508v-71.038a.512.512,0,0,0-.511-.51M961.3-886.17a.273.273,0,0,1-.273.273h-4.759a.274.274,0,0,1-.273-.273v-5.3a.273.273,0,0,1,.273-.272h4.759a.272.272,0,0,1,.273.272Zm0-12.181a.271.271,0,0,1-.273.273h-4.759a.272.272,0,0,1-.273-.273v-5.3a.271.271,0,0,1,.273-.272h4.759a.27.27,0,0,1,.273.272Zm0-12.178a.273.273,0,0,1-.273.273h-4.759a.273.273,0,0,1-.273-.273v-5.305a.274.274,0,0,1,.273-.273h4.759a.273.273,0,0,1,.273.273Zm0-12.182a.273.273,0,0,1-.273.273h-4.759a.274.274,0,0,1-.273-.273v-5.305a.271.271,0,0,1,.273-.27h4.759a.27.27,0,0,1,.273.27Zm0-12.178a.273.273,0,0,1-.273.272h-4.759a.274.274,0,0,1-.273-.272v-5.305a.273.273,0,0,1,.273-.273h4.759a.272.272,0,0,1,.273.273Zm9.334,48.72a.274.274,0,0,1-.274.273H965.6a.273.273,0,0,1-.273-.273v-5.3a.272.272,0,0,1,.273-.272h4.758a.272.272,0,0,1,.274.272Zm0-12.181a.271.271,0,0,1-.274.273H965.6a.271.271,0,0,1-.273-.273v-5.3a.27.27,0,0,1,.273-.272h4.758a.271.271,0,0,1,.274.272Zm0-12.178a.273.273,0,0,1-.274.273H965.6a.272.272,0,0,1-.273-.273v-5.305a.273.273,0,0,1,.273-.273h4.758a.274.274,0,0,1,.274.273Zm0-12.182a.274.274,0,0,1-.274.273H965.6a.273.273,0,0,1-.273-.273v-5.305a.27.27,0,0,1,.273-.27h4.758a.271.271,0,0,1,.274.27Zm0-12.178a.273.273,0,0,1-.274.272H965.6a.273.273,0,0,1-.273-.272v-5.305a.272.272,0,0,1,.273-.273h4.758a.273.273,0,0,1,.274.273Z" transform="translate(-926.883 950.133)" fill="#fff"/>
        <path id="Rectangle_3361" data-name="Rectangle 3361" d="M.484,0H21.75a.482.482,0,0,1,.482.482V4.648a.482.482,0,0,1-.482.482H.482A.482.482,0,0,1,0,4.648V.484A.484.484,0,0,1,.484,0Z" transform="translate(74.419 42.925)" fill="#fff"/>
        <path id="Path_6935" data-name="Path 6935" d="M1001.982-935.023a.546.546,0,0,0-.521-.4.533.533,0,0,0-.3.1.357.357,0,0,0-.039.026l-.176.221L980.52-909.159l-.094.126a.587.587,0,0,0-.177.4v31.847a.507.507,0,0,0,.51.506h20.765a.506.506,0,0,0,.508-.506V-934.81A.5.5,0,0,0,1001.982-935.023Zm-8.6,14.074.146-.183c1.4-1.793,3.753-4.694,4.9-6.1l.15-.181a.593.593,0,0,1,.457-.216.583.583,0,0,1,.567.475v6.557a.587.587,0,0,1-.564.584c-.009,0-.017.005-.026.005s-.017-.005-.026-.005h-5.105c-.01,0-.017.005-.026.005s-.017-.005-.027-.005a.587.587,0,0,1-.564-.584A.59.59,0,0,1,993.382-920.949Zm-3.233,36.295a.506.506,0,0,1-.508.508h-6.2a.506.506,0,0,1-.508-.508v-3.878a.506.506,0,0,1,.508-.506h6.2a.506.506,0,0,1,.508.506Zm0-7.165a.507.507,0,0,1-.508.509h-6.2a.507.507,0,0,1-.508-.509V-895.7a.506.506,0,0,1,.508-.509h6.2a.506.506,0,0,1,.508.509Zm0-7.164a.508.508,0,0,1-.508.506h-6.2a.508.508,0,0,1-.508-.506v-3.88a.507.507,0,0,1,.508-.508h6.2a.507.507,0,0,1,.508.508Zm.018-15.7v8.543a.509.509,0,0,1-.508.508h-6.194a.509.509,0,0,1-.512-.508v-1.075a.587.587,0,0,1,.039-.19.5.5,0,0,1,.031-.058.479.479,0,0,1,.045-.067c.016-.025.039-.056.058-.083.791-1.134,4.365-5.535,5.866-7.376l.15-.181a.59.59,0,0,1,.457-.216.584.584,0,0,1,.567.475Zm9.453,30.032a.509.509,0,0,1-.509.508h-6.194a.508.508,0,0,1-.511-.508v-3.878a.508.508,0,0,1,.511-.506h6.194a.509.509,0,0,1,.509.506Zm0-7.165a.509.509,0,0,1-.509.509h-6.194a.509.509,0,0,1-.511-.509V-895.7a.508.508,0,0,1,.511-.509h6.194a.508.508,0,0,1,.509.509Zm0-7.164a.51.51,0,0,1-.509.506h-6.194a.509.509,0,0,1-.511-.506v-3.88a.509.509,0,0,1,.511-.508h6.194a.509.509,0,0,1,.509.508Zm0-7.167a.509.509,0,0,1-.509.506h-6.194a.508.508,0,0,1-.511-.506v-3.878a.509.509,0,0,1,.511-.508h6.194a.509.509,0,0,1,.509.508Zm0-7.167a.509.509,0,0,1-.509.509h-6.194a.509.509,0,0,1-.511-.509V-917.2a.509.509,0,0,1,.511-.51h6.194a.51.51,0,0,1,.509.51Z" transform="translate(-930.095 948.438)" fill="#fff"/>
      </g>
      <g id="Group_7298" data-name="Group 7298" transform="translate(38.816 11.802)">
        <path id="Path_6936" data-name="Path 6936" d="M940.556-993.5v-4.344a2.118,2.118,0,0,1,2.252-2.424c1.669,0,2.132.927,2.132,2.251v1.06h-1.377v-1.179c0-.557-.186-.874-.729-.874s-.768.384-.768.927v4.82c0,.543.225.927.768.927s.729-.344.729-.874v-1.656h1.377v1.549c0,1.286-.529,2.239-2.132,2.239A2.124,2.124,0,0,1,940.556-993.5Z" transform="translate(-940.476 1000.27)" fill="#fff"/>
        <path id="Path_6937" data-name="Path 6937" d="M946.3-1000.15h1.51v8.98H946.3Z" transform="translate(-941.138 1000.256)" fill="#fff"/>
        <path id="Path_6938" data-name="Path 6938" d="M953.378-997.74v4.159c0,1.378-.569,2.411-2.185,2.411h-2.331v-8.98h2.331C952.809-1000.15,953.378-999.131,953.378-997.74Zm-2.37,5.337c.623,0,.861-.371.861-.913v-4.7a.787.787,0,0,0-.861-.9h-.635v6.516Z" transform="translate(-941.433 1000.256)" fill="#fff"/>
        <path id="Path_6939" data-name="Path 6939" d="M954.31-991.17l1.7-8.98h1.722l1.709,8.98h-1.549l-.278-1.642h-1.6l-.265,1.642Zm1.894-2.848h1.205l-.6-3.6H956.8Z" transform="translate(-942.061 1000.256)" fill="#fff"/>
        <path id="Path_6940" data-name="Path 6940" d="M965.187-997.74v4.159c0,1.378-.57,2.411-2.185,2.411H960.67v-8.98H963C964.617-1000.15,965.187-999.131,965.187-997.74Zm-2.371,5.337c.623,0,.862-.371.862-.913v-4.7a.787.787,0,0,0-.862-.9h-.635v6.516Z" transform="translate(-942.793 1000.256)" fill="#fff"/>
        <path id="Path_6941" data-name="Path 6941" d="M966.612-1000.15h3.6v1.232h-2.092v2.569h1.5v1.219h-1.5v2.728h2.092v1.233h-3.6Z" transform="translate(-943.478 1000.256)" fill="#fff"/>
        <path id="Path_6942" data-name="Path 6942" d="M971.3-993.118v-1.205h1.4v1.232c0,.5.226.795.742.795.477,0,.689-.318.689-.795v-.344a1.624,1.624,0,0,0-.675-1.271l-.887-.888a3.025,3.025,0,0,1-1.258-2.4v-.305a1.873,1.873,0,0,1,2.119-1.973c1.51,0,2.1.742,2.1,2.039v.728h-1.377v-.781c0-.516-.239-.768-.716-.768a.662.662,0,0,0-.714.742v.186c0,.5.278.795.714,1.218l.967.954a3.014,3.014,0,0,1,1.219,2.331v.437a1.945,1.945,0,0,1-2.2,2.106A1.87,1.87,0,0,1,971.3-993.118Z" transform="translate(-944.018 1000.27)" fill="#fff"/>
        <path id="Path_6943" data-name="Path 6943" d="M978.39-1000.15h3.6v1.232H979.9v2.569h1.5v1.219h-1.5v2.728h2.092v1.233h-3.6Z" transform="translate(-944.835 1000.256)" fill="#fff"/>
        <path id="Path_6944" data-name="Path 6944" d="M984.676-993.5v-4.344a2.118,2.118,0,0,1,2.252-2.424c1.669,0,2.132.927,2.132,2.251v1.06h-1.377v-1.179c0-.557-.186-.874-.728-.874s-.769.384-.769.927v4.82c0,.543.225.927.769.927s.728-.344.728-.874v-1.656h1.377v1.549c0,1.286-.529,2.239-2.132,2.239A2.124,2.124,0,0,1,984.676-993.5Z" transform="translate(-945.559 1000.27)" fill="#fff"/>
        <path id="Path_6945" data-name="Path 6945" d="M990.422-993.5v-4.344a2.137,2.137,0,0,1,2.279-2.424,2.14,2.14,0,0,1,2.29,2.424v4.344a2.145,2.145,0,0,1-2.29,2.423A2.143,2.143,0,0,1,990.422-993.5Zm3.06.238v-4.82c0-.543-.238-.927-.78-.927s-.769.384-.769.927v4.82c0,.543.239.927.769.927S993.482-992.721,993.482-993.264Z" transform="translate(-946.221 1000.27)" fill="#fff"/>
        <path id="Path_6946" data-name="Path 6946" d="M1000.583-997h-.04l-1.02,5.828h-.7L997.7-997h-.026v5.828h-1.246v-8.98h1.763l.979,5.059h.013l.874-5.059h1.907v8.98h-1.377Z" transform="translate(-946.912 1000.256)" fill="#fff"/>
        <path id="Path_6947" data-name="Path 6947" d="M1007.9-1000.15v6.794c0,1.391-.6,2.291-2.132,2.291a2.026,2.026,0,0,1-2.252-2.291v-6.794h1.51v6.94c0,.53.211.887.741.887s.741-.357.741-.887v-6.94Z" transform="translate(-947.729 1000.256)" fill="#fff"/>
        <path id="Path_6948" data-name="Path 6948" d="M1010.582-996.812v5.642h-1.272v-8.98h1.484l1.629,5.151v-5.151h1.258v8.98h-1.325Z" transform="translate(-948.397 1000.256)" fill="#fff"/>
        <path id="Path_6949" data-name="Path 6949" d="M1015.086-1000.15h1.51v8.98h-1.51Z" transform="translate(-949.062 1000.256)" fill="#fff"/>
        <path id="Path_6950" data-name="Path 6950" d="M1022.163-997.74v4.159c0,1.378-.57,2.411-2.185,2.411h-2.331v-8.98h2.331C1021.593-1000.15,1022.163-999.131,1022.163-997.74Zm-2.371,5.337c.623,0,.861-.371.861-.913v-4.7a.787.787,0,0,0-.861-.9h-.635v6.516Z" transform="translate(-949.357 1000.256)" fill="#fff"/>
        <path id="Path_6951" data-name="Path 6951" d="M1023.093-991.17l1.7-8.98h1.723l1.708,8.98h-1.549l-.278-1.642h-1.6l-.265,1.642Zm1.894-2.848h1.2l-.6-3.6h-.012Z" transform="translate(-949.984 1000.256)" fill="#fff"/>
        <path id="Path_6952" data-name="Path 6952" d="M1033.97-997.74v4.159c0,1.378-.569,2.411-2.185,2.411h-2.331v-8.98h2.331C1033.4-1000.15,1033.97-999.131,1033.97-997.74ZM1031.6-992.4c.624,0,.862-.371.862-.913v-4.7a.787.787,0,0,0-.862-.9h-.634v6.516Z" transform="translate(-950.717 1000.256)" fill="#fff"/>
        <path id="Path_6953" data-name="Path 6953" d="M1035.4-1000.15h3.6v1.232h-2.092v2.569h1.5v1.219h-1.5v2.728H1039v1.233h-3.6Z" transform="translate(-951.401 1000.256)" fill="#fff"/>
        <path id="Path_6954" data-name="Path 6954" d="M1040.08-993.118v-1.205h1.4v1.232c0,.5.225.795.741.795.477,0,.689-.318.689-.795v-.344a1.624,1.624,0,0,0-.675-1.271l-.888-.888a3.025,3.025,0,0,1-1.258-2.4v-.305a1.873,1.873,0,0,1,2.119-1.973c1.51,0,2.106.742,2.106,2.039v.728h-1.378v-.781c0-.516-.239-.768-.716-.768a.662.662,0,0,0-.714.742v.186c0,.5.278.795.714,1.218l.967.954a3.014,3.014,0,0,1,1.219,2.331v.437a1.945,1.945,0,0,1-2.2,2.106A1.87,1.87,0,0,1,1040.08-993.118Z" transform="translate(-951.941 1000.27)" fill="#fff"/>
        <path id="Path_6955" data-name="Path 6955" d="M940.466-978.152v-1.205h1.4v1.233c0,.5.226.795.742.795.477,0,.688-.319.688-.795v-.345a1.623,1.623,0,0,0-.674-1.271l-.887-.887a3.025,3.025,0,0,1-1.258-2.4v-.3A1.873,1.873,0,0,1,942.6-985.3c1.509,0,2.1.742,2.1,2.039v.729h-1.377v-.782c0-.516-.239-.768-.716-.768a.663.663,0,0,0-.714.742v.185c0,.5.278.8.714,1.218l.967.954a3.015,3.015,0,0,1,1.219,2.331v.438a1.944,1.944,0,0,1-2.2,2.1A1.87,1.87,0,0,1,940.466-978.152Z" transform="translate(-940.466 998.546)" fill="#fff"/>
        <path id="Path_6956" data-name="Path 6956" d="M950.508-985.184v6.794c0,1.391-.6,2.291-2.133,2.291a2.026,2.026,0,0,1-2.251-2.291v-6.794h1.51v6.94c0,.529.211.888.741.888s.741-.358.741-.888v-6.94Z" transform="translate(-941.118 998.532)" fill="#fff"/>
        <path id="Path_6957" data-name="Path 6957" d="M951.826-978.152v-1.205h1.4v1.233c0,.5.226.795.741.795.477,0,.688-.319.688-.795v-.345a1.622,1.622,0,0,0-.675-1.271l-.887-.887a3.028,3.028,0,0,1-1.258-2.4v-.3a1.873,1.873,0,0,1,2.119-1.974c1.51,0,2.106.742,2.106,2.039v.729h-1.378v-.782c0-.516-.238-.768-.715-.768a.663.663,0,0,0-.715.742v.185c0,.5.278.8.715,1.218l.966.954a3.015,3.015,0,0,1,1.219,2.331v.438a1.944,1.944,0,0,1-2.2,2.1A1.87,1.87,0,0,1,951.826-978.152Z" transform="translate(-941.775 998.546)" fill="#fff"/>
        <path id="Path_6958" data-name="Path 6958" d="M957.064-985.184h4.013v1.232h-1.244v7.748h-1.524v-7.748h-1.245Z" transform="translate(-942.378 998.532)" fill="#fff"/>
        <path id="Path_6959" data-name="Path 6959" d="M962.257-985.184h3.6v1.232h-2.093v2.569h1.5v1.218h-1.5v2.729h2.093v1.232h-3.6Z" transform="translate(-942.976 998.532)" fill="#fff"/>
        <path id="Path_6960" data-name="Path 6960" d="M968.378-981.846v5.642h-1.271v-8.98h1.484l1.629,5.152v-5.152h1.257v8.98h-1.324Z" transform="translate(-943.535 998.532)" fill="#fff"/>
        <path id="Path_6961" data-name="Path 6961" d="M972.688-985.184H976.7v1.232h-1.244v7.748h-1.524v-7.748h-1.245Z" transform="translate(-944.178 998.532)" fill="#fff"/>
        <path id="Path_6962" data-name="Path 6962" d="M976.864-976.423l1.7-8.98h1.722l1.708,8.98H980.44l-.279-1.642h-1.6l-.265,1.642Zm3.788-9.615-2.371.3v-.848l2.371-.5Zm-1.894,6.768h1.206l-.6-3.6h-.013Z" transform="translate(-944.659 998.751)" fill="#fff"/>
        <path id="Path_6963" data-name="Path 6963" d="M987.132-985.184l-1.709,8.98h-1.643l-1.708-8.98h1.536l1.033,6.264h.014l1.059-6.264Z" transform="translate(-945.259 998.532)" fill="#fff"/>
        <path id="Path_6964" data-name="Path 6964" d="M988.358-985.184h3.6v1.232h-2.092v2.569h1.5v1.218h-1.5v2.729h2.092v1.232h-3.6Z" transform="translate(-945.983 998.532)" fill="#fff"/>
        <path id="Path_6965" data-name="Path 6965" d="M993.207-985.184h1.51v8.98h-1.51Z" transform="translate(-946.542 998.532)" fill="#fff"/>
        <path id="Path_6966" data-name="Path 6966" d="M995.676-978.152v-1.205h1.4v1.233c0,.5.226.795.741.795.477,0,.688-.319.688-.795v-.345a1.623,1.623,0,0,0-.674-1.271l-.887-.887a3.025,3.025,0,0,1-1.258-2.4v-.3a1.873,1.873,0,0,1,2.118-1.974c1.51,0,2.106.742,2.106,2.039v.729h-1.377v-.782c0-.516-.239-.768-.716-.768a.663.663,0,0,0-.715.742v.185c0,.5.279.8.715,1.218l.967.954a3.015,3.015,0,0,1,1.219,2.331v.438a1.945,1.945,0,0,1-2.2,2.1A1.87,1.87,0,0,1,995.676-978.152Z" transform="translate(-946.826 998.546)" fill="#fff"/>
      </g>
    </g>
    <g id="Group_7302" data-name="Group 7302" transform="translate(1015.129 -1034.526)">
      <rect id="Rectangle_3362" data-name="Rectangle 3362" width="142.384" height="142.391" transform="translate(0 0)" fill="#00689d"/>
      <path id="Path_6967" data-name="Path 6967" d="M1090.107-994.9v5.038h.043l3.387-3.514h.043V-971.4h4.827v-28.709h-3.852Z" transform="translate(-1079.152 1012.055)" fill="#fff"/>
      <path id="Path_6968" data-name="Path 6968" d="M1116.742-978.346v-4.236c0-4.7-1.863-7.072-5.334-7.072a4.124,4.124,0,0,0-3.98,2.33h-.042v-6.182c0-1.737.548-2.965,2.286-2.965s2.243,1.017,2.243,2.793v1.909h4.4V-993.3c0-4.235-1.4-7.2-6.733-7.2-5.081,0-6.986,3.26-6.986,7.749v13.973c0,4.445,1.949,7.664,7.03,7.664,5.122,0,7.113-2.794,7.113-7.239m-4.785.422c0,1.821-.678,2.879-2.328,2.879-1.609,0-2.243-1.1-2.243-2.879v-5.25c.083-1.609.76-2.626,2.286-2.626,1.648,0,2.285,1.017,2.285,2.88Z" transform="translate(-1080.591 1012.099)" fill="#fff"/>
      <g id="Group_7300" data-name="Group 7300" transform="translate(31.28 47.932)">
        <path id="Path_6969" data-name="Path 6969" d="M1190.193-958.739s-1.641,2.179-1.164,4.3,2.9,3.388,2.9,3.388,1.641-2.179,1.163-4.3-2.9-3.387-2.9-3.387" transform="translate(-1121.817 959.357)" fill="#fff"/>
        <path id="Path_6970" data-name="Path 6970" d="M1186.944-945.673s1.642-2.181,1.164-4.305-2.9-3.384-2.9-3.384-1.643,2.177-1.166,4.3,2.9,3.388,2.9,3.388" transform="translate(-1121.243 958.738)" fill="#fff"/>
        <path id="Path_6971" data-name="Path 6971" d="M1194.956-947.6a5.4,5.4,0,0,0,3.707,1.572,5.631,5.631,0,0,0,3.437-2.206,5.394,5.394,0,0,0-3.706-1.573,5.641,5.641,0,0,0-3.437,2.207" transform="translate(-1122.51 958.33)" fill="#fff"/>
        <path id="Path_6972" data-name="Path 6972" d="M1197.984-958.044c-1.605,1.629-1.378,4.513-1.378,4.513s2.83.245,4.439-1.382,1.379-4.512,1.379-4.512-2.832-.245-4.44,1.381" transform="translate(-1122.699 959.438)" fill="#fff"/>
        <path id="Path_6973" data-name="Path 6973" d="M1193.731-940.479a5.636,5.636,0,0,0,3.815-1.456,5.4,5.4,0,0,0-3.3-2.3,5.645,5.645,0,0,0-3.818,1.457,5.4,5.4,0,0,0,3.306,2.3" transform="translate(-1121.988 957.689)" fill="#fff"/>
        <path id="Path_6974" data-name="Path 6974" d="M1193.962-901.374h-14.7a2.078,2.078,0,0,0-2.083,2.078,2.082,2.082,0,0,0,2.083,2.081h14.7a2.08,2.08,0,0,0,2.078-2.081,2.076,2.076,0,0,0-2.078-2.078" transform="translate(-1120.462 952.749)" fill="#fff"/>
        <path id="Path_6975" data-name="Path 6975" d="M1193.962-875.468h-14.7a2.08,2.08,0,0,0-2.083,2.078,2.082,2.082,0,0,0,2.083,2.08h14.7a2.08,2.08,0,0,0,2.078-2.08,2.077,2.077,0,0,0-2.078-2.078" transform="translate(-1120.462 949.765)" fill="#fff"/>
        <path id="Path_6976" data-name="Path 6976" d="M1121.3-907.114a9.165,9.165,0,0,0-1.02-.263s.376.117,1.02.263" transform="translate(-1113.907 953.441)" fill="#fff"/>
        <path id="Path_6977" data-name="Path 6977" d="M1186.792-901.6H1173.17a1.185,1.185,0,0,0-1.184,1.183v4.125l-8.892.978-12.99-.3v-7.935a35.624,35.624,0,0,0,5.168-1.049c12.505-3.529,15.232-13.867,14.96-21.02-.273-7.285,2.059-10.114,5.409-11.371a15.045,15.045,0,0,1,2.777-.736,22.306,22.306,0,0,0,1.2,6.348q.446-.025.886-.073a21.1,21.1,0,0,1-1.225-6.4,15.612,15.612,0,0,1,2.966-.089,18.873,18.873,0,0,1-2.823-2.009c.562-3.45,2.616-5.568,4.735-7.734a25.438,25.438,0,0,0,3.313-3.891l-.738-.476a24.607,24.607,0,0,1-3.206,3.752c-2.065,2.113-4.149,4.271-4.855,7.7a28.089,28.089,0,0,1-2.14-2.155c-3.083-3.458-7.054-.918-12.714,4.352s-12.785,5.449-19.741-1.668c-9.176-9.394-17.181-9.341-22.67-8.807,3.755,1.6,5.069,5.108,6.97,14.027,1.992,9.359,7.016,13.592,13.887,14.177-3.822,1.35-4.012,3.507-9.132,7.045-4,2.759-9.626,1.886-11.907,1.369,4.187,1.305,9.147,5.7,13.584,7.226a32.869,32.869,0,0,0,8.1,1.66v7.6l-23.273-.531v5.3l43.46-.995,8.892.979v4.122a1.187,1.187,0,0,0,1.184,1.186h13.622a1.187,1.187,0,0,0,1.185-1.186v-13.514A1.185,1.185,0,0,0,1186.792-901.6Zm-41.743-1.663c.968.017,1.94-.012,2.914-.078v7.679l-2.914-.066Z" transform="translate(-1113.833 958.587)" fill="#fff"/>
        <path id="Path_6978" data-name="Path 6978" d="M1117.607-884.793a1.9,1.9,0,0,1-1.74,2.024h-1.048a1.9,1.9,0,0,1-1.741-2.024v-3.663a1.9,1.9,0,0,1,1.741-2.024h1.048a1.9,1.9,0,0,1,1.74,2.024Z" transform="translate(-1113.078 951.494)" fill="#fff"/>
      </g>
      <g id="Group_7301" data-name="Group 7301" transform="translate(45.549 11.757)">
        <path id="Path_6979" data-name="Path 6979" d="M1129.2-1000.134h3.514c2.391,0,3.265,1.186,3.265,3.16V-994c0,1.976-.874,3.182-3.265,3.182h-1.143v4.781h-2.37Zm2.37,1.934v5.551h.872a1.019,1.019,0,0,0,1.165-1.164v-3.244c0-.769-.354-1.143-1.165-1.143Z" transform="translate(-1129.205 1000.3)" fill="#fff"/>
        <path id="Path_6980" data-name="Path 6980" d="M1137.945-986.037l2.661-14.1h2.7l2.682,14.1h-2.433l-.436-2.578h-2.516l-.415,2.578Zm2.973-4.47h1.892l-.936-5.656h-.02Z" transform="translate(-1130.212 1000.3)" fill="#fff"/>
        <path id="Path_6981" data-name="Path 6981" d="M1150.546-987.971h3.6v1.933h-6.071v-1.933l3.721-10.229h-3.348v-1.934h5.843v1.934Z" transform="translate(-1131.378 1000.3)" fill="#fff"/>
        <path id="Path_6982" data-name="Path 6982" d="M1159.077-1000.134h5.656v1.934h-3.285v4.033h2.349v1.913h-2.349v4.283h3.285v1.933h-5.656Z" transform="translate(-1132.646 1000.3)" fill="#fff"/>
        <path id="Path_6983" data-name="Path 6983" d="M1175.76-1000.134v10.9c0,2.037-.894,3.368-3.263,3.368-2.454,0-3.12-1.351-3.12-3.139v-2.807h2.246v2.848c0,.707.25,1.123.874,1.123.644,0,.893-.416.893-1.144v-11.144Z" transform="translate(-1133.833 1000.3)" fill="#fff"/>
        <path id="Path_6984" data-name="Path 6984" d="M1185.094-1000.134v10.666c0,2.183-.936,3.6-3.348,3.6-2.494,0-3.534-1.414-3.534-3.6v-10.666h2.37v10.9c0,.832.333,1.393,1.164,1.393s1.165-.561,1.165-1.393v-10.9Z" transform="translate(-1134.85 1000.3)" fill="#fff"/>
        <path id="Path_6985" data-name="Path 6985" d="M1187.492-989.094v-1.893h2.205v1.934c0,.79.353,1.248,1.163,1.248.75,0,1.082-.5,1.082-1.248v-.541a2.545,2.545,0,0,0-1.061-2l-1.394-1.394c-1.351-1.331-1.975-2.141-1.975-3.763v-.478c0-1.747,1.019-3.1,3.327-3.1,2.369,0,3.306,1.164,3.306,3.2v1.143h-2.162V-997.2c0-.81-.374-1.206-1.124-1.206a1.04,1.04,0,0,0-1.122,1.164v.291c0,.79.436,1.248,1.122,1.913l1.518,1.5c1.289,1.31,1.913,2.1,1.913,3.66v.686c0,1.934-1.041,3.306-3.452,3.306S1187.492-987.244,1187.492-989.094Z" transform="translate(-1135.919 1000.322)" fill="#fff"/>
        <path id="Path_6986" data-name="Path 6986" d="M1196.4-1000.134h6.3v1.934h-1.955v12.162h-2.391V-998.2H1196.4Z" transform="translate(-1136.945 1000.3)" fill="#fff"/>
        <path id="Path_6987" data-name="Path 6987" d="M1204.879-1000.134h2.37v14.1h-2.37Z" transform="translate(-1137.922 1000.3)" fill="#fff"/>
        <path id="Path_6988" data-name="Path 6988" d="M1211.741-984.624c.666-.021.769-.166.769-.333,0-.146-.125-.229-.333-.229h-.1v-.769c-2.017-.25-2.848-1.768-2.848-3.743v-6.819c0-2.2,1.04-3.806,3.534-3.806,2.62,0,3.347,1.456,3.347,3.535v1.663h-2.161v-1.851c0-.872-.291-1.371-1.144-1.371s-1.205.6-1.205,1.455v7.568c0,.853.353,1.456,1.205,1.456s1.144-.541,1.144-1.372v-2.6h2.161v2.432c0,1.976-.789,3.43-3.139,3.514v.188c.561.083.873.291.873.749,0,.644-.6,1-2.1,1Z" transform="translate(-1138.423 1000.322)" fill="#fff"/>
        <path id="Path_6989" data-name="Path 6989" d="M1218.153-986.037l2.661-14.1h2.7l2.682,14.1h-2.433l-.436-2.578h-2.516l-.415,2.578Zm2.973-4.47h1.893l-.936-5.656h-.02Z" transform="translate(-1139.452 1000.3)" fill="#fff"/>
      </g>
    </g>
    <g id="Group_7304" data-name="Group 7304" transform="translate(1175.393 -1034.526)">
      <rect id="Rectangle_3363" data-name="Rectangle 3363" width="142.384" height="142.392" transform="translate(0 0)" fill="#19486a"/>
      <path id="Path_6990" data-name="Path 6990" d="M1281.854-1000.123v28.708h-4.827v-21.976h-.043l-3.387,3.514h-.041v-5.038l4.447-5.208Z" transform="translate(-1260.549 1012.057)" fill="#fff"/>
      <path id="Path_6991" data-name="Path 6991" d="M1285.423-1000.123h12.111v4.446l-6.31,24.262h-4.787l6.437-24.771h-7.452Z" transform="translate(-1261.916 1012.057)" fill="#fff"/>
      <path id="Path_6992" data-name="Path 6992" d="M1371.012-920.033a18.567,18.567,0,0,0-17.863-18.53,18.576,18.576,0,0,0-17.485-12.37,18.58,18.58,0,0,0-17.485,12.37,18.565,18.565,0,0,0-17.861,18.53,18.516,18.516,0,0,0,7.156,14.619,18.523,18.523,0,0,0-.733,5.148,18.567,18.567,0,0,0,18.546,18.543,18.442,18.442,0,0,0,10.466-3.247,18.444,18.444,0,0,0,10.288,3.123,18.566,18.566,0,0,0,18.546-18.542,18.508,18.508,0,0,0-.7-5.046,18.522,18.522,0,0,0,7.127-14.6m-20.537-12.355a14.819,14.819,0,0,1-12.627,14.631,14.832,14.832,0,0,1-.192-2.276,14.819,14.819,0,0,1,12.625-14.632,14.725,14.725,0,0,1,.194,2.277m-14.743,42.608a14.749,14.749,0,0,1-4.5-10.609,14.773,14.773,0,0,1,4.366-10.489,14.762,14.762,0,0,1,4.5,10.612,14.761,14.761,0,0,1-4.365,10.486m-14.686-44.885a14.821,14.821,0,0,1,12.628,14.633,14.741,14.741,0,0,1-.195,2.276,14.819,14.819,0,0,1-12.627-14.631,14.73,14.73,0,0,1,.194-2.277m11.043,21.257a14.813,14.813,0,0,1-13.228,8.186,14.707,14.707,0,0,1-6.8-1.671,14.815,14.815,0,0,1,13.229-8.185,14.692,14.692,0,0,1,6.8,1.67m7.1-.1a14.7,14.7,0,0,1,6.852-1.693,14.818,14.818,0,0,1,13.277,8.285,14.71,14.71,0,0,1-6.852,1.694,14.816,14.816,0,0,1-13.277-8.286m-3.527-33.691a14.829,14.829,0,0,1,13.577,8.906,18.606,18.606,0,0,0-13.577,10.421,18.6,18.6,0,0,0-13.576-10.421,14.828,14.828,0,0,1,13.576-8.906m-31.612,27.166a14.831,14.831,0,0,1,13.223-14.726,18.878,18.878,0,0,0-.156,2.37,18.505,18.505,0,0,0,6.059,13.7,18.585,18.585,0,0,0-14.219,9.636,14.76,14.76,0,0,1-4.907-10.98m6.425,19.767a14.688,14.688,0,0,1,.324-3.069,18.432,18.432,0,0,0,8.062,1.847,18.42,18.42,0,0,0,8.954-2.311,18.6,18.6,0,0,0-.32,3.411,18.481,18.481,0,0,0,5.242,12.9,14.7,14.7,0,0,1-7.451,2.033,14.826,14.826,0,0,1-14.812-14.809m50.379-.123a14.829,14.829,0,0,1-14.812,14.809,14.69,14.69,0,0,1-7.3-1.943,18.48,18.48,0,0,0,5.093-12.743,18.621,18.621,0,0,0-.345-3.549,18.424,18.424,0,0,0,8.981,2.326,18.4,18.4,0,0,0,8.086-1.861,14.665,14.665,0,0,1,.3,2.961m-12.59-18.408a18.5,18.5,0,0,0,5.945-13.591,18.9,18.9,0,0,0-.156-2.37,14.833,14.833,0,0,1,13.225,14.726,14.755,14.755,0,0,1-4.866,10.942,18.582,18.582,0,0,0-14.148-9.707" transform="translate(-1263.632 1006.39)" fill="#fff"/>
      <g id="Group_7303" data-name="Group 7303" transform="translate(45.457 11.785)">
        <path id="Path_6993" data-name="Path 6993" d="M1310.231-1000.136h2.889c1.965,0,2.683.974,2.683,2.6v2.445c0,1.624-.718,2.615-2.683,2.615h-.94v3.931h-1.949Zm1.949,1.589v4.564h.717a.837.837,0,0,0,.957-.956v-2.667c0-.633-.29-.941-.957-.941Z" transform="translate(-1310.231 1000.273)" fill="#fff"/>
        <path id="Path_6994" data-name="Path 6994" d="M1316.642-988.548l2.187-11.588h2.223l2.205,11.588h-2l-.358-2.119h-2.069l-.341,2.119Zm2.444-3.675h1.555l-.769-4.65h-.018Z" transform="translate(-1310.969 1000.273)" fill="#fff"/>
        <path id="Path_6995" data-name="Path 6995" d="M1327.068-993.864v5.316h-1.948v-11.588h2.837c1.966,0,2.684.974,2.684,2.6v1.487c0,1.248-.444,1.982-1.555,2.239l1.863,5.265H1328.9Zm0-4.683v3.607h.649a.844.844,0,0,0,.957-.957v-1.709c0-.633-.29-.941-.957-.941Z" transform="translate(-1311.946 1000.273)" fill="#fff"/>
        <path id="Path_6996" data-name="Path 6996" d="M1332.652-991.556v-5.607c0-1.812.855-3.128,2.906-3.128,2.154,0,2.752,1.2,2.752,2.906v1.368h-1.778v-1.521c0-.718-.239-1.128-.94-1.128s-.992.5-.992,1.2v6.221c0,.7.291,1.2.992,1.2s.94-.444.94-1.127v-2.137h1.778v2c0,1.658-.684,2.888-2.752,2.888C1333.507-988.429,1332.652-989.762,1332.652-991.556Z" transform="translate(-1312.814 1000.291)" fill="#fff"/>
        <path id="Path_6997" data-name="Path 6997" d="M1340.338-1000.136h4.649v1.589h-2.7v3.316h1.932v1.572h-1.932v3.521h2.7v1.589h-4.649Z" transform="translate(-1313.699 1000.273)" fill="#fff"/>
        <path id="Path_6998" data-name="Path 6998" d="M1348.813-993.864v5.316h-1.948v-11.588h2.837c1.966,0,2.684.974,2.684,2.6v1.487c0,1.248-.443,1.982-1.554,2.239l1.862,5.265h-2.051Zm0-4.683v3.607h.65a.844.844,0,0,0,.957-.957v-1.709c0-.633-.29-.941-.957-.941Z" transform="translate(-1314.451 1000.273)" fill="#fff"/>
        <path id="Path_6999" data-name="Path 6999" d="M1354.4-1000.136h1.949v11.588H1354.4Z" transform="translate(-1315.319 1000.273)" fill="#fff"/>
        <path id="Path_7000" data-name="Path 7000" d="M1357.62-988.548l2.188-11.588h2.222l2.206,11.588h-2l-.358-2.119h-2.069l-.342,2.119Zm2.445-3.675h1.555l-.77-4.65h-.017Z" transform="translate(-1315.69 1000.273)" fill="#fff"/>
        <path id="Path_7001" data-name="Path 7001" d="M1365.79-991.061v-1.555h1.812v1.589c0,.649.29,1.026.956,1.026.616,0,.889-.411.889-1.026v-.444a2.094,2.094,0,0,0-.872-1.641l-1.144-1.144c-1.111-1.094-1.624-1.761-1.624-3.094v-.393a2.417,2.417,0,0,1,2.734-2.547c1.949,0,2.718.957,2.718,2.632v.941h-1.778v-1.009c0-.666-.308-.991-.924-.991a.854.854,0,0,0-.923.956v.24c0,.649.359,1.025.923,1.572l1.248,1.231c1.06,1.077,1.572,1.726,1.572,3.007v.565a2.509,2.509,0,0,1-2.837,2.717A2.413,2.413,0,0,1,1365.79-991.061Z" transform="translate(-1316.631 1000.291)" fill="#fff"/>
        <path id="Path_7002" data-name="Path 7002" d="M1310.231-980.824h2.889c1.965,0,2.683.974,2.683,2.6v2.444c0,1.624-.718,2.615-2.683,2.615h-.94v3.931h-1.949Zm1.949,1.589v4.564h.717a.837.837,0,0,0,.957-.957V-978.3c0-.632-.29-.94-.957-.94Z" transform="translate(-1310.231 998.048)" fill="#fff"/>
        <path id="Path_7003" data-name="Path 7003" d="M1317.763-980.824h4.649v1.589h-2.7v3.315h1.931v1.573h-1.931v3.521h2.7v1.59h-4.649Z" transform="translate(-1311.099 998.048)" fill="#fff"/>
        <path id="Path_7004" data-name="Path 7004" d="M1324.29-980.824h1.948v10h2.324v1.59h-4.273Z" transform="translate(-1311.85 998.048)" fill="#fff"/>
        <path id="Path_7005" data-name="Path 7005" d="M1329.87-969.236l2.188-11.588h2.222l2.206,11.588h-2l-.358-2.12h-2.069l-.342,2.12Zm2.445-3.675h1.555l-.77-4.649h-.017Z" transform="translate(-1312.493 998.048)" fill="#fff"/>
        <path id="Path_7006" data-name="Path 7006" d="M1338.039-971.75V-973.3h1.812v1.589c0,.649.29,1.025.957,1.025.616,0,.889-.411.889-1.025v-.445a2.094,2.094,0,0,0-.872-1.64l-1.145-1.145c-1.112-1.094-1.624-1.761-1.624-3.094v-.393a2.417,2.417,0,0,1,2.734-2.546c1.949,0,2.718.957,2.718,2.632v.94h-1.778v-1.009c0-.666-.308-.991-.924-.991a.855.855,0,0,0-.923.957v.239c0,.649.359,1.026.923,1.572l1.248,1.232c1.06,1.076,1.572,1.725,1.572,3.008v.565a2.509,2.509,0,0,1-2.837,2.717A2.413,2.413,0,0,1,1338.039-971.75Z" transform="translate(-1313.434 998.066)" fill="#fff"/>
        <path id="Path_7007" data-name="Path 7007" d="M1353.1-976.757h-.052l-1.316,7.521h-.906l-1.452-7.521h-.035v7.521h-1.607v-11.588h2.273l1.264,6.529h.018l1.128-6.529h2.462v11.588H1353.1Z" transform="translate(-1314.551 998.048)" fill="#fff"/>
        <path id="Path_7008" data-name="Path 7008" d="M1357.157-980.824h4.649v1.589h-2.7v3.315h1.932v1.573h-1.932v3.521h2.7v1.59h-4.649Z" transform="translate(-1315.637 998.048)" fill="#fff"/>
        <path id="Path_7009" data-name="Path 7009" d="M1363.433-980.824h5.179v1.589h-1.606v10h-1.966v-10h-1.607Z" transform="translate(-1316.36 998.048)" fill="#fff"/>
        <path id="Path_7010" data-name="Path 7010" d="M1369.091-969.236l2.187-11.588h2.223l2.2,11.588h-2l-.359-2.12h-2.069l-.341,2.12Zm2.445-3.675h1.555l-.769-4.649h-.017Z" transform="translate(-1317.011 998.048)" fill="#fff"/>
        <path id="Path_7011" data-name="Path 7011" d="M1377.261-971.75V-973.3h1.812v1.589c0,.649.29,1.025.957,1.025.616,0,.889-.411.889-1.025v-.445a2.093,2.093,0,0,0-.872-1.64l-1.145-1.145c-1.111-1.094-1.624-1.761-1.624-3.094v-.393a2.417,2.417,0,0,1,2.735-2.546c1.948,0,2.717.957,2.717,2.632v.94h-1.777v-1.009c0-.666-.308-.991-.924-.991a.855.855,0,0,0-.923.957v.239c0,.649.359,1.026.923,1.572l1.248,1.232c1.06,1.076,1.572,1.725,1.572,3.008v.565a2.509,2.509,0,0,1-2.837,2.717A2.413,2.413,0,0,1,1377.261-971.75Z" transform="translate(-1317.953 998.066)" fill="#fff"/>
      </g>
    </g>
    <g id="Group_7306" data-name="Group 7306" transform="translate(534.337 -1034.524)">
      <rect id="Rectangle_3364" data-name="Rectangle 3364" width="142.384" height="142.388" transform="translate(0 0)" fill="#fd6925"/>
      <path id="Path_7012" data-name="Path 7012" d="M563.591-992.954c0-4.445-1.948-7.661-7.027-7.661-5.122,0-7.109,2.792-7.109,7.236v4.233c0,4.7,1.861,7.068,5.333,7.068a4.129,4.129,0,0,0,3.978-2.327h.041v6.178c0,1.735-.677,2.963-2.411,2.963s-2.37-1.016-2.37-2.794v-1.9h-4.4v1.525c0,4.231,1.525,7.193,6.858,7.193,5.076,0,7.11-3.259,7.11-7.746Zm-4.785,4.4c-.084,1.608-.761,2.623-2.285,2.623-1.648,0-2.285-1.016-2.285-2.879V-993.8c0-1.82.676-2.877,2.328-2.877,1.609,0,2.242,1.1,2.242,2.877Z" transform="translate(-536.078 1012.111)" fill="#fff"/>
      <g id="Group_7305" data-name="Group 7305" transform="translate(40.595 9.987)">
        <path id="Path_7013" data-name="Path 7013" d="M580.217-1000.141h1.963v11.68h-1.963Z" transform="translate(-580.217 1002.07)" fill="#fff"/>
        <path id="Path_7014" data-name="Path 7014" d="M585.629-995.8v7.339h-1.654v-11.68H585.9l2.121,6.7v-6.7h1.636v11.68h-1.723Z" transform="translate(-580.65 1002.07)" fill="#fff"/>
        <path id="Path_7015" data-name="Path 7015" d="M591.918-991.493v-5.65c0-1.826.9-3.153,2.964-3.153,2.084,0,2.981,1.326,2.981,3.153v5.65c0,1.808-.9,3.152-2.981,3.152C592.815-988.341,591.918-989.685,591.918-991.493Zm3.98.31v-6.271c0-.706-.31-1.206-1.016-1.206-.69,0-1,.5-1,1.206v6.271c0,.706.309,1.206,1,1.206C595.588-989.977,595.9-990.477,595.9-991.183Z" transform="translate(-581.565 1002.088)" fill="#fff"/>
        <path id="Path_7016" data-name="Path 7016" d="M606.016-1000.141l-2.223,11.68h-2.138l-2.222-11.68h2l1.343,8.149h.018l1.378-8.149Z" transform="translate(-582.431 1002.07)" fill="#fff"/>
        <path id="Path_7017" data-name="Path 7017" d="M606.523-988.461l2.206-11.68h2.238l2.223,11.68h-2.016l-.361-2.136h-2.084l-.346,2.136Zm2.463-3.7h1.567l-.774-4.686h-.017Z" transform="translate(-583.247 1002.07)" fill="#fff"/>
        <path id="Path_7018" data-name="Path 7018" d="M617.018-987.29c.551-.017.638-.137.638-.275,0-.12-.1-.189-.275-.189h-.086v-.638c-1.671-.206-2.361-1.464-2.361-3.1v-5.65c0-1.826.86-3.153,2.929-3.153,2.171,0,2.774,1.205,2.774,2.928v1.379h-1.792v-1.533c0-.724-.242-1.137-.948-1.137s-1,.5-1,1.206v6.271c0,.706.294,1.206,1,1.206s.948-.448.948-1.137v-2.154h1.792v2.016c0,1.637-.655,2.843-2.6,2.912v.155c.465.069.724.242.724.62,0,.534-.5.826-1.74.826Z" transform="translate(-584.216 1002.088)" fill="#fff"/>
        <path id="Path_7019" data-name="Path 7019" d="M622.3-988.712l2.2-11.68h2.238l2.223,11.68h-2.015l-.361-2.136H624.5l-.345,2.136Zm1.532-12.146c.034-.81.344-1.464,1.207-1.464.5,0,.912.293,1.17.293a.232.232,0,0,0,.242-.259h.964c-.035.81-.343,1.465-1.206,1.465-.5,0-.912-.294-1.17-.294a.232.232,0,0,0-.242.258Zm.93,8.442h1.568l-.774-4.686h-.018Z" transform="translate(-585.064 1002.321)" fill="#fff"/>
        <path id="Path_7020" data-name="Path 7020" d="M630.705-991.493v-5.65c0-1.826.9-3.153,2.964-3.153,2.084,0,2.981,1.326,2.981,3.153v5.65c0,1.808-.9,3.152-2.981,3.152C631.6-988.341,630.705-989.685,630.705-991.493Zm3.98.31v-6.271c0-.706-.309-1.206-1.016-1.206-.69,0-1,.5-1,1.206v6.271c0,.706.309,1.206,1,1.206C634.376-989.977,634.685-990.477,634.685-991.183Z" transform="translate(-586.033 1002.088)" fill="#fff"/>
        <path id="Path_7021" data-name="Path 7021" d="M641.238-1000.141h4.687v1.6H643.2v3.342h1.946v1.585H643.2v3.549h2.722v1.6h-4.687Z" transform="translate(-587.246 1002.07)" fill="#fff"/>
        <path id="Path_7022" data-name="Path 7022" d="M580.217-980.669h1.963v11.68h-1.963Z" transform="translate(-580.217 999.827)" fill="#fff"/>
        <path id="Path_7023" data-name="Path 7023" d="M585.629-976.328v7.339h-1.654v-11.68H585.9l2.121,6.7v-6.7h1.636v11.68h-1.723Z" transform="translate(-580.65 999.827)" fill="#fff"/>
        <path id="Path_7024" data-name="Path 7024" d="M591.918-980.669h4.6v1.6h-2.635v3.342h1.962v1.585h-1.962v5.151h-1.965Z" transform="translate(-581.565 999.827)" fill="#fff"/>
        <path id="Path_7025" data-name="Path 7025" d="M600.308-974.346v5.357h-1.964v-11.68h2.86c1.982,0,2.7.982,2.7,2.618v1.5c0,1.258-.448,2-1.568,2.257l1.878,5.306h-2.067Zm0-4.72v3.635h.656a.851.851,0,0,0,.964-.964v-1.724c0-.637-.294-.947-.964-.947Z" transform="translate(-582.305 999.827)" fill="#fff"/>
        <path id="Path_7026" data-name="Path 7026" d="M605.744-968.989l2.2-11.68h2.239l2.222,11.68h-2.015l-.361-2.136h-2.085l-.345,2.136Zm2.462-3.7h1.568L609-977.378h-.018Z" transform="translate(-583.158 999.827)" fill="#fff"/>
        <path id="Path_7027" data-name="Path 7027" d="M614.447-980.669h4.685v1.6H616.41v3.342h1.947v1.585H616.41v3.549h2.722v1.6h-4.685Z" transform="translate(-584.16 999.827)" fill="#fff"/>
        <path id="Path_7028" data-name="Path 7028" d="M620.971-971.522v-1.568H622.8v1.6c0,.655.294,1.033.966,1.033.618,0,.9-.413.9-1.033v-.448a2.117,2.117,0,0,0-.878-1.655l-1.155-1.154c-1.12-1.1-1.637-1.775-1.637-3.118v-.4a2.436,2.436,0,0,1,2.757-2.567c1.962,0,2.738.965,2.738,2.653v.949h-1.792v-1.017c0-.672-.312-1-.93-1a.863.863,0,0,0-.932.965v.242c0,.654.363,1.033.932,1.585l1.256,1.24c1.068,1.086,1.585,1.74,1.585,3.032v.569a2.528,2.528,0,0,1-2.858,2.739A2.432,2.432,0,0,1,620.971-971.522Z" transform="translate(-584.912 999.845)" fill="#fff"/>
        <path id="Path_7029" data-name="Path 7029" d="M628.213-980.669h5.22v1.6h-1.619v10.078h-1.982v-10.078h-1.619Z" transform="translate(-585.746 999.827)" fill="#fff"/>
        <path id="Path_7030" data-name="Path 7030" d="M637.361-974.346v5.357H635.4v-11.68h2.861c1.98,0,2.7.982,2.7,2.618v1.5c0,1.258-.448,2-1.568,2.257l1.877,5.306h-2.067Zm0-4.72v3.635h.655a.85.85,0,0,0,.964-.964v-1.724c0-.637-.292-.947-.964-.947Z" transform="translate(-586.574 999.827)" fill="#fff"/>
        <path id="Path_7031" data-name="Path 7031" d="M648.85-980.669v8.837c0,1.809-.774,2.98-2.774,2.98-2.067,0-2.929-1.171-2.929-2.98v-8.837h1.964v9.027c0,.689.275,1.155.964,1.155s.964-.465.964-1.155v-9.027Z" transform="translate(-587.466 999.827)" fill="#fff"/>
        <path id="Path_7032" data-name="Path 7032" d="M650.857-980.669h5.221v1.6h-1.619v10.078h-1.982v-10.078h-1.62Z" transform="translate(-588.354 999.827)" fill="#fff"/>
        <path id="Path_7033" data-name="Path 7033" d="M663.746-980.669v8.837c0,1.809-.776,2.98-2.773,2.98-2.069,0-2.93-1.171-2.93-2.98v-8.837h1.963v9.027c0,.689.276,1.155.966,1.155s.964-.465.964-1.155v-9.027Z" transform="translate(-589.182 999.827)" fill="#fff"/>
        <path id="Path_7034" data-name="Path 7034" d="M667.971-974.346v5.357h-1.965v-11.68h2.86c1.983,0,2.7.982,2.7,2.618v1.5c0,1.258-.448,2-1.568,2.257l1.879,5.306h-2.067Zm0-4.72v3.635h.655a.851.851,0,0,0,.964-.964v-1.724c0-.637-.294-.947-.964-.947Z" transform="translate(-590.1 999.827)" fill="#fff"/>
        <path id="Path_7035" data-name="Path 7035" d="M673.406-968.989l2.2-11.68h2.24l2.222,11.68h-2.015l-.363-2.136h-2.085l-.343,2.136Zm2.464-3.7h1.568l-.776-4.686h-.018Z" transform="translate(-590.952 999.827)" fill="#fff"/>
      </g>
      <path id="Path_7036" data-name="Path 7036" d="M646.568-913.115l-16.926-9.769v-19.543a1.154,1.154,0,0,0-.577-1l-17.5-10.1a1.155,1.155,0,0,0-1.155,0l-17.5,10.1a1.154,1.154,0,0,0-.577,1v19.543l-16.925,9.769a1.154,1.154,0,0,0-.577,1V-891.9a1.154,1.154,0,0,0,.577,1l17.5,10.1a1.151,1.151,0,0,0,.578.155,1.149,1.149,0,0,0,.577-.155l16.924-9.768L627.91-880.8a1.15,1.15,0,0,0,.577.155,1.153,1.153,0,0,0,.578-.155l17.5-10.1a1.153,1.153,0,0,0,.578-1v-20.212A1.152,1.152,0,0,0,646.568-913.115ZM609.834-893.9,595.8-902.009l14.038-8.107Zm16.344-28.314-14.036,8.1v-16.208Zm-16.344,8.1-14.037-8.1,14.037-8.106Zm3.464,2,15.189-8.768,15.195,8.768-15.195,8.773Zm14.036-12.1-14.036-8.1,14.036-8.1Zm-18.655-8.1-14.037,8.106v-16.21ZM592.332-883.8l-15.192-8.769v-17.545l15.192,8.774Zm2.308,0v-16.208l14.037,8.106Zm50.2-8.769L629.642-883.8v-17.54l15.195-8.774Z" transform="translate(-539.002 1006.705)" fill="#fff"/>
    </g>
  </g>
</svg>
