<svg xmlns="http://www.w3.org/2000/svg" width="557.183" height="557.064" viewBox="0 0 557.183 557.064">
  <g id="Group_7308" data-name="Group 7308" transform="translate(-930.075 -375.325)">
    <path id="Path_7037" data-name="Path 7037" d="M1044.142,508.9a158.513,158.513,0,0,1,24.97-32.122l-81.876-89.79a280.212,280.212,0,0,0-51.984,67.665Z" transform="translate(29.07 65.491)" fill="#56c22b"/>
    <path id="Path_7038" data-name="Path 7038" d="M982.047,492.2a156.816,156.816,0,0,1,34.338,21.509l82.1-89.644a279.41,279.41,0,0,0-72.766-45.4Z" transform="translate(291.889 18.758)" fill="#dda63a"/>
    <path id="Path_7039" data-name="Path 7039" d="M1102.85,399.9,994.019,454.158a155.808,155.808,0,0,1,10.9,38.454l121.058-11.433A275.586,275.586,0,0,0,1102.85,399.9" transform="translate(359.127 138.048)" fill="#c5192d"/>
    <path id="Path_7040" data-name="Path 7040" d="M1013.333,509.079l108.818-54.247a279.522,279.522,0,0,0-50.853-67.506L989.19,476.95a157.458,157.458,0,0,1,24.143,32.128" transform="translate(332.006 67.401)" fill="#4c9f38"/>
    <path id="Path_7041" data-name="Path 7041" d="M1051.583,432.833c0-2.441.08-4.889.192-7.324L930.69,414.671c-.384,6-.615,12.055-.615,18.162a279.236,279.236,0,0,0,8.244,67.354l116.949-33.544a157.28,157.28,0,0,1-3.685-33.809" transform="translate(0 220.978)" fill="#3f7e44"/>
    <path id="Path_7042" data-name="Path 7042" d="M1015.608,432.459a159.11,159.11,0,0,1-29.535,27.781l63.933,103.512a281.022,281.022,0,0,0,62.61-58.144Z" transform="translate(314.5 320.88)" fill="#fcc30b"/>
    <path id="Path_7043" data-name="Path 7043" d="M998.977,431.928a155.393,155.393,0,0,1-3.6,33.412l116.936,33.6a277.715,277.715,0,0,0,8.185-67.01c0-5.73-.2-11.42-.556-17.1l-121.071,11.44c.059,1.892.105,3.765.105,5.657" transform="translate(366.76 221.882)" fill="#ff3a21"/>
    <path id="Path_7044" data-name="Path 7044" d="M1036.272,432.81,939.5,506.363a280.959,280.959,0,0,0,63.192,57.25l63.933-103.406a158.507,158.507,0,0,1-30.349-27.4" transform="translate(52.911 322.852)" fill="#ff9f24"/>
    <path id="Path_7045" data-name="Path 7045" d="M1051.61,492.791a155.15,155.15,0,0,1,11.6-39.01l-108.785-54.2a276.29,276.29,0,0,0-24,82.34Z" transform="translate(1.938 136.228)" fill="#0a97d9"/>
    <path id="Path_7046" data-name="Path 7046" d="M1079.3,541.472l-63.84-103.379a156.169,156.169,0,0,1-37.256,15.145l22.522,119.583a276.534,276.534,0,0,0,78.575-31.348" transform="translate(270.329 352.523)" fill="#a21942"/>
    <path id="Path_7047" data-name="Path 7047" d="M1009.1,425.026a156.891,156.891,0,0,1-17,35l97.087,73.229a277.522,277.522,0,0,0,36.753-74.658Z" transform="translate(348.378 279.135)" fill="#26bde2"/>
    <path id="Path_7048" data-name="Path 7048" d="M1029.465,440.909a155.312,155.312,0,0,1-40.935.569L966.015,561.061a279.967,279.967,0,0,0,85.965-.675Z" transform="translate(201.849 368.338)" fill="#ff6924"/>
    <path id="Path_7049" data-name="Path 7049" d="M973.7,496.961a156.059,156.059,0,0,1,38.864,7.5l43.674-113.509A276.8,276.8,0,0,0,973.7,375.341Z" transform="translate(245.01 0.09)" fill="#e8203a"/>
    <path id="Path_7050" data-name="Path 7050" d="M1053.831,452.921a156.3,156.3,0,0,1-38.56-14.582L951.306,541.791a277.054,277.054,0,0,0,80.03,30.587Z" transform="translate(119.24 353.904)" fill="#dd1367"/>
    <path id="Path_7051" data-name="Path 7051" d="M1002.372,503.992a155.541,155.541,0,0,1,39.69-7.06V375.325A277.592,277.592,0,0,0,958.4,390.569Z" transform="translate(159.081 0)" fill="#19486a"/>
    <path id="Path_7052" data-name="Path 7052" d="M1067.439,462.232a156.138,156.138,0,0,1-18.526-37.15L932.05,458.627a277.165,277.165,0,0,0,38.6,77.159Z" transform="translate(11.092 279.449)" fill="#bf8b2e"/>
    <path id="Path_7053" data-name="Path 7053" d="M1027.029,512.328a157.082,157.082,0,0,1,33.684-20.385L1016.768,378.58a278.582,278.582,0,0,0-71.681,43.892Z" transform="translate(84.311 18.281)" fill="#00689d"/>
  </g>
</svg>
