<svg xmlns="http://www.w3.org/2000/svg" width="36.595" height="36.595" viewBox="0 0 36.595 36.595">
  <path id="Facebook" d="M219.547,196.6H202.02a2.02,2.02,0,0,1-2.02-2.02V162.02a2.02,2.02,0,0,1,2.02-2.02h32.556a2.02,2.02,0,0,1,2.02,2.02v32.555a2.02,2.02,0,0,1-2.02,2.02H225.25V182.424h4.757l.712-5.523H225.25v-3.526c0-1.6.444-2.689,2.737-2.689h2.925v-4.94a39.059,39.059,0,0,0-4.262-.218c-4.217,0-7.1,2.574-7.1,7.3V176.9h-4.769v5.523h4.769V196.6Z" transform="translate(-200 -160)" fill="#3db5b0" fill-rule="evenodd"/>
</svg>
