<svg xmlns="http://www.w3.org/2000/svg" width="193.5" height="81.2" viewBox="0 0 193.5 81.2">
  <g id="StartupIn-Favelas-Logo" transform="translate(-16 -30.7)">
    <path id="Path_6748" data-name="Path 6748" d="M46.9,43.3H51l-.5-12.6L34.2,43.3H40L16.6,68.5H31L16,89.9H41.2l9.5-30.8H40.1Z" fill="#ffd800"/>
    <path id="Path_6749" data-name="Path 6749" d="M81.4,58.7H75.1a1.662,1.662,0,0,0-1.6-2.4A2.178,2.178,0,0,0,71.1,58c-.9,3.9,10.3,2.8,8.6,11.7-1,5.1-4.9,7.2-10.1,7-5.1-.3-8.3-3.5-7.3-8.7h6.4a1.865,1.865,0,0,0,1.8,2.7,2.448,2.448,0,0,0,2.7-2c.7-3.5-10-3.1-8.4-11.5.9-4.8,4.8-7.1,9.7-6.9s8.1,3.4,6.9,8.4Z"/>
    <path id="Path_6750" data-name="Path 6750" d="M84.1,56.3c3,0,4-1.2,4.8-4.6h4.3L92.3,56h3l-1.2,5.5h-3l-1.8,8.2c-.3,1.4.4,2,2.7,1.6l-1.2,5.5c-7,.7-8.7-2.3-7.5-7.7l1.6-7.4H83l1.1-5.4Z"/>
    <path id="Path_6751" data-name="Path 6751" d="M102.7,76.4l.3-1.7a5.564,5.564,0,0,1-4.5,2c-2.7,0-5.4-2-4.6-5.9,1.3-7,11-5.7,11.6-8.7.2-.9-.3-1.4-1.3-1.4a2.106,2.106,0,0,0-2.2,1.9H96.1c1.1-4.9,3.7-6.9,8.6-6.9,4.6,0,7.7,2.2,6.5,7.7-.1.6-2.8,13.1-2.8,13.1l-5.7-.1Zm1.6-9.2c-.7,1.1-3.8,1-4.2,3-.3,1.2.4,1.5,1.2,1.5a2.876,2.876,0,0,0,2.6-2.5v-.1l.4-1.9Z"/>
    <path id="Path_6752" data-name="Path 6752" d="M125.7,61.7c-2.9-.3-4.7.7-5.3,3.9l-2.2,10.6H112l4.4-20.4h5.8l-.4,1.8s1.4-2.5,5.2-2l-1.3,6.1Z"/>
    <path id="Path_6753" data-name="Path 6753" d="M128.5,56.3c3,0,4-1.2,4.8-4.6h4.3l-.9,4.3h3l-1.2,5.5h-3l-1.8,8.2c-.3,1.4.4,2,2.7,1.6l-1.2,5.5c-7,.7-8.7-2.3-7.5-7.7l1.6-7.4h-1.9l1.1-5.4Z"/>
    <path id="Path_6754" data-name="Path 6754" d="M151.3,55.9h6.1l-2.7,12.7c-1.1,5.3-3.8,8.1-8.8,8.1-4.9,0-7.6-3.1-6.6-8.1L142,55.9h6.1l-3,13.6c-.3,1.4.5,1.7,1.2,1.7a1.943,1.943,0,0,0,2-1.7l3-13.6Z"/>
    <path id="Path_6755" data-name="Path 6755" d="M160.8,55.9h5.8l-.4,1.7a5,5,0,0,1,4.1-2c3.3,0,5.5,1.8,4.4,7.1l-1.5,6.8c-1.1,5.3-3.4,7.1-6.6,7.1a3.934,3.934,0,0,1-3.7-2L161,83.5h-6l5.8-27.6Zm7.7,7.1c.3-1.4-.5-1.7-1.2-1.7a1.857,1.857,0,0,0-1.9,1.7l-1.3,6.2c-.3,1.4.5,1.7,1.2,1.7a1.943,1.943,0,0,0,2-1.7l1.2-6.2Z"/>
    <path id="Path_6756" data-name="Path 6756" d="M182.2,76.4h-6.5l5.5-25.7h6.4Z"/>
    <path id="Path_6757" data-name="Path 6757" d="M204,76.4h-6.1L195.6,65l-2.4,11.4h-6.5l5.5-25.7h6.2l2.2,11.4L203,50.7h6.5Z"/>
    <path id="Path_6758" data-name="Path 6758" d="M77,91.1H66l-4.3,20.4h4l1.8-8.4h5.1l.7-3.5H68.2l1-4.6h7l.8-3.9ZM83.9,96l.3,8H80l3.9-8Zm.7,15.6h4L87,91.1H82.6L72.2,111.6h4.2l1.9-4h6l.3,4Zm9.1,0H98l9.9-20.5h-4.2l-6.6,14.2-.5-14.2h-4c.4,6.8.7,13.6,1.1,20.5Zm28-20.5H110.2l-4.4,20.5h11.5l.8-3.8h-7.5l1-4.6h5.6l.7-3.5h-5.5l1-4.6h7.5l.8-4Zm10.9,16.6h-6.8l3.5-16.6h-4l-4.4,20.5h10.8l.9-3.9Zm12-11.7.3,8h-4.2l3.9-8Zm.7,15.6h4l-1.6-20.5h-4.4L133,111.6h4.2l1.9-4h6l.2,4Zm16.7-5.9a3.009,3.009,0,0,1-3.3,2.5c-1.7,0-2.9-1-2.4-3.4h-4c-.9,4.4,1.9,7.1,6,7.1,4.2,0,7.2-2.3,7.7-6.2.8-7.2-8.2-4.9-7.8-9a2.714,2.714,0,0,1,3-2.4c1.7,0,2.8,1,2.3,3.2h4c.9-4.2-1.8-6.9-5.8-6.9s-6.9,2.2-7.4,6c-1,7.1,8.4,5.3,7.7,9.1Z" fill="#ed0677"/>
  </g>
</svg>
