<?xml version="1.0" encoding="utf-8"?>
<!-- Generator: Adobe Illustrator 22.0.1, SVG Export Plug-In . SVG Version: 6.00 Build 0)  -->
<svg version="1.1" id="Layer_1" xmlns="http://www.w3.org/2000/svg" xmlns:xlink="http://www.w3.org/1999/xlink" x="0px" y="0px"
	 viewBox="0 0 442 188" style="enable-background:new 0 0 442 188;" xml:space="preserve">
<style type="text/css">
	.st0{fill:#2DBDB6;}
	.st1{fill:#ED1164;}
	.st2{fill:#F47920;}
</style>
<g>
	<path class="st0" d="M319,139.8c-3.1,0-5.6-1.6-5.6-5.9l-12.8,0.3c-0.6,11.9,8.6,17,18.5,17c10.3,0,18.1-5.7,18.1-14.9
		c0-9.4-5.3-12.7-13-15.4c-8.1-2.8-9.4-4.1-9.4-6.6c0-2,1.8-3.1,4-3.1c2.9,0,4.6,1.8,4.6,5.9l12.8-0.3c0.5-12-7.8-17-17.3-17
		c-9.4,0-18,5.1-18,15.5c0,8.6,5.8,12.8,13,15.1c7.6,2.5,9.4,4.1,9.4,6.2C323.4,138.8,321.8,139.8,319,139.8L319,139.8z
		 M344.2,150.2h29.4v-11.5h-15.6v-8h14.1v-11.1h-14.1v-7.3h15.6v-11.5h-29.4V150.2L344.2,150.2z M398.3,131.7l7.7,18.5h14.8
		c0,0-5.1-12.4-7.9-18.1c-1.2-2.5-2.4-3.6-3.5-4.2c5.1-2.2,9.1-6.3,9.1-13.4c0-11.5-9.8-13.8-22.2-13.8c-7.4,0-14,0.1-14,0.1v49.3
		h13.9v-18.5H398.3L398.3,131.7z M404.7,116.8c0,4.6-3.8,5.3-6.9,5.3c-1.3,0-1.5-0.1-1.5-0.1v-10.3c0,0,0.1-0.1,1.9-0.1
		C402.7,111.6,404.7,113.4,404.7,116.8L404.7,116.8z"/>
	<path class="st1" d="M43.6,150.2v-16c0,0,1.2,0.1,3.8,0.1c11.6,0,19.2-6.7,19.2-16.5c0-15.5-13.1-16.9-25-16.9
		c-5.8,0-11.8,0.1-11.8,0.1v49.3H43.6L43.6,150.2z M43.6,112.4c0,0,0.8-0.1,1.9-0.1c5.1,0,7.2,2,7.2,5.5c0,4.3-3.1,5.8-6.7,5.8
		c-1.5,0-2.4-0.1-2.4-0.1V112.4L43.6,112.4z M88.4,131.7l7.7,18.5h14.8c0,0-5.1-12.4-7.9-18.1c-1.2-2.5-2.4-3.6-3.5-4.2
		c5.1-2.2,9.1-6.3,9.1-13.4c0-11.5-9.8-13.8-22.2-13.8c-7.4,0-14,0.1-14,0.1v49.3h13.9v-18.5H88.4L88.4,131.7z M94.8,116.8
		c0,4.6-3.8,5.3-6.9,5.3c-1.3,0-1.5-0.1-1.5-0.1v-10.3c0,0,0.1-0.1,1.9-0.1C92.9,111.6,94.8,113.4,94.8,116.8L94.8,116.8z
		 M115.8,150.2h29.4v-11.5h-15.6v-8h14.1v-11.1h-14.1v-7.3h15.6v-11.5h-29.4V150.2L115.8,150.2z M188.3,116.9
		c0.3-11.7-7.8-17-17.4-17c-9.4,0-18.2,5.3-18.6,16.1c-0.2,5-0.1,11.3,0,18.8c0.2,10.3,7.6,16.5,18.2,16.5c11.3,0,18.1-6.9,18.1-17
		l-12.8-0.3c0,4-2.4,5.9-4.9,5.9c-2.8,0-4.5-1.9-4.7-5.7c-0.1-5.3-0.2-12.8,0-17.5c0.1-3.5,2.1-5.3,4.7-5.3c2.7,0,4.5,1.9,4.5,5.9
		L188.3,116.9L188.3,116.9z M208.4,100.9h-13.9v49.3h13.9V100.9L208.4,100.9z M234.6,139.8c-3.1,0-5.6-1.6-5.6-5.9l-12.8,0.3
		c-0.6,11.9,8.6,17,18.5,17c10.3,0,18.1-5.7,18.1-14.9c0-9.4-5.3-12.7-13-15.4c-8.1-2.8-9.4-4.1-9.4-6.6c0-2,1.8-3.1,4-3.1
		c2.9,0,4.6,1.8,4.6,5.9l12.8-0.3c0.5-12-7.8-17-17.3-17c-9.4,0-18,5.1-18,15.5c0,8.6,5.8,12.8,13,15.1c7.6,2.5,9.4,4.1,9.4,6.2
		C238.9,138.8,237.3,139.8,234.6,139.8L234.6,139.8z M283.5,150.2h14.2l-11.3-49.3H266v2.9l-11.1,46.4h13.5l1.7-8.7h11.8
		L283.5,150.2L283.5,150.2z M275.2,115.8l1-6.4l1,6.4l2.6,14.6h-7.6L275.2,115.8L275.2,115.8z"/>
	<path class="st2" d="M43.6,34.2H29.7v49.3h13.9V34.2L43.6,34.2z M78.6,34.2v27.6l-1.7-4.7L64.7,34.2h-12v49.3h13.2v-26l2,5.7
		l11.7,20.3h12.2V34.2H78.6L78.6,34.2z M117.9,73.1c-3.1,0-5.6-1.6-5.6-5.9l-12.8,0.3c-0.6,11.9,8.6,17,18.5,17
		c10.3,0,18.1-5.7,18.1-14.9c0-9.4-5.3-12.7-13-15.4c-8.1-2.8-9.4-4.1-9.4-6.6c0-2,1.8-3.1,4-3.1c2.9,0,4.6,1.8,4.6,5.9l12.8-0.3
		c0.5-12-7.8-17-17.3-17c-9.4,0-18,5.1-18,15.5c0,8.6,5.8,12.8,13,15.1c7.6,2.5,9.4,4.1,9.4,6.3C122.2,72.2,120.6,73.1,117.9,73.1
		L117.9,73.1z M148.9,83.5h13.9V45.7h11V34.2h-36v11.5h11V83.5L148.9,83.5z M192.9,34.2H179v49.3h13.9V34.2L192.9,34.2z M209.2,83.5
		h13.9V45.7h11V34.2h-36v11.5h11V83.5L209.2,83.5z M261.7,34.2c0.1,4.6,0.1,29.2,0,33.3c-0.1,3.5-1.8,5.6-4.7,5.6
		c-2.8,0-4.9-2.1-4.9-5.6c-0.1-4.4-0.1-29,0-33.3h-13.3c0,0-0.2,18.8,0,34.2c0.1,10.7,8.5,16.1,17.9,16.1c9.6,0,18.1-5.6,18.3-16
		c0.2-16.8,0-34.4,0-34.4H261.7L261.7,34.2z M290.6,83.5h13.9V45.7h11V34.2h-36v11.5h11V83.5L290.6,83.5z M319.6,50.1
		c-0.2,5.4-0.2,12.4,0,17.4c0.5,11.3,8.5,17,18.6,17c10.1,0,18.4-5.7,18.7-16.9c0.1-5.3,0.1-13,0-17.6c-0.3-11.1-8.5-16.9-18.6-16.9
		C328.1,33.2,320,39,319.6,50.1L319.6,50.1z M333.5,67.9c-0.3-4.4-0.3-14.2,0-18.4c0.2-3.4,2.1-4.9,4.8-4.9c2.7,0,4.6,1.5,4.7,4.9
		c0.2,4.6,0.2,14.4,0,18.4c-0.2,3.7-2.1,5.2-4.8,5.2C335.5,73.1,333.7,71.6,333.5,67.9L333.5,67.9z"/>
	<polygon class="st0" points="299.5,161.1 299.5,172.6 421,172.6 421,161.1 299.5,161.1 	"/>
</g>
</svg>
