<svg xmlns="http://www.w3.org/2000/svg" xmlns:xlink="http://www.w3.org/1999/xlink" width="123.798" height="86.413" viewBox="0 0 123.798 86.413">
  <defs>
    <clipPath id="clip-path">
      <path id="Path_6" data-name="Path 6" d="M0-52.909H123.8v-86.413H0Z" transform="translate(0 139.322)" fill="none"/>
    </clipPath>
  </defs>
  <g id="Group_7257" data-name="Group 7257" transform="translate(0 139.322)">
    <g id="Group_6" data-name="Group 6" transform="translate(0 -139.322)" clip-path="url(#clip-path)">
      <g id="Group_1" data-name="Group 1" transform="translate(46.167 21.601)">
        <path id="Path_1" data-name="Path 1" d="M-3.792-7.609A6.191,6.191,0,0,0,2.443-13.8a6.226,6.226,0,0,0-6.235-6.235A6.191,6.191,0,0,0-9.985-13.8,6.156,6.156,0,0,0-3.792-7.609" transform="translate(9.985 20.037)" fill="#0f2b92"/>
      </g>
      <g id="Group_2" data-name="Group 2" transform="translate(64.323 58.245)">
        <path id="Path_2" data-name="Path 2" d="M-3.512,0A6.245,6.245,0,0,0-9.248,3.824H2.182A6.3,6.3,0,0,0-3.512,0" transform="translate(9.248)" fill="#0f2b92"/>
      </g>
      <g id="Group_3" data-name="Group 3" transform="translate(96.828 58.286)">
        <path id="Path_3" data-name="Path 3" d="M-3.817-7.609A6.191,6.191,0,0,0,2.417-13.8a6.226,6.226,0,0,0-6.235-6.235A6.226,6.226,0,0,0-10.052-13.8,6.191,6.191,0,0,0-3.817-7.609" transform="translate(10.052 20.037)" fill="#0f2b92"/>
      </g>
      <g id="Group_4" data-name="Group 4" transform="translate(108.287 24.52)">
        <path id="Path_4" data-name="Path 4" d="M-2,0A3.261,3.261,0,0,0-5.26,3.284,3.242,3.242,0,0,0-2,6.547,3.261,3.261,0,0,0,1.287,3.284,3.28,3.28,0,0,0-2,0" transform="translate(5.26 0)" fill="#0f2b92"/>
      </g>
      <g id="Group_5" data-name="Group 5" transform="translate(0 0)">
        <path id="Path_5" data-name="Path 5" d="M-51.292-9.612a5.306,5.306,0,0,0-.348-1.895,9.41,9.41,0,0,0,1.054-4.34,9.475,9.475,0,0,0-9.464-9.464,9.474,9.474,0,0,0-9.106,6.918c-.123-.008-.246-.019-.372-.019H-76.47a5.305,5.305,0,0,0-4.523,2.529q-.846-.077-1.711-.077a18.3,18.3,0,0,0-10.433,3.253,5.287,5.287,0,0,0-.827-.631l-5.985-3.7a5.281,5.281,0,0,0-2.786-.794,5.305,5.305,0,0,0-4.52,2.516l-6,9.7-6-9.7a5.3,5.3,0,0,0-4.519-2.516,5.28,5.28,0,0,0-2.785.794l-5.985,3.7a5.309,5.309,0,0,0-2.375,3.3,5.308,5.308,0,0,0,.652,4.01l16.393,26.51-4.658,2.081a5.308,5.308,0,0,0-2.7,6.98l11.8,26.892a5.308,5.308,0,0,0,4.86,3.175h0a5.308,5.308,0,0,0,4.86-3.179l3.783-8.639,3.783,8.639a5.309,5.309,0,0,0,4.86,3.179h0a5.308,5.308,0,0,0,4.86-3.175l3.712-8.456A18.472,18.472,0,0,0-65.047,61.1h1.039A5.308,5.308,0,0,0-58.7,55.794V49.007h3.416a5.282,5.282,0,0,0,1.516,3.251l4.821,4.863a5.309,5.309,0,0,0,3.758,1.57h.011a5.308,5.308,0,0,0,3.754-1.554l1.342-1.342A18.405,18.405,0,0,0-32,57.652,18.5,18.5,0,0,0-13.518,39.168,18.484,18.484,0,0,0-32,20.727q-.466,0-.927.022V18.387c0-.029,0-.056,0-.084A5.312,5.312,0,0,0-31.372,18a5.307,5.307,0,0,0,3.431-4.107,12.159,12.159,0,0,0,4.264.83,5.287,5.287,0,0,0,3.447,1.271h3.656a5.308,5.308,0,0,0,5.308-5.308V-5.739a5.308,5.308,0,0,0-5.308-5.308h-3.656A5.289,5.289,0,0,0-23.7-9.754,12.131,12.131,0,0,0-29.806-8a5.283,5.283,0,0,0-3.367-1.205h-3.656a5.283,5.283,0,0,0-2.629.7l-2.415-2.914a5.308,5.308,0,0,0-4.087-1.921,5.309,5.309,0,0,0-1.8.315,5.308,5.308,0,0,0-3.507,4.994Zm5.332,1.574,9.131,11.014V-3.9h2.891a12.185,12.185,0,0,0-1.8,6.393,12.162,12.162,0,0,0,2.57,7.486V13L-42.3,1.99V8.866H-45.96ZM-56.6,14.619h-6.941V-9.612H-56.6ZM-60.05-20a4.141,4.141,0,0,1,4.156,4.156A4.169,4.169,0,0,1-60.05-11.69a4.142,4.142,0,0,1-4.156-4.157A4.116,4.116,0,0,1-60.05-20M-76.47-9.03V-13.1h6.941V18.07H-76.47V14.038A12.436,12.436,0,0,1-82.7,15.659,13.109,13.109,0,0,1-95.838,2.525a13.245,13.245,0,0,1,.471-3.5l3.127-5.058a5.275,5.275,0,0,0,.473-.982A13.059,13.059,0,0,1-82.7-10.651,12.435,12.435,0,0,1-76.47-9.03m-47.3-3.491,10.516,17,10.515-17,5.655,3.5a18.467,18.467,0,0,0-3.157,5.845l-13.013,21.043-16.5-26.684ZM-91.277,54.3l-8.645-19.743L-108.567,54.3l-11.8-26.892,6.235-2.785,5.57,12.719L-99.922,17.6l8.645,19.743,5.57-12.719,6.235,2.785-.292.664a18.354,18.354,0,0,0-3.424,7.8Zm20.12-10.6a6.274,6.274,0,0,0,6.11,5.2h1.039v6.9h-1.039A13.109,13.109,0,0,1-78.181,42.66V39.168a13.316,13.316,0,0,1,.122-1.777l2.911-6.633a13.1,13.1,0,0,1,10.1-4.724A13.144,13.144,0,0,1-51.871,39.168v3.718l-.813.813ZM-32,26.034A13.144,13.144,0,0,1-18.826,39.168,13.18,13.18,0,0,1-32,52.344a13.067,13.067,0,0,1-8.77-3.367l-4.406,4.406-4.719-4.76a5.317,5.317,0,0,0,3.068-3.273l1.651-1.651V18.387h6.941v9.269A12.437,12.437,0,0,1-32,26.034m15.427-15.351h-3.656V8.559a6.546,6.546,0,0,1-3.285.854,6.893,6.893,0,0,1-4.349-1.534V-2.9a6.873,6.873,0,0,1,4.349-1.544,6.552,6.552,0,0,1,3.285.854V-5.739h3.656Z" transform="translate(135.065 25.311)" fill="#0f2b92"/>
      </g>
    </g>
    <g id="Group_7" data-name="Group 7" transform="translate(5.308 -126.533)">
      <path id="Path_7" data-name="Path 7" d="M-10.1-10.409l10.516-17,5.985,3.7L-10.1,2.975-26.6-23.709l5.985-3.7Z" transform="translate(26.604 27.408)" fill="#ffac2d"/>
    </g>
    <g id="Group_10" data-name="Group 10" transform="translate(0 -139.322)" clip-path="url(#clip-path)">
      <g id="Group_8" data-name="Group 8" transform="translate(39.226 12.207)">
        <path id="Path_8" data-name="Path 8" d="M-16.109,0V31.173H-23.05V27.141a12.435,12.435,0,0,1-6.235,1.621A13.108,13.108,0,0,1-42.419,15.628,13.144,13.144,0,0,1-29.285,2.452,12.435,12.435,0,0,1-23.05,4.073V0ZM-35.478,15.628a6.155,6.155,0,0,0,6.193,6.192,6.191,6.191,0,0,0,6.235-6.192,6.226,6.226,0,0,0-6.235-6.235,6.191,6.191,0,0,0-6.193,6.235" transform="translate(42.419)" fill="#ffac2d"/>
      </g>
      <g id="Group_9" data-name="Group 9" transform="translate(70.858 5.308)">
        <path id="Path_9" data-name="Path 9" d="M-2.545-5.09A4.142,4.142,0,0,1-6.7-9.246,4.116,4.116,0,0,1-2.545-13.4,4.141,4.141,0,0,1,1.611-9.246,4.168,4.168,0,0,1-2.545-5.09M.9,21.22H-6.036V-3.011H.9Z" transform="translate(6.701 13.402)" fill="#ffac2d"/>
      </g>
    </g>
    <g id="Group_11" data-name="Group 11" transform="translate(14.693 -96.414)">
      <path id="Path_11" data-name="Path 11" d="M-7.228-12.088,1.417-31.831l8.646,19.743,5.57-12.719,6.235,2.785L10.063,4.87,1.417-14.873-7.228,4.87l-11.8-26.892,6.235-2.785Z" transform="translate(19.032 31.831)" fill="#ffac2d"/>
    </g>
    <g id="Group_14" data-name="Group 14" transform="translate(0 -139.322)" clip-path="url(#clip-path)">
      <g id="Group_12" data-name="Group 12" transform="translate(56.884 51.345)">
        <path id="Path_12" data-name="Path 12" d="M-8.042-14H-7v6.9H-8.042A13.109,13.109,0,0,1-21.176-20.232v-3.491A13.109,13.109,0,0,1-8.042-36.857,13.144,13.144,0,0,1,5.134-23.723v4.531H-14.152A6.274,6.274,0,0,0-8.042-14M-8-29.957a6.244,6.244,0,0,0-5.736,3.824h11.43A6.3,6.3,0,0,0-8-29.957" transform="translate(21.176 36.857)" fill="#ffac2d"/>
      </g>
      <g id="Group_13" data-name="Group 13" transform="translate(85.066 43.698)">
        <path id="Path_13" data-name="Path 13" d="M-11.019-4.682A13.144,13.144,0,0,1,2.157,8.452,13.18,13.18,0,0,1-11.019,21.627a13.07,13.07,0,0,1-8.77-3.367l-4.406,4.406L-29.016,17.8l4.821-4.822V-12.33h6.941v9.269a12.429,12.429,0,0,1,6.235-1.621M-17.254,8.493a6.191,6.191,0,0,0,6.235,6.193A6.191,6.191,0,0,0-4.785,8.493a6.226,6.226,0,0,0-6.235-6.235,6.226,6.226,0,0,0-6.235,6.235" transform="translate(29.016 12.33)" fill="#ffac2d"/>
      </g>
    </g>
    <g id="Group_15" data-name="Group 15" transform="translate(89.104 -122.049)">
      <path id="Path_15" data-name="Path 15" d="M-7.83-12.884-16.96-23.9v6.875h-3.657v-16.9l9.131,11.014v-6.875H-7.83Z" transform="translate(20.617 33.926)" fill="#ff611e"/>
    </g>
    <g id="Group_17" data-name="Group 17" transform="translate(0 -139.322)" clip-path="url(#clip-path)">
      <g id="Group_16" data-name="Group 16" transform="translate(104.63 19.572)">
        <path id="Path_16" data-name="Path 16" d="M-8.487,0V16.422h-3.657V14.3a6.551,6.551,0,0,1-3.284.853,6.906,6.906,0,0,1-6.919-6.919,6.925,6.925,0,0,1,6.919-6.941,6.545,6.545,0,0,1,3.284.854V0Zm-10.2,8.233A3.243,3.243,0,0,0-15.428,11.5a3.261,3.261,0,0,0,3.284-3.262,3.28,3.28,0,0,0-3.284-3.285A3.262,3.262,0,0,0-18.69,8.233" transform="translate(22.347)" fill="#ff611e"/>
      </g>
    </g>
  </g>
</svg>
