<svg xmlns="http://www.w3.org/2000/svg" width="163.153" height="38.085" viewBox="0 0 163.153 38.085">
  <g id="Group_7331" data-name="Group 7331" transform="translate(-926.29 -4527)">
    <path id="Path_7066" data-name="Path 7066" d="M200.223,80.89h-13.7V54.969h6.536V74.648h7.159Z" transform="translate(889.219 4472.775)" fill="#fd4135"/>
    <path id="Path_7059" data-name="Path 7059" d="M63.254,63.049l-.09,20.418c-.009,2.21,1.2,2.478,2.147,2.482.894,0,2.107-.253,2.116-2.463l.09-20.417c.009-2.21-1.095-2.478-2.094-2.483s-2.16.253-2.169,2.463M56.693,83.227l.087-19.943c.024-5.315,3.566-8.982,8.67-8.96,5.051.023,8.614,3.722,8.59,9.036L73.953,83.3c-.023,5.262-3.618,8.929-8.669,8.907-5.1-.023-8.614-3.722-8.591-8.983" transform="translate(869.597 4472.677)" fill="#0f0b0c"/>
    <path id="Path_7060" data-name="Path 7060" d="M93.469,63.031,87.1,63c.009-2-1.2-2.48-2.147-2.484A1.8,1.8,0,0,0,83,62.406a7.65,7.65,0,0,0,1.509,3.638l6.326,9.447c2.509,3.8,2.92,5.958,2.909,8.7-.022,5-3.666,8.14-8.823,8.117a8.466,8.466,0,0,1-8.8-8.932l6.472.029a2.255,2.255,0,0,0,2.462,2.589A2.009,2.009,0,0,0,87.272,84c0-1.158-.2-1.9-1.614-4.007l-6.324-9.552c-2.509-3.8-2.816-6.064-2.805-8.221.021-4.789,3.559-7.877,8.559-7.856,4.893.022,8.4,3.564,8.381,8.668" transform="translate(872.533 4472.683)" fill="#0f0b0c"/>
    <path id="Path_7061" data-name="Path 7061" d="M106.689,63.194c.01-2.21-1.2-2.478-2.094-2.483-.947,0-2.158.254-2.169,2.465l-.09,20.469c-.01,2.262,1.147,2.478,2.147,2.482s2.105-.2,2.116-2.463l.012-2.683,6.525.029-.01,2.473c-.023,5.263-3.618,8.931-8.669,8.907-5.1-.022-8.614-3.722-8.591-8.983l.089-20.048c.023-5.262,3.565-8.931,8.669-8.909,5.051.023,8.614,3.722,8.591,8.985l-.01,2.315-6.526-.029Z" transform="translate(875.517 4472.696)" fill="#0f0b0c"/>
    <path id="Path_7062" data-name="Path 7062" d="M131.3,80.89h-13.7V54.969h6.536V74.648H131.3Z" transform="translate(878.803 4472.775)" fill="#fd4135"/>
    <path id="Path_7063" data-name="Path 7063" d="M147.428,61.248h-8.076v3.965h6.131v5.654h-6.131v3.781h8.076V80.89H132.853V54.97h14.576Z" transform="translate(881.107 4472.775)" fill="#fd4135"/>
    <path id="Path_7064" data-name="Path 7064" d="M166,66.817v5.618c0,5.25-3.563,8.921-8.666,8.921s-8.663-3.671-8.663-8.921V63.513c0-5.287,3.559-8.958,8.663-8.958,5.029,0,8.554,3.6,8.666,8.737h-6.537c0-2.239-1.136-2.5-2.128-2.5-1.029,0-2.13.258-2.13,2.5v9.362c0,2.2,1.248,2.46,2.13,2.46.917,0,2.128-.257,2.128-2.46v-.183h-2.092V66.817Z" transform="translate(883.498 4472.712)" fill="#fd4135"/>
    <path id="Path_7065" data-name="Path 7065" d="M174.574,70.9H177.4L176.042,63.6Zm4.075,5.618h-5.324l-.991,4.369H165.8l6.755-25.92h6.976l6.645,25.92H179.64Z" transform="translate(886.087 4472.775)" fill="#fd4135"/>
    <rect id="Rectangle_3383" data-name="Rectangle 3383" width="93.031" height="5.042" transform="translate(996.411 4559.393)" fill="#fd4135"/>
  </g>
</svg>
