<svg xmlns="http://www.w3.org/2000/svg" width="260.435" height="64.082" viewBox="0 0 260.435 64.082">
  <g id="Group_7219" data-name="Group 7219" transform="translate(-47.315 -45)">
    <g id="PS-Logotipo" transform="translate(98.3 11.9)">
      <path id="Path_1" data-name="Path 1" d="M309.037,118.175a2.384,2.384,0,0,1-2.572-2.71l-5.88.138c-.276,5.466,3.951,7.809,8.5,7.809,4.731,0,8.315-2.618,8.315-6.845,0-4.318-2.435-5.834-5.972-7.074-3.721-1.286-4.318-1.883-4.318-3.032,0-.919.827-1.424,1.837-1.424,1.332,0,2.113.827,2.113,2.71l5.88-.138c.23-5.512-3.583-7.809-7.947-7.809-4.318,0-8.269,2.343-8.269,7.12,0,3.951,2.664,5.88,5.972,6.936,3.491,1.148,4.318,1.883,4.318,2.848.046,1.011-.689,1.47-1.975,1.47Zm11.576,4.777h13.505v-5.283h-7.166v-3.675h6.477v-5.1h-6.477v-3.353h7.166v-5.283H320.613v22.693Zm24.852-8.5,3.537,8.5h6.8s-2.343-5.7-3.629-8.315a3.948,3.948,0,0,0-1.608-1.929,6.349,6.349,0,0,0,4.18-6.156c0-5.283-4.5-6.339-10.2-6.339-3.4,0-6.431.046-6.431.046v22.647H344.5v-8.5h.965Zm2.94-6.845c0,2.113-1.746,2.435-3.17,2.435a2.344,2.344,0,0,1-.689-.046v-4.731a2.941,2.941,0,0,1,.873-.046c2.067,0,2.986.827,2.986,2.389Z" transform="translate(-146.443 -36.06)" fill="#2dbdb6"/>
      <path id="Path_2" data-name="Path 2" d="M36.139,122.952V115.6s.551.046,1.746.046c5.329,0,8.82-3.078,8.82-7.58,0-7.12-6.018-7.763-11.484-7.763-2.664,0-5.421.046-5.421.046V123h6.339Zm0-17.364a7.8,7.8,0,0,1,.873-.046c2.343,0,3.307.919,3.307,2.527,0,1.975-1.424,2.664-3.078,2.664-.689,0-1.1-.046-1.1-.046v-5.1Zm20.58,8.866,3.537,8.5h6.8s-2.343-5.7-3.629-8.315a3.948,3.948,0,0,0-1.608-1.929A6.349,6.349,0,0,0,66,106.553c0-5.283-4.5-6.339-10.2-6.339-3.4,0-6.431.046-6.431.046v22.647h6.385v-8.5h.965Zm2.94-6.845c0,2.113-1.746,2.435-3.17,2.435A2.344,2.344,0,0,1,55.8,110v-4.731a2.941,2.941,0,0,1,.873-.046c2.113,0,2.986.827,2.986,2.389Zm9.647,15.343H82.811v-5.283H75.645v-3.675h6.477v-5.1H75.645v-3.353h7.166v-5.283H69.306v22.693Zm33.3-15.3c.138-5.375-3.583-7.809-7.993-7.809-4.318,0-8.36,2.435-8.544,7.4-.092,2.3-.046,5.191,0,8.636.092,4.731,3.491,7.58,8.36,7.58,5.191,0,8.315-3.17,8.315-7.809l-5.88-.138c0,1.837-1.1,2.71-2.251,2.71-1.286,0-2.067-.873-2.159-2.618-.046-2.435-.092-5.88,0-8.039.046-1.608.965-2.435,2.159-2.435,1.24,0,2.067.873,2.067,2.71l5.926-.184Zm9.233-7.35h-6.385v22.647h6.385V100.305Zm12.035,17.869a2.384,2.384,0,0,1-2.572-2.71l-5.88.138c-.276,5.466,3.951,7.809,8.5,7.809,4.731,0,8.315-2.618,8.315-6.845,0-4.318-2.435-5.834-5.972-7.074-3.721-1.286-4.318-1.883-4.318-3.032,0-.919.827-1.424,1.837-1.424,1.332,0,2.113.827,2.113,2.71l5.88-.138c.23-5.512-3.583-7.809-7.947-7.809-4.318,0-8.269,2.343-8.269,7.12,0,3.951,2.664,5.88,5.972,6.936,3.491,1.148,4.318,1.883,4.318,2.848,0,1.011-.735,1.47-1.975,1.47Zm22.463,4.777h6.523l-5.191-22.647H138.3v1.332l-5.1,21.315h6.2l.781-4h5.421l.735,4Zm-3.813-15.8.459-2.94.459,2.94,1.194,6.707H141.15l1.378-6.707Z" transform="translate(-0.054 -36.06)" fill="#ed1164"/>
      <path id="Path_3" data-name="Path 3" d="M36.085,33.605H29.7V56.252h6.385V33.605Zm16.078,0V46.284l-.781-2.159-5.6-10.52H40.265V56.252h6.064V44.309l.919,2.618,5.375,9.325h5.6V33.605ZM70.216,51.475a2.384,2.384,0,0,1-2.572-2.71l-5.88.138c-.276,5.466,3.951,7.809,8.5,7.809,4.731,0,8.315-2.618,8.315-6.845,0-4.318-2.435-5.834-5.972-7.074-3.721-1.286-4.318-1.883-4.318-3.032,0-.919.827-1.424,1.837-1.424,1.332,0,2.113.827,2.113,2.71l5.88-.138c.23-5.512-3.583-7.809-7.947-7.809-4.318,0-8.269,2.343-8.269,7.12,0,3.951,2.664,5.88,5.972,6.936,3.491,1.148,4.318,1.883,4.318,2.894s-.735,1.424-1.975,1.424Zm14.24,4.777h6.385V38.888h5.053V33.605H79.358v5.283h5.053V56.252Zm20.212-22.647H98.283V56.252h6.385V33.605Zm7.488,22.647h6.385V38.888h5.053V33.605H107.057v5.283h5.053V56.252Zm24.117-22.647c.046,2.113.046,13.414,0,15.3-.046,1.608-.827,2.572-2.159,2.572a2.294,2.294,0,0,1-2.251-2.572c-.046-2.021-.046-13.322,0-15.3h-6.11s-.092,8.636,0,15.71c.046,4.915,3.9,7.4,8.223,7.4,4.41,0,8.315-2.572,8.406-7.35.092-7.717,0-15.8,0-15.8h-6.11Zm13.276,22.647h6.385V38.888h5.053V33.605H144.45v5.283H149.5V56.252Zm13.2-15.159c-.092,2.481-.092,5.7,0,7.993.23,5.191,3.9,7.809,8.544,7.809s8.452-2.618,8.59-7.763c.046-2.435.046-5.972,0-8.085-.138-5.1-3.9-7.763-8.544-7.763-4.686.046-8.406,2.71-8.59,7.809Zm6.385,8.177c-.138-2.021-.138-6.523,0-8.452a2.082,2.082,0,0,1,2.2-2.251,2.028,2.028,0,0,1,2.159,2.251c.092,2.113.092,6.615,0,8.452-.092,1.7-.965,2.389-2.2,2.389s-2.067-.689-2.159-2.389Z" fill="#f47920"/>
      <path id="Path_4" data-name="Path 4" d="M299.5,161.1v5.283h55.813V161.1Z" transform="translate(-145.863 -69.201)" fill="#2dbdb6"/>
    </g>
    <g id="Group_1" data-name="Group 1" transform="translate(-769.685 -311)">
      <path id="Path_5" data-name="Path 5" d="M87.166,58.166l26.926,26.926,26.926-26.926Z" transform="translate(729.834 297.834)" fill="#36a8a0"/>
      <path id="Path_6" data-name="Path 6" d="M87.166,129.176h53.853L114.092,102.25Z" transform="translate(729.834 280.676)" fill="#e85c00"/>
      <path id="Path_7" data-name="Path 7" d="M158.176,58.166,131.25,85.092l26.926,26.926Z" transform="translate(712.676 297.834)" fill="#f99500"/>
      <path id="Path_8" data-name="Path 8" d="M87.166,58.166v53.853l26.926-26.926Z" transform="translate(729.834 297.834)" fill="#d70047"/>
    </g>
  </g>
</svg>
