<svg xmlns="http://www.w3.org/2000/svg" width="164.662" height="70.785" viewBox="0 0 164.662 70.785">
  <g id="EstudioVnW-Logo" transform="translate(-192.2 -247.9)">
    <g id="Group_7258" data-name="Group 7258" transform="translate(206.132 279.329)">
      <rect id="Rectangle_3346" data-name="Rectangle 3346" width="148.008" height="36.635" transform="translate(1.361 1.361)" fill="#f26522"/>
      <path id="Path_6731" data-name="Path 6731" d="M407.429,432.756H256.7V393.4H407.429Zm-148.008-2.722H404.708V396.122H259.422Z" transform="translate(-256.7 -393.4)" fill="#2e3192"/>
    </g>
    <g id="Group_7259" data-name="Group 7259" transform="translate(218.661 289.546)">
      <path id="Path_6732" data-name="Path 6732" d="M314.7,466.2h3.154l1.663,4.968c.346,1.058.626,2.138.95,3.24h.086c.324-1.1.6-2.182.95-3.24l1.663-4.968h3l-3.91,10.541h-3.586Z" transform="translate(-314.7 -460.692)" fill="#fff"/>
      <path id="Path_6733" data-name="Path 6733" d="M376.7,472.963c0-2.376,1.966-3.564,6.934-3.867-.108-.95-.821-1.512-2.246-1.512a7.235,7.235,0,0,0-3.218.994l-1.123-2.052a9.991,9.991,0,0,1,4.947-1.426c2.959,0,4.774,1.534,4.774,4.774v6.005h-2.549L384,474.691h-.086a6.481,6.481,0,0,1-3.737,1.447A3.2,3.2,0,0,1,376.7,472.963Zm6.955-.259v-1.728c-3.11.151-3.931.821-3.931,1.728,0,.67.583,1.015,1.447,1.015A4.079,4.079,0,0,0,383.655,472.7Z" transform="translate(-363.308 -459.829)" fill="#fff"/>
      <path id="Path_6734" data-name="Path 6734" d="M441.755,448.649H437.5v-2.462h7.388v10.563h-3.132Zm-.648-6.005a2.08,2.08,0,1,1,2.074,1.922A1.931,1.931,0,0,1,441.107,442.644Z" transform="translate(-410.974 -440.7)" fill="#fff"/>
      <path id="Path_6735" data-name="Path 6735" d="M555.022,465.259h2.549l.216,1.4h.086A5.061,5.061,0,0,1,561.523,465c2.376,0,3.435,1.642,3.435,4.3v6.5h-3.132v-6.113c0-1.4-.41-2.031-1.555-2.031a2.938,2.938,0,0,0-2.138,1.1V475.8H555l.022-10.541Z" transform="translate(-503.094 -459.751)" fill="#fff"/>
      <path id="Path_6736" data-name="Path 6736" d="M613.1,472.963c0-2.376,1.966-3.564,6.934-3.867-.108-.95-.821-1.512-2.246-1.512a7.236,7.236,0,0,0-3.219.994l-1.123-2.052a9.991,9.991,0,0,1,4.947-1.426c2.959,0,4.774,1.534,4.774,4.774v6.005h-2.549l-.216-1.188h-.086a6.425,6.425,0,0,1-3.737,1.447A3.2,3.2,0,0,1,613.1,472.963Zm6.955-.259v-1.728c-3.11.151-3.931.821-3.931,1.728,0,.67.583,1.015,1.447,1.015A4.078,4.078,0,0,0,620.055,472.7Z" transform="translate(-548.644 -459.829)" fill="#fff"/>
      <path id="Path_6737" data-name="Path 6737" d="M725.7,466.2h3.024l.648,4.9c.13,1.037.216,2.052.346,3.132h.065a24.3,24.3,0,0,1,.5-3.132l.67-3.5h2.268l.691,3.5c.194,1.037.389,2.052.54,3.132h.086c.13-1.08.194-2.1.3-3.132l.583-4.9h2.916l-1.62,10.563h-3.672l-.583-3.435c-.13-.907-.259-1.922-.389-3.132h-.086c-.086.886-.194,1.793-.367,3.132l-.562,3.435H727.45Z" transform="translate(-636.921 -460.692)" fill="#fff"/>
      <path id="Path_6738" data-name="Path 6738" d="M789.8,470.53a5.379,5.379,0,0,1,5.487-5.53c3.262,0,4.968,2.2,4.968,5.076a8.869,8.869,0,0,1-.13,1.4h-8.014v-2.1h5.9l-.5.6c0-1.685-.734-2.592-2.117-2.592-1.555,0-2.57,1.058-2.57,3.154,0,2.182,1.188,3.154,3.24,3.154a5.787,5.787,0,0,0,2.722-.734l1.037,1.879a8.031,8.031,0,0,1-4.191,1.231C792.37,476.059,789.8,474.029,789.8,470.53Z" transform="translate(-687.175 -459.751)" fill="#fff"/>
      <path id="Path_6739" data-name="Path 6739" d="M853.465,459.76h-.086l-.238,1.145H850.7V446h3.132v3.629l-.108,1.663h.086a4.262,4.262,0,0,1,2.894-1.21c2.635,0,4.255,2.117,4.255,5.357,0,3.651-2.2,5.724-4.558,5.724A4.033,4.033,0,0,1,853.465,459.76Zm4.255-4.255c0-1.9-.626-2.83-1.944-2.83a2.6,2.6,0,0,0-1.944.972V457.9a2.71,2.71,0,0,0,1.815.691C856.77,458.593,857.72,457.686,857.72,455.5Z" transform="translate(-734.921 -444.855)" fill="#fff"/>
    </g>
    <g id="Group_7269" data-name="Group 7269" transform="translate(192.2 247.9)">
      <g id="Group_7260" data-name="Group 7260">
        <rect id="Rectangle_3347" data-name="Rectangle 3347" width="110.034" height="36.635" transform="translate(1.361 1.361)" fill="#fff"/>
        <path id="Path_6740" data-name="Path 6740" d="M304.955,287.256H192.2V247.9H304.955Zm-110.034-2.722H302.234V250.622H194.922Z" transform="translate(-192.2 -247.9)" fill="#2e3192"/>
      </g>
      <g id="Group_7268" data-name="Group 7268" transform="translate(13.025 8.921)">
        <g id="Group_7261" data-name="Group 7261" transform="translate(0 6.545)">
          <path id="Path_6741" data-name="Path 6741" d="M252.5,325.03a5.379,5.379,0,0,1,5.487-5.53c3.262,0,4.968,2.2,4.968,5.076a8.855,8.855,0,0,1-.13,1.4h-8.014v-2.1h5.9l-.5.6c0-1.685-.734-2.592-2.117-2.592-1.555,0-2.57,1.058-2.57,3.154,0,2.182,1.188,3.154,3.24,3.154a5.786,5.786,0,0,0,2.722-.734l1.037,1.879a8.031,8.031,0,0,1-4.191,1.231C255.07,330.56,252.5,328.529,252.5,325.03Z" transform="translate(-252.5 -319.5)" fill="#2e3192"/>
        </g>
        <g id="Group_7262" data-name="Group 7262" transform="translate(12.723 6.545)">
          <path id="Path_6742" data-name="Path 6742" d="M311.4,328.939,312.739,327a8.079,8.079,0,0,0,4.255,1.253c1.166,0,1.685-.389,1.685-.907,0-.583-.518-.8-2.592-1.231-2.873-.6-4.018-1.663-4.018-3.3,0-1.966,1.836-3.3,4.86-3.3a8.528,8.528,0,0,1,4.579,1.447l-1.4,1.879a6.752,6.752,0,0,0-3.456-1.015c-.972,0-1.469.346-1.469.842,0,.583.648.734,2.441,1.123,3.262.734,4.169,1.663,4.169,3.37,0,1.9-1.814,3.413-5.206,3.413A9.885,9.885,0,0,1,311.4,328.939Z" transform="translate(-311.4 -319.5)" fill="#2e3192"/>
        </g>
        <g id="Group_7263" data-name="Group 7263" transform="translate(25.424 3.564)">
          <path id="Path_6743" data-name="Path 6743" d="M372.857,315.118v-3.737H370.2v-2.333l2.808-.13.41-3.218h2.592v3.218h4.45v2.463h-4.471v3.694c0,1.6.67,2.2,2.225,2.2a6.25,6.25,0,0,0,2.1-.367l.562,2.268a11.535,11.535,0,0,1-3.456.562C374.045,319.74,372.857,317.883,372.857,315.118Z" transform="translate(-370.2 -305.7)" fill="#2e3192"/>
        </g>
        <g id="Group_7264" data-name="Group 7264" transform="translate(38.449)">
          <path id="Path_6744" data-name="Path 6744" d="M430.5,302.506v-6.523h3.132v6.135c0,1.4.367,2.03,1.534,2.03a2.417,2.417,0,0,0,2.052-1.21V296h3.132v10.563H437.8l-.216-1.512H437.5a4.5,4.5,0,0,1-3.564,1.771C431.537,306.8,430.5,305.163,430.5,302.506Zm3.3-9.418,3.262-3.888,2.117,2.074-3.823,3.348Z" transform="translate(-430.5 -289.2)" fill="#2e3192"/>
        </g>
        <g id="Group_7265" data-name="Group 7265" transform="translate(50.913 2.462)">
          <path id="Path_6745" data-name="Path 6745" d="M488.2,310.212c0-3.456,2.225-5.53,4.515-5.53a3.424,3.424,0,0,1,2.657,1.145h.065l-.151-1.642V300.6h3.132v14.9h-2.549l-.216-1.08h-.086a4.464,4.464,0,0,1-2.916,1.339C489.95,315.742,488.2,313.668,488.2,310.212Zm7.085,1.987v-4.255a2.469,2.469,0,0,0-1.771-.691c-1.145,0-2.138.929-2.138,2.938,0,2.074.756,3,2.052,3A2.236,2.236,0,0,0,495.285,312.2Z" transform="translate(-488.2 -300.6)" fill="#2e3192"/>
        </g>
        <g id="Group_7266" data-name="Group 7266" transform="translate(64.348 1.296)">
          <path id="Path_6746" data-name="Path 6746" d="M554.655,303.149H550.4v-2.462h7.387v10.563h-3.132Zm-.67-6a2.08,2.08,0,1,1,2.074,1.922A1.931,1.931,0,0,1,553.986,297.144Z" transform="translate(-550.4 -295.2)" fill="#2e3192"/>
        </g>
        <g id="Group_7267" data-name="Group 7267" transform="translate(76.445 6.545)">
          <path id="Path_6747" data-name="Path 6747" d="M606.4,325.03a5.381,5.381,0,1,1,5.379,5.53A5.28,5.28,0,0,1,606.4,325.03Zm7.56,0c0-1.836-.734-3-2.182-3s-2.182,1.188-2.182,3,.734,3,2.182,3S613.96,326.866,613.96,325.03Z" transform="translate(-606.4 -319.5)" fill="#2e3192"/>
        </g>
      </g>
    </g>
  </g>
</svg>
